{
.appVersion = "1352";
DisplayStrings = (

glyphs = (
{
glyphname = .notdef;
lastChange = "2021-08-31 12:20:37 +0000";
layers = (
{
layerId = "FC6CF40E-48D1-4025-95B5-EAE50260AD89";
paths = (
{
closed = 1;
nodes = (
"473 0 LINE",
"482 8 LINE",
"482 621 LINE",
"473 630 LINE",
"52 630 LINE",
"44 620 LINE",
"44 9 LINE",
"52 0 LINE"
);
},
{
closed = 1;
nodes = (
"148 150 LINE",
"238 316 LINE",
"148 479 LINE",
"167 514 LINE",
"257 350 LINE",
"348 514 LINE",
"367 479 LINE",
"277 314 LINE",
"367 150 LINE",
"348 116 LINE",
"257 279 LINE",
"167 116 LINE"
);
},
{
closed = 1;
nodes = (
"61 613 LINE",
"465 613 LINE",
"465 16 LINE",
"61 16 LINE"
);
},
{
closed = 1;
nodes = (
"96 49 LINE",
"431 49 LINE",
"431 577 LINE",
"96 577 LINE"
);
}
);
width = 523;
}
);
note = .notdef;
},
{
glyphname = A;
lastChange = "2021-08-31 12:20:37 +0000";
layers = (
{
anchors = (
{
name = bottom;
position = "{197, 0}";
},
{
name = ogonek;
position = "{497, -17}";
},
{
name = top;
position = "{359, 809}";
}
);
layerId = "FC6CF40E-48D1-4025-95B5-EAE50260AD89";
paths = (
{
closed = 1;
nodes = (
"-46 -90 OFFCURVE",
"29 -2 OFFCURVE",
"123 126 CURVE",
"210 105 OFFCURVE",
"313 99 OFFCURVE",
"309 100 CURVE",
"315 99 OFFCURVE",
"342 82 OFFCURVE",
"377 32 CURVE",
"386 11 OFFCURVE",
"395 -9 OFFCURVE",
"405 -27 CURVE SMOOTH",
"415 -45 OFFCURVE",
"434 -52 OFFCURVE",
"444 -52 CURVE SMOOTH",
"448 -52 OFFCURVE",
"450 -51 OFFCURVE",
"450 -49 CURVE",
"433 -19 OFFCURVE",
"414 15 OFFCURVE",
"395 84 CURVE",
"403 94 OFFCURVE",
"423 101 OFFCURVE",
"440 104 CURVE SMOOTH",
"526 117 OFFCURVE",
"568 137 OFFCURVE",
"568 169 CURVE SMOOTH",
"568 185 OFFCURVE",
"561 196 OFFCURVE",
"557 196 CURVE SMOOTH",
"555 196 OFFCURVE",
"554 195 OFFCURVE",
"554 191 CURVE SMOOTH",
"553 142 OFFCURVE",
"440 118 OFFCURVE",
"388 114 CURVE",
"385 130 OFFCURVE",
"381 147 OFFCURVE",
"378 166 CURVE SMOOTH",
"362 255 OFFCURVE",
"354 364 OFFCURVE",
"354 473 CURVE",
"402 562 OFFCURVE",
"422 629 OFFCURVE",
"422 680 CURVE SMOOTH",
"422 745 OFFCURVE",
"390 783 OFFCURVE",
"349 803 CURVE",
"348 803 OFFCURVE",
"347 804 OFFCURVE",
"346 804 CURVE SMOOTH",
"345 804 OFFCURVE",
"343 804 OFFCURVE",
"342 803 CURVE",
"328 809 OFFCURVE",
"310 812 OFFCURVE",
"297 812 CURVE SMOOTH",
"273 812 OFFCURVE",
"276 790 OFFCURVE",
"272 758 CURVE SMOOTH",
"271 751 OFFCURVE",
"271 739 OFFCURVE",
"271 723 CURVE SMOOTH",
"271 663 OFFCURVE",
"277 546 OFFCURVE",
"293 417 CURVE",
"245 344 OFFCURVE",
"191 267 OFFCURVE",
"136 193 CURVE",
"97 208 OFFCURVE",
"59 220 OFFCURVE",
"24 220 CURVE SMOOTH",
"10 220 OFFCURVE",
"-3 220 OFFCURVE",
"-3 206 CURVE SMOOTH",
"-3 173 OFFCURVE",
"37 151 OFFCURVE",
"92 134 CURVE",
"29 52 OFFCURVE",
"-33 -23 OFFCURVE",
"-87 -82 CURVE SMOOTH",
"-89 -84 OFFCURVE",
"-90 -86 OFFCURVE",
"-90 -87 CURVE SMOOTH",
"-90 -89 OFFCURVE",
"-88 -90 OFFCURVE",
"-85 -90 CURVE SMOOTH"
);
},
{
closed = 1;
nodes = (
"288 125 OFFCURVE",
"224 156 OFFCURVE",
"163 182 CURVE",
"205 243 OFFCURVE",
"251 310 OFFCURVE",
"298 381 CURVE",
"310 291 OFFCURVE",
"327 198 OFFCURVE",
"350 116 CURVE"
);
},
{
closed = 1;
nodes = (
"354 603 OFFCURVE",
"359 686 OFFCURVE",
"365 759 CURVE",
"388 741 OFFCURVE",
"405 716 OFFCURVE",
"405 676 CURVE SMOOTH",
"405 638 OFFCURVE",
"391 589 OFFCURVE",
"354 519 CURVE"
);
}
);
width = 515;
}
);
note = A;
unicode = 0041;
},
{
glyphname = B;
lastChange = "2021-08-31 12:20:37 +0000";
layers = (
{
anchors = (
{
name = bottom;
position = "{312, 0}";
},
{
name = top;
position = "{383, 750}";
}
);
layerId = "FC6CF40E-48D1-4025-95B5-EAE50260AD89";
paths = (
{
closed = 1;
nodes = (
"281 -131 OFFCURVE",
"559 17 OFFCURVE",
"607 160 CURVE",
"660 185 OFFCURVE",
"697 207 OFFCURVE",
"697 223 CURVE SMOOTH",
"697 224 OFFCURVE",
"696 224 OFFCURVE",
"695 224 CURVE SMOOTH",
"692 224 OFFCURVE",
"671 214 OFFCURVE",
"613 190 CURVE",
"614 193 OFFCURVE",
"614 197 OFFCURVE",
"614 201 CURVE SMOOTH",
"614 318 OFFCURVE",
"407 404 OFFCURVE",
"280 430 CURVE",
"363 459 OFFCURVE",
"424 509 OFFCURVE",
"479 550 CURVE SMOOTH",
"500 566 OFFCURVE",
"509 583 OFFCURVE",
"509 600 CURVE SMOOTH",
"509 677 OFFCURVE",
"320 761 OFFCURVE",
"208 787 CURVE SMOOTH",
"193 791 OFFCURVE",
"175 792 OFFCURVE",
"157 792 CURVE SMOOTH",
"88 792 OFFCURVE",
"11 770 OFFCURVE",
"11 754 CURVE SMOOTH",
"11 751 OFFCURVE",
"13 749 OFFCURVE",
"18 747 CURVE",
"26 748 OFFCURVE",
"36 749 OFFCURVE",
"49 749 CURVE SMOOTH",
"79 749 OFFCURVE",
"121 744 OFFCURVE",
"166 735 CURVE SMOOTH",
"247 718 OFFCURVE",
"446 641 OFFCURVE",
"446 588 CURVE SMOOTH",
"446 515 OFFCURVE",
"312 465 OFFCURVE",
"219 439 CURVE",
"205 440 OFFCURVE",
"192 441 OFFCURVE",
"181 441 CURVE SMOOTH",
"168 441 LINE SMOOTH",
"160 441 OFFCURVE",
"153 443 OFFCURVE",
"146 443 CURVE",
"159 531 OFFCURVE",
"181 614 OFFCURVE",
"214 670 CURVE",
"214 673 LINE SMOOTH",
"214 686 OFFCURVE",
"190 708 OFFCURVE",
"170 708 CURVE SMOOTH",
"153 708 OFFCURVE",
"120 634 OFFCURVE",
"111 612 CURVE SMOOTH",
"110 610 OFFCURVE",
"110 608 OFFCURVE",
"110 606 CURVE SMOOTH",
"110 604 OFFCURVE",
"110 602 OFFCURVE",
"112 602 CURVE SMOOTH",
"115 602 OFFCURVE",
"120 605 OFFCURVE",
"127 614 CURVE",
"119 570 OFFCURVE",
"109 508 OFFCURVE",
"100 439 CURVE",
"51 432 OFFCURVE",
"15 413 OFFCURVE",
"15 405 CURVE SMOOTH",
"15 385 OFFCURVE",
"67 374 OFFCURVE",
"70 374 CURVE SMOOTH",
"76 374 OFFCURVE",
"84 375 OFFCURVE",
"93 377 CURVE",
"83 288 OFFCURVE",
"75 195 OFFCURVE",
"75 122 CURVE SMOOTH",
"75 87 OFFCURVE",
"77 55 OFFCURVE",
"81 32 CURVE SMOOTH",
"84 12 OFFCURVE",
"133 0 OFFCURVE",
"146 0 CURVE SMOOTH",
"148 0 OFFCURVE",
"149 0 OFFCURVE",
"149 1 CURVE",
"148 3 OFFCURVE",
"148 11 OFFCURVE",
"148 22 CURVE SMOOTH",
"148 52 OFFCURVE",
"150 104 OFFCURVE",
"150 127 CURVE SMOOTH",
"150 139 OFFCURVE",
"150 142 OFFCURVE",
"148 142 CURVE SMOOTH",
"146 142 OFFCURVE",
"140 116 OFFCURVE",
"134 97 CURVE",
"131 131 OFFCURVE",
"129 170 OFFCURVE",
"129 212 CURVE SMOOTH",
"129 268 OFFCURVE",
"132 330 OFFCURVE",
"139 390 CURVE",
"146 393 OFFCURVE",
"151 396 OFFCURVE",
"154 398 CURVE",
"316 368 OFFCURVE",
"551 307 OFFCURVE",
"551 195 CURVE SMOOTH",
"551 184 OFFCURVE",
"548 173 OFFCURVE",
"544 161 CURVE",
"491 140 OFFCURVE",
"423 112 OFFCURVE",
"332 77 CURVE SMOOTH",
"189 21 OFFCURVE",
"108 -44 OFFCURVE",
"108 -81 CURVE SMOOTH",
"108 -93 OFFCURVE",
"133 -138 OFFCURVE",
"154 -139 CURVE"
);
},
{
closed = 1;
nodes = (
"148 -59 OFFCURVE",
"267 23 OFFCURVE",
"337 51 CURVE SMOOTH",
"392 72 OFFCURVE",
"459 98 OFFCURVE",
"521 123 CURVE",
"504 102 OFFCURVE",
"481 80 OFFCURVE",
"449 57 CURVE SMOOTH",
"345 -19 OFFCURVE",
"283 -47 OFFCURVE",
"147 -82 CURVE"
);
}
);
width = 624;
}
);
note = B;
unicode = 0042;
},
{
glyphname = C;
lastChange = "2021-08-31 12:20:37 +0000";
layers = (
{
anchors = (
{
name = bottom;
position = "{269, -104}";
},
{
name = top;
position = "{638, 750}";
}
);
layerId = "FC6CF40E-48D1-4025-95B5-EAE50260AD89";
paths = (
{
closed = 1;
nodes = (
"328 -122 OFFCURVE",
"400 -110 OFFCURVE",
"482 -86 CURVE SMOOTH",
"705 -22 OFFCURVE",
"831 62 OFFCURVE",
"924 152 CURVE SMOOTH",
"927 155 OFFCURVE",
"928 158 OFFCURVE",
"928 160 CURVE SMOOTH",
"928 163 OFFCURVE",
"927 164 OFFCURVE",
"924 164 CURVE SMOOTH",
"922 164 OFFCURVE",
"918 163 OFFCURVE",
"914 159 CURVE",
"804 79 OFFCURVE",
"463 -51 OFFCURVE",
"243 -51 CURVE SMOOTH",
"123 -51 OFFCURVE",
"46 -14 OFFCURVE",
"46 87 CURVE SMOOTH",
"46 302 OFFCURVE",
"348 591 OFFCURVE",
"596 591 CURVE SMOOTH",
"606 591 OFFCURVE",
"615 590 OFFCURVE",
"621 587 CURVE",
"581 542 OFFCURVE",
"519 459 OFFCURVE",
"519 459 CURVE",
"519 458 OFFCURVE",
"520 457 OFFCURVE",
"521 457 CURVE SMOOTH",
"525 457 OFFCURVE",
"533 461 OFFCURVE",
"549 472 CURVE SMOOTH",
"573 488 OFFCURVE",
"701 585 OFFCURVE",
"701 623 CURVE SMOOTH",
"701 628 OFFCURVE",
"699 632 OFFCURVE",
"693 635 CURVE",
"713 651 OFFCURVE",
"739 722 OFFCURVE",
"739 726 CURVE SMOOTH",
"739 744 OFFCURVE",
"728 756 OFFCURVE",
"721 756 CURVE SMOOTH",
"722 756 OFFCURVE",
"685 660 OFFCURVE",
"672 643 CURVE",
"657 650 OFFCURVE",
"624 654 OFFCURVE",
"593 654 CURVE SMOOTH",
"584 654 OFFCURVE",
"574 654 OFFCURVE",
"566 653 CURVE SMOOTH",
"252 617 OFFCURVE",
"21 318 OFFCURVE",
"21 92 CURVE SMOOTH",
"21 -43 OFFCURVE",
"106 -122 OFFCURVE",
"267 -122 CURVE SMOOTH"
);
}
);
width = 875;
}
);
note = C;
unicode = 0043;
},
{
glyphname = D;
lastChange = "2021-08-31 12:20:37 +0000";
layers = (
{
anchors = (
{
name = bottom;
position = "{344, 0}";
},
{
name = center;
position = "{344, 375}";
},
{
name = top;
position = "{476, 695}";
}
);
layerId = "FC6CF40E-48D1-4025-95B5-EAE50260AD89";
paths = (
{
closed = 1;
nodes = (
"242 -133 OFFCURVE",
"411 -63 OFFCURVE",
"515 37 CURVE SMOOTH",
"557 77 OFFCURVE",
"589 120 OFFCURVE",
"613 162 CURVE",
"646 176 LINE SMOOTH",
"664 184 OFFCURVE",
"697 206 OFFCURVE",
"697 211 CURVE SMOOTH",
"697 212 OFFCURVE",
"696 213 OFFCURVE",
"694 213 CURVE SMOOTH",
"684 213 OFFCURVE",
"675 203 OFFCURVE",
"627 189 CURVE",
"649 236 OFFCURVE",
"659 283 OFFCURVE",
"659 328 CURVE SMOOTH",
"659 521 OFFCURVE",
"475 683 OFFCURVE",
"275 716 CURVE",
"274 733 OFFCURVE",
"270 747 OFFCURVE",
"262 747 CURVE SMOOTH",
"257 747 OFFCURVE",
"251 743 OFFCURVE",
"244 731 CURVE SMOOTH",
"242 728 OFFCURVE",
"240 725 OFFCURVE",
"238 720 CURVE",
"226 721 OFFCURVE",
"214 722 OFFCURVE",
"202 722 CURVE SMOOTH",
"166 722 OFFCURVE",
"130 717 OFFCURVE",
"96 708 CURVE SMOOTH",
"42 695 OFFCURVE",
"-5 673 OFFCURVE",
"-5 661 CURVE SMOOTH",
"-5 659 OFFCURVE",
"-3 656 OFFCURVE",
"2 655 CURVE",
"25 662 OFFCURVE",
"76 671 OFFCURVE",
"133 671 CURVE SMOOTH",
"160 671 OFFCURVE",
"187 668 OFFCURVE",
"214 664 CURVE",
"165 536 OFFCURVE",
"80 258 OFFCURVE",
"80 59 CURVE SMOOTH",
"80 11 OFFCURVE",
"90 -51 OFFCURVE",
"114 -51 CURVE SMOOTH",
"115 -51 OFFCURVE",
"115 -51 OFFCURVE",
"115 -50 CURVE SMOOTH",
"111 -23 OFFCURVE",
"108 3 OFFCURVE",
"108 44 CURVE SMOOTH",
"108 214 OFFCURVE",
"168 479 OFFCURVE",
"263 653 CURVE",
"434 608 OFFCURVE",
"580 478 OFFCURVE",
"580 301 CURVE SMOOTH",
"580 253 OFFCURVE",
"568 204 OFFCURVE",
"541 157 CURVE",
"332 77 LINE SMOOTH",
"189 22 OFFCURVE",
"108 -44 OFFCURVE",
"108 -81 CURVE SMOOTH",
"108 -93 OFFCURVE",
"133 -138 OFFCURVE",
"154 -139 CURVE"
);
},
{
closed = 1;
nodes = (
"148 -59 OFFCURVE",
"267 24 OFFCURVE",
"337 51 CURVE SMOOTH",
"399 75 OFFCURVE",
"460 100 OFFCURVE",
"518 123 CURVE",
"499 99 OFFCURVE",
"476 77 OFFCURVE",
"449 57 CURVE SMOOTH",
"346 -20 OFFCURVE",
"283 -46 OFFCURVE",
"147 -82 CURVE"
);
}
);
width = 687;
}
);
note = D;
unicode = 0044;
},
{
glyphname = E;
lastChange = "2021-08-31 12:20:37 +0000";
layers = (
{
anchors = (
{
name = bottom;
position = "{248, -103}";
},
{
name = ogonek;
position = "{520, -85}";
},
{
name = top;
position = "{451, 770}";
},
{
name = topleft;
position = "{20, 750}";
}
);
layerId = "FC6CF40E-48D1-4025-95B5-EAE50260AD89";
paths = (
{
closed = 1;
nodes = (
"465 -108 OFFCURVE",
"554 -40 OFFCURVE",
"554 -27 CURVE SMOOTH",
"554 -24 OFFCURVE",
"551 -22 OFFCURVE",
"545 -21 CURVE",
"525 -35 OFFCURVE",
"460 -45 OFFCURVE",
"385 -45 CURVE SMOOTH",
"233 -45 OFFCURVE",
"62 -11 OFFCURVE",
"62 85 CURVE SMOOTH",
"62 175 OFFCURVE",
"184 251 OFFCURVE",
"309 306 CURVE",
"367 306 OFFCURVE",
"473 321 OFFCURVE",
"473 364 CURVE SMOOTH",
"473 385 OFFCURVE",
"459 408 OFFCURVE",
"437 408 CURVE SMOOTH",
"423 408 OFFCURVE",
"298 360 OFFCURVE",
"263 341 CURVE",
"177 382 OFFCURVE",
"107 451 OFFCURVE",
"107 513 CURVE SMOOTH",
"107 568 OFFCURVE",
"150 617 OFFCURVE",
"279 660 CURVE SMOOTH",
"373 691 OFFCURVE",
"433 702 OFFCURVE",
"521 702 CURVE SMOOTH",
"547 702 OFFCURVE",
"576 702 OFFCURVE",
"609 700 CURVE",
"468 597 OFFCURVE",
"164 618 OFFCURVE",
"164 597 CURVE SMOOTH",
"164 593 OFFCURVE",
"170 589 OFFCURVE",
"199 589 CURVE SMOOTH",
"284 589 OFFCURVE",
"604 610 OFFCURVE",
"652 677 CURVE",
"652 681 LINE SMOOTH",
"652 697 OFFCURVE",
"638 751 OFFCURVE",
"620 756 CURVE SMOOTH",
"596 763 OFFCURVE",
"563 765 OFFCURVE",
"527 765 CURVE SMOOTH",
"352 765 OFFCURVE",
"76 682 OFFCURVE",
"76 538 CURVE SMOOTH",
"76 463 OFFCURVE",
"143 380 OFFCURVE",
"243 328 CURVE",
"145 270 OFFCURVE",
"86 185 OFFCURVE",
"19 107 CURVE SMOOTH",
"-1 84 OFFCURVE",
"-10 62 OFFCURVE",
"-10 43 CURVE SMOOTH",
"-10 -58 OFFCURVE",
"227 -108 OFFCURVE",
"351 -108 CURVE SMOOTH"
);
}
);
width = 528;
}
);
note = E;
unicode = 0045;
},
{
glyphname = F;
lastChange = "2021-08-31 12:20:37 +0000";
layers = (
{
anchors = (
{
name = bottom;
position = "{300, 0}";
},
{
name = top;
position = "{529, 750}";
}
);
layerId = "FC6CF40E-48D1-4025-95B5-EAE50260AD89";
paths = (
{
closed = 1;
nodes = (
"284 -46 OFFCURVE",
"293 -13 OFFCURVE",
"295 28 CURVE SMOOTH",
"298 98 OFFCURVE",
"306 204 OFFCURVE",
"314 298 CURVE",
"396 311 OFFCURVE",
"470 319 OFFCURVE",
"536 319 CURVE SMOOTH",
"568 319 OFFCURVE",
"599 313 OFFCURVE",
"627 313 CURVE SMOOTH",
"632 313 OFFCURVE",
"638 317 OFFCURVE",
"638 321 CURVE SMOOTH",
"638 337 OFFCURVE",
"537 342 OFFCURVE",
"450 342 CURVE SMOOTH",
"408 342 OFFCURVE",
"364 340 OFFCURVE",
"317 338 CURVE",
"323 410 OFFCURVE",
"335 528 OFFCURVE",
"351 633 CURVE",
"461 660 OFFCURVE",
"565 674 OFFCURVE",
"653 674 CURVE SMOOTH",
"690 674 OFFCURVE",
"725 666 OFFCURVE",
"762 666 CURVE SMOOTH",
"770 666 OFFCURVE",
"774 668 OFFCURVE",
"774 671 CURVE SMOOTH",
"774 691 OFFCURVE",
"662 699 OFFCURVE",
"593 699 CURVE SMOOTH",
"520 699 OFFCURVE",
"440 692 OFFCURVE",
"359 681 CURVE",
"368 732 OFFCURVE",
"379 777 OFFCURVE",
"391 807 CURVE",
"391 810 LINE SMOOTH",
"391 827 OFFCURVE",
"364 854 OFFCURVE",
"341 854 CURVE SMOOTH",
"322 854 OFFCURVE",
"291 761 OFFCURVE",
"285 732 CURVE SMOOTH",
"281 714 OFFCURVE",
"280 704 OFFCURVE",
"280 700 CURVE SMOOTH",
"280 698 OFFCURVE",
"280 697 OFFCURVE",
"281 697 CURVE SMOOTH",
"283 697 OFFCURVE",
"293 719 OFFCURVE",
"303 735 CURVE",
"293 670 LINE",
"219 657 OFFCURVE",
"147 640 OFFCURVE",
"83 621 CURVE",
"70 619 OFFCURVE",
"55 567 OFFCURVE",
"55 545 CURVE SMOOTH",
"55 539 OFFCURVE",
"56 535 OFFCURVE",
"59 535 CURVE SMOOTH",
"60 535 LINE",
"136 567 OFFCURVE",
"212 594 OFFCURVE",
"287 615 CURVE",
"277 529 OFFCURVE",
"267 422 OFFCURVE",
"265 335 CURVE",
"190 330 OFFCURVE",
"114 322 OFFCURVE",
"42 312 CURVE SMOOTH",
"29 310 OFFCURVE",
"4 259 OFFCURVE",
"4 242 CURVE SMOOTH",
"4 239 OFFCURVE",
"5 238 OFFCURVE",
"7 238 CURVE SMOOTH",
"24 238 LINE SMOOTH",
"83 238 OFFCURVE",
"156 219 OFFCURVE",
"184 174 CURVE SMOOTH",
"232 94 OFFCURVE",
"248 -14 OFFCURVE",
"248 -60 CURVE"
);
},
{
closed = 1;
nodes = (
"230 181 OFFCURVE",
"185 233 OFFCURVE",
"120 262 CURVE",
"170 272 OFFCURVE",
"218 282 OFFCURVE",
"264 290 CURVE",
"261 230 OFFCURVE",
"260 173 OFFCURVE",
"260 122 CURVE SMOOTH",
"260 90 OFFCURVE",
"260 61 OFFCURVE",
"262 36 CURVE"
);
}
);
width = 600;
}
);
note = F;
unicode = 0046;
},
{
glyphname = G;
lastChange = "2021-08-31 12:20:37 +0000";
layers = (
{
anchors = (
{
name = bottom;
position = "{235, -302}";
},
{
name = top;
position = "{413, 776}";
}
);
layerId = "FC6CF40E-48D1-4025-95B5-EAE50260AD89";
paths = (
{
closed = 1;
nodes = (
"313 -367 OFFCURVE",
"316 -345 OFFCURVE",
"331 -319 CURVE SMOOTH",
"356 -270 OFFCURVE",
"468 84 OFFCURVE",
"487 363 CURVE",
"530 405 OFFCURVE",
"574 443 OFFCURVE",
"617 474 CURVE",
"619 476 OFFCURVE",
"620 479 OFFCURVE",
"620 480 CURVE SMOOTH",
"620 484 OFFCURVE",
"616 486 OFFCURVE",
"611 486 CURVE SMOOTH",
"606 486 OFFCURVE",
"599 484 OFFCURVE",
"592 481 CURVE SMOOTH",
"566 467 OFFCURVE",
"530 438 OFFCURVE",
"489 398 CURVE",
"489 412 OFFCURVE",
"490 425 OFFCURVE",
"490 438 CURVE SMOOTH",
"490 479 OFFCURVE",
"487 515 OFFCURVE",
"482 549 CURVE SMOOTH",
"478 576 OFFCURVE",
"431 590 OFFCURVE",
"415 590 CURVE SMOOTH",
"411 590 OFFCURVE",
"410 590 OFFCURVE",
"410 588 CURVE",
"383 493 OFFCURVE",
"284 327 OFFCURVE",
"205 239 CURVE SMOOTH",
"179 210 OFFCURVE",
"142 194 OFFCURVE",
"106 194 CURVE SMOOTH",
"64 194 OFFCURVE",
"47 223 OFFCURVE",
"47 265 CURVE SMOOTH",
"47 370 OFFCURVE",
"120 492 OFFCURVE",
"224 583 CURVE",
"377 595 OFFCURVE",
"615 624 OFFCURVE",
"652 677 CURVE",
"652 681 LINE SMOOTH",
"652 698 OFFCURVE",
"638 749 OFFCURVE",
"620 756 CURVE SMOOTH",
"598 763 OFFCURVE",
"575 768 OFFCURVE",
"549 768 CURVE SMOOTH",
"430 768 OFFCURVE",
"279 700 OFFCURVE",
"163 599 CURVE",
"135 597 OFFCURVE",
"114 597 OFFCURVE",
"104 597 CURVE SMOOTH",
"91 597 OFFCURVE",
"78 592 OFFCURVE",
"78 587 CURVE SMOOTH",
"78 583 OFFCURVE",
"86 578 OFFCURVE",
"110 578 CURVE SMOOTH",
"140 578 LINE",
"48 491 OFFCURVE",
"-16 383 OFFCURVE",
"-16 272 CURVE SMOOTH",
"-16 198 OFFCURVE",
"38 136 OFFCURVE",
"109 136 CURVE SMOOTH",
"188 136 OFFCURVE",
"263 254 OFFCURVE",
"299 311 CURVE SMOOTH",
"351 396 OFFCURVE",
"372 445 OFFCURVE",
"432 517 CURVE",
"440 483 OFFCURVE",
"446 437 OFFCURVE",
"446 379 CURVE SMOOTH",
"446 370 OFFCURVE",
"446 362 OFFCURVE",
"445 353 CURVE",
"312 212 OFFCURVE",
"157 -9 OFFCURVE",
"157 -167 CURVE SMOOTH",
"157 -224 OFFCURVE",
"177 -272 OFFCURVE",
"226 -306 CURVE SMOOTH",
"230 -309 OFFCURVE",
"234 -310 OFFCURVE",
"239 -310 CURVE SMOOTH",
"240 -310 LINE",
"239 -310 OFFCURVE",
"239 -311 OFFCURVE",
"239 -312 CURVE SMOOTH",
"238 -315 OFFCURVE",
"237 -317 OFFCURVE",
"237 -320 CURVE SMOOTH",
"237 -337 OFFCURVE",
"266 -367 OFFCURVE",
"295 -367 CURVE SMOOTH"
);
},
{
closed = 1;
nodes = (
"211 -252 OFFCURVE",
"194 -207 OFFCURVE",
"194 -154 CURVE SMOOTH",
"194 -19 OFFCURVE",
"307 168 OFFCURVE",
"442 316 CURVE",
"424 132 OFFCURVE",
"334 -104 OFFCURVE",
"252 -283 CURVE"
);
},
{
closed = 1;
nodes = (
"336 671 OFFCURVE",
"436 715 OFFCURVE",
"535 715 CURVE SMOOTH",
"563 715 OFFCURVE",
"588 710 OFFCURVE",
"609 700 CURVE",
"580 649 OFFCURVE",
"392 620 OFFCURVE",
"252 606 CURVE"
);
}
);
width = 551;
}
);
note = G;
unicode = 0047;
},
{
glyphname = H;
lastChange = "2021-08-31 12:20:37 +0000";
layers = (
{
anchors = (
{
name = bottom;
position = "{303, 0}";
},
{
name = center;
position = "{303, 375}";
},
{
name = top;
position = "{347, 786}";
},
{
name = topleft;
position = "{20, 750}";
}
);
layerId = "FC6CF40E-48D1-4025-95B5-EAE50260AD89";
paths = (
{
closed = 1;
nodes = (
"544 -112 OFFCURVE",
"546 -112 OFFCURVE",
"546 -110 CURVE",
"540 -87 OFFCURVE",
"539 80 OFFCURVE",
"533 80 CURVE SMOOTH",
"531 80 OFFCURVE",
"529 44 OFFCURVE",
"524 18 CURVE",
"513 106 OFFCURVE",
"507 217 OFFCURVE",
"507 329 CURVE",
"523 328 OFFCURVE",
"539 327 OFFCURVE",
"554 327 CURVE SMOOTH",
"557 327 OFFCURVE",
"561 330 OFFCURVE",
"561 334 CURVE SMOOTH",
"561 343 OFFCURVE",
"539 349 OFFCURVE",
"507 352 CURVE",
"508 511 OFFCURVE",
"528 670 OFFCURVE",
"569 767 CURVE",
"569 770 LINE SMOOTH",
"569 786 OFFCURVE",
"541 810 OFFCURVE",
"518 810 CURVE SMOOTH",
"499 810 OFFCURVE",
"468 717 OFFCURVE",
"462 688 CURVE SMOOTH",
"458 670 OFFCURVE",
"457 660 OFFCURVE",
"457 656 CURVE SMOOTH",
"457 654 OFFCURVE",
"457 653 OFFCURVE",
"458 653 CURVE SMOOTH",
"460 653 OFFCURVE",
"470 675 OFFCURVE",
"480 691 CURVE",
"472 614 OFFCURVE",
"452 487 OFFCURVE",
"446 356 CURVE",
"419 357 OFFCURVE",
"388 357 OFFCURVE",
"358 357 CURVE SMOOTH",
"286 357 OFFCURVE",
"207 354 OFFCURVE",
"132 348 CURVE",
"142 486 OFFCURVE",
"167 626 OFFCURVE",
"213 712 CURVE",
"213 715 LINE SMOOTH",
"213 732 OFFCURVE",
"183 753 OFFCURVE",
"166 753 CURVE SMOOTH",
"149 753 OFFCURVE",
"103 644 OFFCURVE",
"93 619 CURVE",
"93 616 LINE",
"97 616 OFFCURVE",
"111 631 OFFCURVE",
"126 650 CURVE",
"113 579 OFFCURVE",
"97 462 OFFCURVE",
"86 344 CURVE",
"19 337 OFFCURVE",
"-42 327 OFFCURVE",
"-88 314 CURVE SMOOTH",
"-97 312 OFFCURVE",
"-109 262 OFFCURVE",
"-109 242 CURVE SMOOTH",
"-109 238 OFFCURVE",
"-108 235 OFFCURVE",
"-107 235 CURVE SMOOTH",
"-106 235 LINE",
"-94 240 OFFCURVE",
"1 254 OFFCURVE",
"1 257 CURVE",
"1 257 OFFCURVE",
"-5 258 OFFCURVE",
"-12 258 CURVE SMOOTH",
"-38 258 LINE",
"-38 258 OFFCURVE",
"-38 259 OFFCURVE",
"-37 259 CURVE",
"0 270 OFFCURVE",
"40 281 OFFCURVE",
"81 289 CURVE",
"76 225 OFFCURVE",
"73 162 OFFCURVE",
"73 109 CURVE SMOOTH",
"73 70 OFFCURVE",
"75 36 OFFCURVE",
"79 10 CURVE SMOOTH",
"82 -11 OFFCURVE",
"130 -25 OFFCURVE",
"143 -25 CURVE SMOOTH",
"146 -25 OFFCURVE",
"147 -25 OFFCURVE",
"147 -24 CURVE SMOOTH",
"146 -21 OFFCURVE",
"146 -12 OFFCURVE",
"146 -1 CURVE SMOOTH",
"146 32 OFFCURVE",
"148 89 OFFCURVE",
"148 115 CURVE SMOOTH",
"148 127 OFFCURVE",
"148 131 OFFCURVE",
"146 131 CURVE SMOOTH",
"144 131 OFFCURVE",
"138 102 OFFCURVE",
"132 82 CURVE",
"129 118 OFFCURVE",
"127 161 OFFCURVE",
"127 205 CURVE SMOOTH",
"127 235 OFFCURVE",
"127 266 OFFCURVE",
"129 298 CURVE",
"235 318 OFFCURVE",
"347 328 OFFCURVE",
"445 330 CURVE",
"445 292 LINE SMOOTH",
"445 147 OFFCURVE",
"461 6 OFFCURVE",
"477 -74 CURVE SMOOTH",
"482 -99 OFFCURVE",
"526 -112 OFFCURVE",
"541 -112 CURVE SMOOTH"
);
}
);
width = 606;
}
);
note = H;
unicode = 0048;
},
{
glyphname = I;
lastChange = "2021-08-31 12:20:37 +0000";
layers = (
{
anchors = (
{
name = bottom;
position = "{115, -56}";
},
{
name = ogonek;
position = "{212, -41}";
},
{
name = top;
position = "{300, 738}";
},
{
name = topleft;
position = "{20, 750}";
}
);
layerId = "FC6CF40E-48D1-4025-95B5-EAE50260AD89";
paths = (
{
closed = 1;
nodes = (
"70 -117 OFFCURVE",
"107 -87 OFFCURVE",
"138 -46 CURVE",
"295 -21 OFFCURVE",
"449 13 OFFCURVE",
"449 31 CURVE SMOOTH",
"449 32 OFFCURVE",
"447 33 OFFCURVE",
"444 33 CURVE SMOOTH",
"441 33 LINE",
"366 10 OFFCURVE",
"265 -5 OFFCURVE",
"160 -14 CURVE",
"199 50 OFFCURVE",
"225 130 OFFCURVE",
"237 171 CURVE SMOOTH",
"271 287 OFFCURVE",
"314 510 OFFCURVE",
"332 657 CURVE",
"371 662 OFFCURVE",
"411 666 OFFCURVE",
"449 666 CURVE SMOOTH",
"485 666 OFFCURVE",
"520 665 OFFCURVE",
"549 664 CURVE SMOOTH",
"550 664 OFFCURVE",
"551 664 OFFCURVE",
"551 665 CURVE SMOOTH",
"551 678 OFFCURVE",
"470 688 OFFCURVE",
"412 688 CURVE SMOOTH",
"387 688 OFFCURVE",
"361 687 OFFCURVE",
"335 685 CURVE",
"336 695 OFFCURVE",
"338 703 OFFCURVE",
"338 711 CURVE SMOOTH",
"338 730 OFFCURVE",
"331 738 OFFCURVE",
"305 738 CURVE SMOOTH",
"281 738 OFFCURVE",
"254 730 OFFCURVE",
"253 714 CURVE SMOOTH",
"250 675 LINE",
"171 663 OFFCURVE",
"97 645 OFFCURVE",
"51 625 CURVE",
"44 623 OFFCURVE",
"36 585 OFFCURVE",
"36 568 CURVE SMOOTH",
"36 564 OFFCURVE",
"37 561 OFFCURVE",
"38 561 CURVE SMOOTH",
"39 561 LINE",
"89 593 OFFCURVE",
"165 622 OFFCURVE",
"248 641 CURVE",
"231 412 OFFCURVE",
"188 118 OFFCURVE",
"116 -18 CURVE",
"63 -21 OFFCURVE",
"10 -23 OFFCURVE",
"-40 -23 CURVE SMOOTH",
"-85 -23 OFFCURVE",
"-128 -22 OFFCURVE",
"-168 -19 CURVE SMOOTH",
"-169 -19 OFFCURVE",
"-170 -19 OFFCURVE",
"-170 -21 CURVE SMOOTH",
"-170 -32 OFFCURVE",
"-145 -77 OFFCURVE",
"-135 -76 CURVE SMOOTH",
"-63 -72 LINE",
"-53 -85 OFFCURVE",
"-25 -117 OFFCURVE",
"27 -117 CURVE SMOOTH"
);
},
{
closed = 1;
nodes = (
"-4 -94 OFFCURVE",
"-27 -80 OFFCURVE",
"-43 -70 CURVE",
"-1 -66 OFFCURVE",
"46 -59 OFFCURVE",
"94 -52 CURVE",
"74 -79 OFFCURVE",
"53 -94 OFFCURVE",
"29 -94 CURVE SMOOTH"
);
}
);
width = 387;
}
);
note = I;
unicode = 0049;
},
{
glyphname = J;
lastChange = "2021-08-31 12:20:37 +0000";
layers = (
{
anchors = (
{
name = bottom;
position = "{215, 0}";
},
{
name = top;
position = "{286, 688}";
}
);
layerId = "FC6CF40E-48D1-4025-95B5-EAE50260AD89";
paths = (
{
closed = 1;
nodes = (
"178 -335 OFFCURVE",
"183 -297 OFFCURVE",
"208 -211 CURVE SMOOTH",
"244 -85 OFFCURVE",
"294 106 OFFCURVE",
"318 289 CURVE",
"378 338 OFFCURVE",
"443 380 OFFCURVE",
"509 408 CURVE",
"513 411 OFFCURVE",
"514 413 OFFCURVE",
"514 415 CURVE SMOOTH",
"514 419 OFFCURVE",
"509 422 OFFCURVE",
"501 422 CURVE SMOOTH",
"497 422 OFFCURVE",
"493 421 OFFCURVE",
"488 420 CURVE",
"440 404 OFFCURVE",
"382 369 OFFCURVE",
"322 322 CURVE",
"329 377 OFFCURVE",
"332 431 OFFCURVE",
"332 482 CURVE SMOOTH",
"332 521 OFFCURVE",
"329 557 OFFCURVE",
"324 591 CURVE SMOOTH",
"320 616 OFFCURVE",
"287 624 OFFCURVE",
"265 624 CURVE SMOOTH",
"253 624 OFFCURVE",
"247 622 OFFCURVE",
"247 619 CURVE",
"264 564 OFFCURVE",
"272 493 OFFCURVE",
"272 414 CURVE SMOOTH",
"272 369 OFFCURVE",
"269 321 OFFCURVE",
"264 273 CURVE",
"125 146 OFFCURVE",
"-4 -33 OFFCURVE",
"-4 -169 CURVE SMOOTH",
"-4 -224 OFFCURVE",
"17 -272 OFFCURVE",
"67 -306 CURVE SMOOTH",
"71 -309 OFFCURVE",
"75 -310 OFFCURVE",
"80 -310 CURVE SMOOTH",
"81 -310 LINE",
"80 -310 OFFCURVE",
"80 -311 OFFCURVE",
"80 -312 CURVE SMOOTH",
"79 -315 OFFCURVE",
"78 -317 OFFCURVE",
"78 -320 CURVE SMOOTH",
"78 -339 OFFCURVE",
"103 -359 OFFCURVE",
"130 -366 CURVE"
);
},
{
closed = 1;
nodes = (
"53 -253 OFFCURVE",
"35 -209 OFFCURVE",
"35 -159 CURVE SMOOTH",
"35 -42 OFFCURVE",
"130 113 OFFCURVE",
"259 237 CURVE",
"248 152 OFFCURVE",
"228 65 OFFCURVE",
"201 -12 CURVE SMOOTH",
"168 -107 OFFCURVE",
"131 -200 OFFCURVE",
"93 -283 CURVE"
);
},
{
closed = 1;
nodes = (
"39 561 LINE",
"129 618 OFFCURVE",
"301 666 OFFCURVE",
"449 666 CURVE SMOOTH",
"485 666 OFFCURVE",
"520 665 OFFCURVE",
"549 664 CURVE SMOOTH",
"550 664 OFFCURVE",
"551 664 OFFCURVE",
"551 665 CURVE SMOOTH",
"551 678 OFFCURVE",
"470 688 OFFCURVE",
"412 688 CURVE SMOOTH",
"286 688 OFFCURVE",
"129 659 OFFCURVE",
"51 625 CURVE",
"44 623 OFFCURVE",
"36 585 OFFCURVE",
"36 568 CURVE SMOOTH",
"36 564 OFFCURVE",
"37 561 OFFCURVE",
"38 561 CURVE SMOOTH"
);
}
);
width = 430;
}
);
note = J;
unicode = 004A;
},
{
glyphname = K;
lastChange = "2021-08-31 12:20:37 +0000";
layers = (
{
anchors = (
{
name = bottom;
position = "{359, 0}";
},
{
name = top;
position = "{335, 750}";
}
);
layerId = "FC6CF40E-48D1-4025-95B5-EAE50260AD89";
paths = (
{
closed = 1;
nodes = (
"527 119 OFFCURVE",
"530 120 OFFCURVE",
"530 122 CURVE SMOOTH",
"530 125 OFFCURVE",
"527 128 OFFCURVE",
"521 131 CURVE SMOOTH",
"432 181 OFFCURVE",
"335 219 OFFCURVE",
"237 242 CURVE",
"325 335 OFFCURVE",
"392 448 OFFCURVE",
"447 571 CURVE SMOOTH",
"448 574 OFFCURVE",
"449 577 OFFCURVE",
"449 579 CURVE SMOOTH",
"449 584 OFFCURVE",
"446 586 OFFCURVE",
"443 586 CURVE SMOOTH",
"435 586 OFFCURVE",
"365 475 OFFCURVE",
"314 406 CURVE",
"289 377 OFFCURVE",
"229 305 OFFCURVE",
"172 255 CURVE",
"168 255 OFFCURVE",
"165 257 OFFCURVE",
"161 257 CURVE SMOOTH",
"158 257 LINE SMOOTH",
"137 257 OFFCURVE",
"119 239 OFFCURVE",
"119 227 CURVE SMOOTH",
"119 218 OFFCURVE",
"121 215 OFFCURVE",
"124 210 CURVE SMOOTH",
"130 201 OFFCURVE",
"148 193 OFFCURVE",
"169 193 CURVE SMOOTH",
"180 193 OFFCURVE",
"191 196 OFFCURVE",
"198 203 CURVE SMOOTH",
"206 210 LINE",
"263 201 OFFCURVE",
"322 186 OFFCURVE",
"348 179 CURVE SMOOTH",
"419 157 OFFCURVE",
"488 133 OFFCURVE",
"521 120 CURVE",
"522 119 OFFCURVE",
"523 119 OFFCURVE",
"525 119 CURVE SMOOTH"
);
},
{
closed = 1;
nodes = (
"150 -112 OFFCURVE",
"152 -112 OFFCURVE",
"152 -110 CURVE",
"146 -87 OFFCURVE",
"145 80 OFFCURVE",
"139 80 CURVE SMOOTH",
"137 80 OFFCURVE",
"135 44 OFFCURVE",
"130 18 CURVE",
"119 109 OFFCURVE",
"113 225 OFFCURVE",
"113 341 CURVE SMOOTH",
"113 504 OFFCURVE",
"133 668 OFFCURVE",
"175 767 CURVE",
"175 770 LINE SMOOTH",
"175 786 OFFCURVE",
"147 810 OFFCURVE",
"124 810 CURVE SMOOTH",
"105 810 OFFCURVE",
"74 717 OFFCURVE",
"68 688 CURVE SMOOTH",
"64 670 OFFCURVE",
"63 660 OFFCURVE",
"63 656 CURVE SMOOTH",
"63 654 OFFCURVE",
"63 653 OFFCURVE",
"64 653 CURVE SMOOTH",
"66 653 OFFCURVE",
"76 675 OFFCURVE",
"86 691 CURVE",
"77 602 OFFCURVE",
"51 445 OFFCURVE",
"51 292 CURVE SMOOTH",
"51 147 OFFCURVE",
"67 6 OFFCURVE",
"83 -74 CURVE SMOOTH",
"88 -99 OFFCURVE",
"132 -112 OFFCURVE",
"147 -112 CURVE SMOOTH"
);
}
);
width = 546;
}
);
note = K;
unicode = 004B;
},
{
glyphname = L;
lastChange = "2021-08-31 12:20:37 +0000";
layers = (
{
anchors = (
{
name = bottom;
position = "{321, -108}";
},
{
name = center;
position = "{210, 375}";
},
{
name = top;
position = "{439, 750}";
},
{
name = topright;
position = "{539, 750}";
}
);
layerId = "FC6CF40E-48D1-4025-95B5-EAE50260AD89";
paths = (
{
closed = 1;
nodes = (
"593 -148 OFFCURVE",
"627 -136 OFFCURVE",
"627 -94 CURVE SMOOTH",
"627 -64 OFFCURVE",
"600 -31 OFFCURVE",
"543 -11 CURVE SMOOTH",
"537 -9 OFFCURVE",
"532 -8 OFFCURVE",
"529 -8 CURVE SMOOTH",
"526 -8 OFFCURVE",
"524 -9 OFFCURVE",
"524 -10 CURVE SMOOTH",
"524 -12 OFFCURVE",
"527 -16 OFFCURVE",
"534 -20 CURVE SMOOTH",
"546 -28 OFFCURVE",
"593 -84 OFFCURVE",
"593 -108 CURVE SMOOTH",
"593 -119 OFFCURVE",
"583 -120 OFFCURVE",
"568 -120 CURVE SMOOTH",
"504 -120 OFFCURVE",
"366 -68 OFFCURVE",
"207 -2 CURVE",
"243 62 OFFCURVE",
"268 134 OFFCURVE",
"279 171 CURVE SMOOTH",
"287 198 OFFCURVE",
"295 231 OFFCURVE",
"304 267 CURVE",
"407 365 OFFCURVE",
"510 493 OFFCURVE",
"510 585 CURVE SMOOTH",
"510 627 OFFCURVE",
"489 665 OFFCURVE",
"439 691 CURVE SMOOTH",
"413 704 OFFCURVE",
"397 709 OFFCURVE",
"388 709 CURVE SMOOTH",
"382 709 OFFCURVE",
"379 707 OFFCURVE",
"379 704 CURVE SMOOTH",
"379 698 OFFCURVE",
"388 689 OFFCURVE",
"402 684 CURVE SMOOTH",
"445 667 OFFCURVE",
"463 636 OFFCURVE",
"463 597 CURVE SMOOTH",
"463 522 OFFCURVE",
"398 417 OFFCURVE",
"316 323 CURVE",
"340 435 OFFCURVE",
"361 562 OFFCURVE",
"372 645 CURVE SMOOTH",
"374 669 OFFCURVE",
"376 687 OFFCURVE",
"376 700 CURVE SMOOTH",
"376 731 OFFCURVE",
"341 746 OFFCURVE",
"321 746 CURVE SMOOTH",
"298 746 OFFCURVE",
"258 648 OFFCURVE",
"248 624 CURVE SMOOTH",
"244 615 OFFCURVE",
"242 605 OFFCURVE",
"242 600 CURVE SMOOTH",
"242 598 OFFCURVE",
"242 597 OFFCURVE",
"243 597 CURVE SMOOTH",
"245 597 OFFCURVE",
"285 658 OFFCURVE",
"291 658 CURVE",
"282 528 OFFCURVE",
"263 374 OFFCURVE",
"234 239 CURVE",
"189 196 OFFCURVE",
"142 159 OFFCURVE",
"102 134 CURVE",
"100 132 OFFCURVE",
"100 131 OFFCURVE",
"100 130 CURVE SMOOTH",
"100 128 OFFCURVE",
"102 127 OFFCURVE",
"107 127 CURVE SMOOTH",
"125 127 OFFCURVE",
"171 155 OFFCURVE",
"225 199 CURVE",
"209 128 OFFCURVE",
"190 65 OFFCURVE",
"169 14 CURVE",
"89 47 OFFCURVE",
"6 83 OFFCURVE",
"-74 118 CURVE",
"-76 118 OFFCURVE",
"-77 119 OFFCURVE",
"-79 119 CURVE SMOOTH",
"-98 119 OFFCURVE",
"-122 75 OFFCURVE",
"-123 59 CURVE SMOOTH",
"-123 49 OFFCURVE",
"-47 20 OFFCURVE",
"-10 3 CURVE SMOOTH",
"-6 1 OFFCURVE",
"-4 0 OFFCURVE",
"-1 0 CURVE SMOOTH",
"7 0 OFFCURVE",
"6 10 OFFCURVE",
"7 14 CURVE",
"145 -36 LINE",
"120 -79 OFFCURVE",
"92 -105 OFFCURVE",
"62 -105 CURVE SMOOTH",
"8 -105 OFFCURVE",
"-21 -69 OFFCURVE",
"-30 -69 CURVE SMOOTH",
"-34 -69 OFFCURVE",
"-36 -71 OFFCURVE",
"-36 -74 CURVE SMOOTH",
"-36 -75 OFFCURVE",
"-35 -77 OFFCURVE",
"-34 -78 CURVE SMOOTH",
"-30 -84 OFFCURVE",
"-1 -128 OFFCURVE",
"60 -128 CURVE SMOOTH",
"106 -128 OFFCURVE",
"146 -93 OFFCURVE",
"179 -47 CURVE",
"337 -101 OFFCURVE",
"495 -148 OFFCURVE",
"553 -148 CURVE SMOOTH"
);
}
);
width = 420;
}
);
note = L;
unicode = 004C;
},
{
glyphname = M;
lastChange = "2021-08-31 12:20:37 +0000";
layers = (
{
anchors = (
{
name = bottom;
position = "{333, 0}";
},
{
name = top;
position = "{288, 750}";
}
);
layerId = "FC6CF40E-48D1-4025-95B5-EAE50260AD89";
paths = (
{
closed = 1;
nodes = (
"146 -25 OFFCURVE",
"147 -25 OFFCURVE",
"147 -24 CURVE",
"146 -22 OFFCURVE",
"146 -19 OFFCURVE",
"146 -14 CURVE SMOOTH",
"146 117 OFFCURVE",
"181 349 OFFCURVE",
"237 513 CURVE",
"242 356 OFFCURVE",
"269 34 OFFCURVE",
"316 30 CURVE SMOOTH",
"322 29 OFFCURVE",
"329 29 OFFCURVE",
"335 29 CURVE SMOOTH",
"359 29 OFFCURVE",
"375 36 OFFCURVE",
"375 62 CURVE SMOOTH",
"375 93 OFFCURVE",
"428 431 OFFCURVE",
"445 431 CURVE SMOOTH",
"461 431 OFFCURVE",
"467 180 OFFCURVE",
"509 129 CURVE SMOOTH",
"519 117 OFFCURVE",
"532 109 OFFCURVE",
"546 109 CURVE SMOOTH",
"573 109 OFFCURVE",
"607 137 OFFCURVE",
"647 216 CURVE SMOOTH",
"655 233 OFFCURVE",
"678 285 OFFCURVE",
"678 311 CURVE SMOOTH",
"678 318 OFFCURVE",
"677 323 OFFCURVE",
"675 323 CURVE SMOOTH",
"668 323 OFFCURVE",
"641 250 OFFCURVE",
"628 226 CURVE SMOOTH",
"607 188 OFFCURVE",
"592 171 OFFCURVE",
"581 171 CURVE SMOOTH",
"546 171 OFFCURVE",
"525 343 OFFCURVE",
"525 450 CURVE SMOOTH",
"525 465 OFFCURVE",
"526 479 OFFCURVE",
"526 492 CURVE SMOOTH",
"526 533 OFFCURVE",
"497 569 OFFCURVE",
"471 569 CURVE SMOOTH",
"454 569 OFFCURVE",
"445 545 OFFCURVE",
"433 495 CURVE SMOOTH",
"417 428 OFFCURVE",
"343 129 OFFCURVE",
"342 107 CURVE",
"325 144 OFFCURVE",
"309 310 OFFCURVE",
"309 389 CURVE SMOOTH",
"309 477 OFFCURVE",
"323 637 OFFCURVE",
"326 658 CURVE SMOOTH",
"326 660 OFFCURVE",
"327 662 OFFCURVE",
"327 664 CURVE SMOOTH",
"327 693 OFFCURVE",
"283 726 OFFCURVE",
"281 726 CURVE SMOOTH",
"270 726 OFFCURVE",
"252 699 OFFCURVE",
"225 585 CURVE SMOOTH",
"204 498 OFFCURVE",
"139 214 OFFCURVE",
"130 113 CURVE",
"127 161 OFFCURVE",
"125 212 OFFCURVE",
"125 264 CURVE SMOOTH",
"125 404 OFFCURVE",
"139 544 OFFCURVE",
"190 628 CURVE",
"190 629 LINE SMOOTH",
"190 644 OFFCURVE",
"150 668 OFFCURVE",
"139 668 CURVE SMOOTH",
"132 668 OFFCURVE",
"66 545 OFFCURVE",
"66 531 CURVE SMOOTH",
"66 528 OFFCURVE",
"66 526 OFFCURVE",
"69 526 CURVE SMOOTH",
"73 526 OFFCURVE",
"91 544 OFFCURVE",
"103 556 CURVE",
"85 469 OFFCURVE",
"69 302 OFFCURVE",
"69 164 CURVE SMOOTH",
"69 104 OFFCURVE",
"72 50 OFFCURVE",
"79 10 CURVE SMOOTH",
"82 -11 OFFCURVE",
"130 -25 OFFCURVE",
"143 -25 CURVE SMOOTH"
);
}
);
width = 666;
}
);
note = M;
unicode = 004D;
},
{
glyphname = N;
lastChange = "2021-08-31 12:20:37 +0000";
layers = (
{
anchors = (
{
name = bottom;
position = "{310, 0}";
},
{
name = top;
position = "{359, 727}";
}
);
layerId = "FC6CF40E-48D1-4025-95B5-EAE50260AD89";
paths = (
{
closed = 1;
nodes = (
"159 -22 OFFCURVE",
"160 -22 OFFCURVE",
"160 -21 CURVE",
"157 -12 OFFCURVE",
"153 24 OFFCURVE",
"153 64 CURVE SMOOTH",
"153 85 OFFCURVE",
"154 106 OFFCURVE",
"157 126 CURVE SMOOTH",
"186 316 OFFCURVE",
"248 419 OFFCURVE",
"286 513 CURVE",
"285 493 OFFCURVE",
"285 473 OFFCURVE",
"285 453 CURVE SMOOTH",
"285 297 OFFCURVE",
"312 41 OFFCURVE",
"397 41 CURVE SMOOTH",
"425 41 OFFCURVE",
"461 70 OFFCURVE",
"500 148 CURVE SMOOTH",
"508 165 OFFCURVE",
"531 217 OFFCURVE",
"531 243 CURVE SMOOTH",
"531 250 OFFCURVE",
"530 255 OFFCURVE",
"528 255 CURVE SMOOTH",
"521 255 OFFCURVE",
"494 182 OFFCURVE",
"481 158 CURVE SMOOTH",
"460 118 OFFCURVE",
"440 100 OFFCURVE",
"425 100 CURVE SMOOTH",
"382 100 OFFCURVE",
"360 255 OFFCURVE",
"360 355 CURVE SMOOTH",
"360 459 OFFCURVE",
"377 564 OFFCURVE",
"397 659 CURVE",
"398 661 OFFCURVE",
"398 664 OFFCURVE",
"398 666 CURVE SMOOTH",
"398 694 OFFCURVE",
"359 727 OFFCURVE",
"354 727 CURVE SMOOTH",
"338 727 OFFCURVE",
"314 700 OFFCURVE",
"279 585 CURVE SMOOTH",
"229 423 OFFCURVE",
"145 279 OFFCURVE",
"130 113 CURVE",
"127 161 OFFCURVE",
"125 212 OFFCURVE",
"125 264 CURVE SMOOTH",
"125 404 OFFCURVE",
"139 544 OFFCURVE",
"190 628 CURVE",
"190 629 LINE SMOOTH",
"190 644 OFFCURVE",
"151 669 OFFCURVE",
"140 669 CURVE SMOOTH",
"138 669 OFFCURVE",
"137 669 OFFCURVE",
"137 668 CURVE",
"101 616 OFFCURVE",
"47 533 OFFCURVE",
"23 482 CURVE",
"23 479 LINE SMOOTH",
"23 476 OFFCURVE",
"23 474 OFFCURVE",
"26 474 CURVE SMOOTH",
"32 474 OFFCURVE",
"65 520 OFFCURVE",
"83 538 CURVE",
"73 489 OFFCURVE",
"68 418 OFFCURVE",
"68 342 CURVE SMOOTH",
"68 225 OFFCURVE",
"79 94 OFFCURVE",
"92 13 CURVE SMOOTH",
"95 -8 OFFCURVE",
"143 -22 OFFCURVE",
"156 -22 CURVE SMOOTH"
);
}
);
width = 470;
}
);
note = N;
unicode = 004E;
},
{
glyphname = O;
lastChange = "2021-08-31 12:20:37 +0000";
layers = (
{
anchors = (
{
name = bottom;
position = "{324, -129}";
},
{
name = center;
position = "{518, 375}";
},
{
name = ogonek;
position = "{320, -100}";
},
{
name = top;
position = "{668, 724}";
},
{
name = topleft;
position = "{20, 750}";
},
{
name = topright;
position = "{910, 581}";
}
);
layerId = "FC6CF40E-48D1-4025-95B5-EAE50260AD89";
paths = (
{
closed = 1;
nodes = (
"334 -129 OFFCURVE",
"388 -122 OFFCURVE",
"447 -107 CURVE SMOOTH",
"721 -38 OFFCURVE",
"1047 145 OFFCURVE",
"1047 392 CURVE SMOOTH",
"1047 590 OFFCURVE",
"698 708 OFFCURVE",
"608 708 CURVE SMOOTH",
"568 708 OFFCURVE",
"451 691 OFFCURVE",
"451 668 CURVE SMOOTH",
"451 651 OFFCURVE",
"564 648 OFFCURVE",
"580 647 CURVE SMOOTH",
"749 634 OFFCURVE",
"1011 549 OFFCURVE",
"1011 396 CURVE SMOOTH",
"1011 247 OFFCURVE",
"718 45 OFFCURVE",
"495 -13 CURVE SMOOTH",
"407 -36 OFFCURVE",
"318 -51 OFFCURVE",
"244 -51 CURVE SMOOTH",
"123 -51 OFFCURVE",
"46 -14 OFFCURVE",
"46 87 CURVE SMOOTH",
"46 294 OFFCURVE",
"313 552 OFFCURVE",
"551 587 CURVE",
"561 587 LINE SMOOTH",
"652 587 OFFCURVE",
"724 546 OFFCURVE",
"730 546 CURVE SMOOTH",
"737 546 OFFCURVE",
"740 550 OFFCURVE",
"740 555 CURVE SMOOTH",
"740 567 OFFCURVE",
"723 588 OFFCURVE",
"684 605 CURVE SMOOTH",
"669 611 OFFCURVE",
"639 615 OFFCURVE",
"609 615 CURVE SMOOTH",
"596 615 OFFCURVE",
"584 614 OFFCURVE",
"573 613 CURVE SMOOTH",
"244 582 OFFCURVE",
"21 316 OFFCURVE",
"21 93 CURVE SMOOTH",
"21 -51 OFFCURVE",
"120 -129 OFFCURVE",
"284 -129 CURVE SMOOTH"
);
}
);
width = 1035;
}
);
note = O;
unicode = 004F;
},
{
glyphname = P;
lastChange = "2021-08-31 12:20:37 +0000";
layers = (
{
anchors = (
{
name = bottom;
position = "{277, 0}";
},
{
name = top;
position = "{461, 773}";
}
);
layerId = "FC6CF40E-48D1-4025-95B5-EAE50260AD89";
paths = (
{
closed = 1;
nodes = (
"292 -194 OFFCURVE",
"315 -162 OFFCURVE",
"315 -157 CURVE SMOOTH",
"315 -154 OFFCURVE",
"313 -152 OFFCURVE",
"310 -152 CURVE SMOOTH",
"302 -152 OFFCURVE",
"287 -165 OFFCURVE",
"264 -165 CURVE SMOOTH",
"217 -165 OFFCURVE",
"185 -100 OFFCURVE",
"185 91 CURVE SMOOTH",
"185 122 OFFCURVE",
"185 154 OFFCURVE",
"187 185 CURVE",
"325 236 OFFCURVE",
"461 327 OFFCURVE",
"516 379 CURVE SMOOTH",
"601 459 OFFCURVE",
"644 535 OFFCURVE",
"644 595 CURVE SMOOTH",
"644 723 OFFCURVE",
"351 784 OFFCURVE",
"228 784 CURVE SMOOTH",
"178 784 OFFCURVE",
"123 773 OFFCURVE",
"59 736 CURVE SMOOTH",
"51 731 OFFCURVE",
"48 728 OFFCURVE",
"48 725 CURVE SMOOTH",
"48 719 OFFCURVE",
"57 718 OFFCURVE",
"70 718 CURVE SMOOTH",
"112 718 OFFCURVE",
"177 725 OFFCURVE",
"248 725 CURVE SMOOTH",
"413 725 OFFCURVE",
"606 685 OFFCURVE",
"606 587 CURVE SMOOTH",
"606 474 OFFCURVE",
"380 328 OFFCURVE",
"192 241 CURVE",
"192 244 OFFCURVE",
"192 246 OFFCURVE",
"193 249 CURVE",
"215 444 OFFCURVE",
"263 581 OFFCURVE",
"314 664 CURVE",
"315 665 OFFCURVE",
"315 667 OFFCURVE",
"315 668 CURVE SMOOTH",
"315 680 OFFCURVE",
"277 709 OFFCURVE",
"258 709 CURVE SMOOTH",
"228 709 OFFCURVE",
"171 570 OFFCURVE",
"171 556 CURVE SMOOTH",
"171 553 OFFCURVE",
"172 552 OFFCURVE",
"173 552 CURVE SMOOTH",
"184 552 OFFCURVE",
"197 601 OFFCURVE",
"211 615 CURVE",
"188 518 OFFCURVE",
"159 362 OFFCURVE",
"142 219 CURVE",
"122 211 OFFCURVE",
"102 203 OFFCURVE",
"84 197 CURVE SMOOTH",
"78 195 OFFCURVE",
"75 194 OFFCURVE",
"72 194 CURVE SMOOTH",
"70 194 OFFCURVE",
"69 195 OFFCURVE",
"69 196 CURVE SMOOTH",
"69 202 OFFCURVE",
"91 220 OFFCURVE",
"91 225 CURVE",
"91 225 OFFCURVE",
"90 226 OFFCURVE",
"89 226 CURVE",
"89 226 OFFCURVE",
"87 225 OFFCURVE",
"86 225 CURVE",
"86 225 OFFCURVE",
"21 211 OFFCURVE",
"1 199 CURVE SMOOTH",
"-9 193 OFFCURVE",
"-13 187 OFFCURVE",
"-13 181 CURVE SMOOTH",
"-13 162 OFFCURVE",
"29 151 OFFCURVE",
"55 151 CURVE",
"81 154 OFFCURVE",
"108 160 OFFCURVE",
"136 168 CURVE",
"129 108 OFFCURVE",
"126 52 OFFCURVE",
"126 6 CURVE SMOOTH",
"126 -101 OFFCURVE",
"148 -194 OFFCURVE",
"234 -194 CURVE SMOOTH"
);
}
);
width = 554;
}
);
note = P;
unicode = 0050;
},
{
glyphname = Q;
lastChange = "2021-08-31 12:20:37 +0000";
layers = (
{
layerId = "FC6CF40E-48D1-4025-95B5-EAE50260AD89";
paths = (
{
closed = 1;
nodes = (
"1030 -292 OFFCURVE",
"1054 -262 OFFCURVE",
"1054 -226 CURVE SMOOTH",
"1054 -193 OFFCURVE",
"1026 -134 OFFCURVE",
"923 -104 CURVE SMOOTH",
"913 -101 OFFCURVE",
"904 -100 OFFCURVE",
"898 -100 CURVE SMOOTH",
"893 -100 OFFCURVE",
"889 -101 OFFCURVE",
"889 -103 CURVE SMOOTH",
"889 -107 OFFCURVE",
"895 -111 OFFCURVE",
"907 -118 CURVE SMOOTH",
"939 -138 OFFCURVE",
"1019 -211 OFFCURVE",
"1019 -244 CURVE SMOOTH",
"1019 -263 OFFCURVE",
"1001 -270 OFFCURVE",
"977 -270 CURVE SMOOTH",
"962 -270 OFFCURVE",
"944 -267 OFFCURVE",
"928 -263 CURVE SMOOTH",
"849 -242 OFFCURVE",
"697 -145 OFFCURVE",
"537 -51 CURVE",
"661 50 OFFCURVE",
"768 208 OFFCURVE",
"768 346 CURVE SMOOTH",
"768 402 OFFCURVE",
"735 451 OFFCURVE",
"704 484 CURVE SMOOTH",
"657 532 OFFCURVE",
"557 590 OFFCURVE",
"474 590 CURVE SMOOTH",
"448 590 OFFCURVE",
"424 584 OFFCURVE",
"404 572 CURVE",
"404 567 OFFCURVE",
"460 545 OFFCURVE",
"514 530 CURVE SMOOTH",
"681 482 OFFCURVE",
"738 423 OFFCURVE",
"738 349 CURVE SMOOTH",
"738 257 OFFCURVE",
"597 67 OFFCURVE",
"472 -14 CURVE",
"352 54 OFFCURVE",
"233 115 OFFCURVE",
"141 135 CURVE",
"177 370 OFFCURVE",
"370 683 OFFCURVE",
"544 683 CURVE SMOOTH",
"634 683 OFFCURVE",
"649 628 OFFCURVE",
"667 628 CURVE SMOOTH",
"672 628 OFFCURVE",
"674 631 OFFCURVE",
"674 637 CURVE SMOOTH",
"674 650 OFFCURVE",
"660 676 OFFCURVE",
"630 697 CURVE SMOOTH",
"617 705 OFFCURVE",
"576 712 OFFCURVE",
"546 712 CURVE SMOOTH",
"539 712 OFFCURVE",
"532 712 OFFCURVE",
"527 711 CURVE SMOOTH",
"270 665 OFFCURVE",
"113 368 OFFCURVE",
"107 141 CURVE",
"98 142 OFFCURVE",
"90 143 OFFCURVE",
"82 143 CURVE SMOOTH",
"40 143 OFFCURVE",
"11 116 OFFCURVE",
"11 76 CURVE SMOOTH",
"11 49 OFFCURVE",
"24 15 OFFCURVE",
"57 -20 CURVE SMOOTH",
"70 -35 OFFCURVE",
"76 -39 OFFCURVE",
"78 -39 CURVE SMOOTH",
"79 -39 OFFCURVE",
"79 -38 OFFCURVE",
"79 -37 CURVE SMOOTH",
"79 -35 OFFCURVE",
"78 -31 OFFCURVE",
"78 -31 CURVE",
"78 -32 OFFCURVE",
"79 -32 OFFCURVE",
"79 -32 CURVE",
"80 -32 OFFCURVE",
"81 -32 OFFCURVE",
"81 -30 CURVE SMOOTH",
"81 -18 OFFCURVE",
"61 17 OFFCURVE",
"61 46 CURVE SMOOTH",
"61 70 OFFCURVE",
"71 89 OFFCURVE",
"104 89 CURVE SMOOTH",
"108 89 LINE",
"120 -65 OFFCURVE",
"201 -159 OFFCURVE",
"301 -159 CURVE SMOOTH",
"357 -159 OFFCURVE",
"424 -132 OFFCURVE",
"489 -87 CURVE",
"669 -187 OFFCURVE",
"859 -292 OFFCURVE",
"978 -292 CURVE SMOOTH"
);
},
{
closed = 1;
nodes = (
"189 -78 OFFCURVE",
"136 -40 OFFCURVE",
"136 64 CURVE SMOOTH",
"136 85 LINE",
"150 81 LINE SMOOTH",
"219 60 OFFCURVE",
"312 11 OFFCURVE",
"412 -44 CURVE",
"361 -64 OFFCURVE",
"310 -78 OFFCURVE",
"265 -78 CURVE SMOOTH"
);
}
);
width = 772;
}
);
note = Q;
unicode = 0051;
},
{
glyphname = R;
lastChange = "2021-08-31 12:20:37 +0000";
layers = (
{
anchors = (
{
name = bottom;
position = "{371, 0}";
},
{
name = top;
position = "{422, 750}";
}
);
layerId = "FC6CF40E-48D1-4025-95B5-EAE50260AD89";
paths = (
{
closed = 1;
nodes = (
"177 -73 OFFCURVE",
"178 -73 OFFCURVE",
"178 -72 CURVE SMOOTH",
"177 -69 OFFCURVE",
"177 -60 OFFCURVE",
"177 -49 CURVE SMOOTH",
"177 -16 OFFCURVE",
"179 41 OFFCURVE",
"179 67 CURVE SMOOTH",
"179 79 OFFCURVE",
"179 83 OFFCURVE",
"177 83 CURVE SMOOTH",
"175 83 OFFCURVE",
"169 54 OFFCURVE",
"163 34 CURVE",
"160 70 OFFCURVE",
"158 113 OFFCURVE",
"158 157 CURVE SMOOTH",
"158 180 OFFCURVE",
"158 205 OFFCURVE",
"159 229 CURVE",
"233 219 OFFCURVE",
"314 199 OFFCURVE",
"345 190 CURVE SMOOTH",
"422 166 OFFCURVE",
"497 137 OFFCURVE",
"533 124 CURVE",
"534 123 OFFCURVE",
"536 122 OFFCURVE",
"538 122 CURVE SMOOTH",
"540 122 OFFCURVE",
"543 124 OFFCURVE",
"543 126 CURVE SMOOTH",
"543 129 OFFCURVE",
"540 132 OFFCURVE",
"533 136 CURVE SMOOTH",
"437 192 OFFCURVE",
"339 239 OFFCURVE",
"225 271 CURVE",
"317 304 OFFCURVE",
"424 357 OFFCURVE",
"489 420 CURVE SMOOTH",
"547 476 OFFCURVE",
"584 511 OFFCURVE",
"584 551 CURVE SMOOTH",
"584 696 OFFCURVE",
"237 792 OFFCURVE",
"152 792 CURVE SMOOTH",
"113 792 OFFCURVE",
"70 784 OFFCURVE",
"20 764 CURVE SMOOTH",
"12 761 OFFCURVE",
"9 758 OFFCURVE",
"9 756 CURVE SMOOTH",
"9 743 OFFCURVE",
"107 745 OFFCURVE",
"123 744 CURVE SMOOTH",
"287 734 OFFCURVE",
"520 663 OFFCURVE",
"520 545 CURVE SMOOTH",
"520 503 OFFCURVE",
"491 456 OFFCURVE",
"418 403 CURVE SMOOTH",
"345 349 OFFCURVE",
"263 304 OFFCURVE",
"178 282 CURVE",
"162 286 LINE",
"171 428 OFFCURVE",
"196 575 OFFCURVE",
"244 664 CURVE",
"244 667 LINE SMOOTH",
"244 684 OFFCURVE",
"214 705 OFFCURVE",
"197 705 CURVE SMOOTH",
"180 705 OFFCURVE",
"134 596 OFFCURVE",
"124 571 CURVE",
"124 568 LINE",
"128 568 OFFCURVE",
"142 583 OFFCURVE",
"157 602 CURVE",
"146 537 OFFCURVE",
"131 435 OFFCURVE",
"120 328 CURVE",
"85 323 OFFCURVE",
"40 313 OFFCURVE",
"40 295 CURVE SMOOTH",
"40 283 OFFCURVE",
"65 239 OFFCURVE",
"86 237 CURVE SMOOTH",
"112 235 LINE",
"107 173 OFFCURVE",
"104 112 OFFCURVE",
"104 61 CURVE SMOOTH",
"104 22 OFFCURVE",
"106 -12 OFFCURVE",
"110 -38 CURVE SMOOTH",
"113 -59 OFFCURVE",
"161 -73 OFFCURVE",
"174 -73 CURVE SMOOTH"
);
}
);
width = 512;
}
);
note = R;
unicode = 0052;
},
{
glyphname = S;
lastChange = "2021-08-31 12:20:37 +0000";
layers = (
{
anchors = (
{
name = bottom;
position = "{313, -25}";
},
{
name = top;
position = "{606, 802}";
}
);
layerId = "FC6CF40E-48D1-4025-95B5-EAE50260AD89";
paths = (
{
closed = 1;
nodes = (
"510 -38 OFFCURVE",
"559 -16 OFFCURVE",
"559 39 CURVE SMOOTH",
"559 61 OFFCURVE",
"541 91 OFFCURVE",
"515 123 CURVE",
"578 136 OFFCURVE",
"629 154 OFFCURVE",
"658 175 CURVE",
"662 177 OFFCURVE",
"665 183 OFFCURVE",
"665 187 CURVE SMOOTH",
"665 188 OFFCURVE",
"664 190 OFFCURVE",
"662 190 CURVE SMOOTH",
"661 190 OFFCURVE",
"660 190 OFFCURVE",
"659 189 CURVE",
"617 167 OFFCURVE",
"562 151 OFFCURVE",
"500 141 CURVE",
"465 182 OFFCURVE",
"420 228 OFFCURVE",
"384 272 CURVE SMOOTH",
"288 388 OFFCURVE",
"252 452 OFFCURVE",
"252 493 CURVE SMOOTH",
"252 553 OFFCURVE",
"296 632 OFFCURVE",
"478 723 CURVE SMOOTH",
"515 741 OFFCURVE",
"569 758 OFFCURVE",
"613 758 CURVE SMOOTH",
"659 758 OFFCURVE",
"695 745 OFFCURVE",
"695 703 CURVE SMOOTH",
"695 627 OFFCURVE",
"596 484 OFFCURVE",
"524 431 CURVE SMOOTH",
"522 430 OFFCURVE",
"521 427 OFFCURVE",
"521 424 CURVE SMOOTH",
"521 410 OFFCURVE",
"542 378 OFFCURVE",
"565 378 CURVE SMOOTH",
"605 378 OFFCURVE",
"735 567 OFFCURVE",
"735 659 CURVE SMOOTH",
"735 718 OFFCURVE",
"680 790 OFFCURVE",
"631 799 CURVE SMOOTH",
"619 801 OFFCURVE",
"606 802 OFFCURVE",
"593 802 CURVE SMOOTH",
"548 802 OFFCURVE",
"497 790 OFFCURVE",
"449 770 CURVE SMOOTH",
"357 731 OFFCURVE",
"204 646 OFFCURVE",
"204 539 CURVE SMOOTH",
"204 522 OFFCURVE",
"208 504 OFFCURVE",
"217 486 CURVE SMOOTH",
"261 395 OFFCURVE",
"309 328 OFFCURVE",
"359 261 CURVE SMOOTH",
"380 232 OFFCURVE",
"422 181 OFFCURVE",
"452 134 CURVE",
"399 127 OFFCURVE",
"344 125 OFFCURVE",
"291 125 CURVE SMOOTH",
"239 125 OFFCURVE",
"189 128 OFFCURVE",
"145 133 CURVE",
"129 158 OFFCURVE",
"101 171 OFFCURVE",
"59 171 CURVE SMOOTH",
"16 171 OFFCURVE",
"4 161 OFFCURVE",
"4 151 CURVE SMOOTH",
"4 116 OFFCURVE",
"56 106 OFFCURVE",
"80 106 CURVE SMOOTH",
"94 106 OFFCURVE",
"108 108 OFFCURVE",
"119 108 CURVE",
"166 29 OFFCURVE",
"330 -38 OFFCURVE",
"444 -38 CURVE SMOOTH"
);
},
{
closed = 1;
nodes = (
"313 -3 OFFCURVE",
"208 41 OFFCURVE",
"160 106 CURVE",
"195 102 OFFCURVE",
"233 100 OFFCURVE",
"271 100 CURVE SMOOTH",
"336 100 OFFCURVE",
"403 105 OFFCURVE",
"463 114 CURVE",
"476 91 OFFCURVE",
"485 70 OFFCURVE",
"485 54 CURVE SMOOTH",
"485 15 OFFCURVE",
"447 -3 OFFCURVE",
"395 -3 CURVE SMOOTH"
);
}
);
width = 657;
}
);
note = S;
unicode = 0053;
},
{
glyphname = T;
lastChange = "2021-08-31 12:20:37 +0000";
layers = (
{
anchors = (
{
name = bottom;
position = "{268, -107}";
},
{
name = center;
position = "{455, 357}";
},
{
name = top;
position = "{509, 739}";
}
);
layerId = "FC6CF40E-48D1-4025-95B5-EAE50260AD89";
paths = (
{
closed = 1;
nodes = (
"380 -127 OFFCURVE",
"443 92 OFFCURVE",
"462 170 CURVE SMOOTH",
"484 263 OFFCURVE",
"511 425 OFFCURVE",
"527 562 CURVE",
"575 551 OFFCURVE",
"620 542 OFFCURVE",
"661 534 CURVE SMOOTH",
"704 525 OFFCURVE",
"770 515 OFFCURVE",
"827 515 CURVE SMOOTH",
"899 515 OFFCURVE",
"960 531 OFFCURVE",
"960 591 CURVE SMOOTH",
"960 638 OFFCURVE",
"924 662 OFFCURVE",
"914 667 CURVE SMOOTH",
"911 669 OFFCURVE",
"909 670 OFFCURVE",
"907 670 CURVE SMOOTH",
"906 670 OFFCURVE",
"906 670 OFFCURVE",
"906 669 CURVE SMOOTH",
"906 664 OFFCURVE",
"930 647 OFFCURVE",
"930 605 CURVE SMOOTH",
"930 573 OFFCURVE",
"913 554 OFFCURVE",
"850 554 CURVE SMOOTH",
"778 554 OFFCURVE",
"663 578 OFFCURVE",
"532 612 CURVE",
"539 686 LINE SMOOTH",
"540 694 OFFCURVE",
"540 702 OFFCURVE",
"540 709 CURVE SMOOTH",
"540 730 OFFCURVE",
"535 739 OFFCURVE",
"509 739 CURVE SMOOTH",
"484 739 OFFCURVE",
"458 731 OFFCURVE",
"455 713 CURVE SMOOTH",
"441 637 LINE",
"308 675 OFFCURVE",
"166 721 OFFCURVE",
"40 763 CURVE",
"38 763 OFFCURVE",
"37 764 OFFCURVE",
"36 764 CURVE SMOOTH",
"13 764 OFFCURVE",
"-10 715 OFFCURVE",
"-10 696 CURVE SMOOTH",
"-10 691 OFFCURVE",
"131 629 OFFCURVE",
"166 629 CURVE SMOOTH",
"167 629 OFFCURVE",
"168 629 OFFCURVE",
"168 630 CURVE SMOOTH",
"168 634 OFFCURVE",
"153 646 OFFCURVE",
"141 658 CURVE",
"224 634 OFFCURVE",
"328 607 OFFCURVE",
"430 584 CURVE",
"424 553 OFFCURVE",
"420 534 OFFCURVE",
"420 526 CURVE SMOOTH",
"420 522 OFFCURVE",
"420 520 OFFCURVE",
"421 520 CURVE SMOOTH",
"425 520 OFFCURVE",
"436 556 OFFCURVE",
"445 580 CURVE",
"446 580 OFFCURVE",
"448 580 OFFCURVE",
"450 579 CURVE",
"437 319 OFFCURVE",
"397 11 OFFCURVE",
"312 -68 CURVE SMOOTH",
"292 -86 OFFCURVE",
"266 -92 OFFCURVE",
"244 -92 CURVE SMOOTH",
"197 -92 OFFCURVE",
"180 -71 OFFCURVE",
"172 -71 CURVE SMOOTH",
"168 -71 OFFCURVE",
"166 -73 OFFCURVE",
"166 -76 CURVE SMOOTH",
"166 -77 OFFCURVE",
"167 -79 OFFCURVE",
"168 -81 CURVE SMOOTH",
"172 -87 OFFCURVE",
"202 -127 OFFCURVE",
"260 -127 CURVE SMOOTH"
);
}
);
width = 537;
}
);
note = T;
unicode = 0054;
},
{
glyphname = U;
lastChange = "2021-08-31 12:20:37 +0000";
layers = (
{
anchors = (
{
name = bottom;
position = "{418, 0}";
},
{
name = ogonek;
position = "{740, 0}";
},
{
name = top;
position = "{617, 750}";
},
{
name = topright;
position = "{697, 657}";
}
);
layerId = "FC6CF40E-48D1-4025-95B5-EAE50260AD89";
paths = (
{
closed = 1;
nodes = (
"675 -25 OFFCURVE",
"676 -25 OFFCURVE",
"676 -24 CURVE SMOOTH",
"675 -21 OFFCURVE",
"675 -12 OFFCURVE",
"675 -1 CURVE SMOOTH",
"675 32 OFFCURVE",
"677 89 OFFCURVE",
"677 115 CURVE SMOOTH",
"677 127 OFFCURVE",
"677 131 OFFCURVE",
"675 131 CURVE SMOOTH",
"673 131 OFFCURVE",
"667 102 OFFCURVE",
"661 82 CURVE",
"659 106 OFFCURVE",
"658 133 OFFCURVE",
"658 163 CURVE SMOOTH",
"658 321 OFFCURVE",
"683 544 OFFCURVE",
"746 654 CURVE",
"746 656 LINE SMOOTH",
"746 672 OFFCURVE",
"703 695 OFFCURVE",
"687 695 CURVE SMOOTH",
"668 695 OFFCURVE",
"613 581 OFFCURVE",
"613 574 CURVE SMOOTH",
"613 570 OFFCURVE",
"618 571 OFFCURVE",
"626 571 CURVE",
"581 433 OFFCURVE",
"388 101 OFFCURVE",
"326 30 CURVE",
"325 43 OFFCURVE",
"324 58 OFFCURVE",
"324 73 CURVE SMOOTH",
"324 151 OFFCURVE",
"339 256 OFFCURVE",
"375 378 CURVE SMOOTH",
"406 484 OFFCURVE",
"478 678 OFFCURVE",
"483 696 CURVE SMOOTH",
"484 700 OFFCURVE",
"485 705 OFFCURVE",
"485 709 CURVE SMOOTH",
"485 734 OFFCURVE",
"461 747 OFFCURVE",
"421 773 CURVE",
"394 770 OFFCURVE",
"325 715 OFFCURVE",
"266 657 CURVE SMOOTH",
"240 632 OFFCURVE",
"103 501 OFFCURVE",
"58 501 CURVE SMOOTH",
"47 501 OFFCURVE",
"42 508 OFFCURVE",
"42 519 CURVE SMOOTH",
"42 538 OFFCURVE",
"56 569 OFFCURVE",
"86 603 CURVE SMOOTH",
"94 612 OFFCURVE",
"98 618 OFFCURVE",
"98 620 CURVE SMOOTH",
"98 621 OFFCURVE",
"97 621 OFFCURVE",
"96 621 CURVE SMOOTH",
"95 621 OFFCURVE",
"92 620 OFFCURVE",
"89 618 CURVE SMOOTH",
"39 586 OFFCURVE",
"13 531 OFFCURVE",
"13 503 CURVE SMOOTH",
"13 459 OFFCURVE",
"36 428 OFFCURVE",
"66 428 CURVE SMOOTH",
"130 428 OFFCURVE",
"320 706 OFFCURVE",
"398 713 CURVE",
"401 708 OFFCURVE",
"403 710 OFFCURVE",
"403 707 CURVE SMOOTH",
"403 705 OFFCURVE",
"402 701 OFFCURVE",
"400 689 CURVE SMOOTH",
"386 609 OFFCURVE",
"334 469 OFFCURVE",
"321 421 CURVE SMOOTH",
"285 284 OFFCURVE",
"253 116 OFFCURVE",
"253 55 CURVE SMOOTH",
"253 50 OFFCURVE",
"253 45 OFFCURVE",
"254 42 CURVE",
"256 26 OFFCURVE",
"314 -7 OFFCURVE",
"348 -7 CURVE SMOOTH",
"359 -7 OFFCURVE",
"368 -4 OFFCURVE",
"371 6 CURVE SMOOTH",
"379 30 OFFCURVE",
"547 310 OFFCURVE",
"635 523 CURVE",
"617 410 OFFCURVE",
"601 246 OFFCURVE",
"601 123 CURVE SMOOTH",
"601 79 OFFCURVE",
"603 40 OFFCURVE",
"608 10 CURVE SMOOTH",
"611 -11 OFFCURVE",
"659 -25 OFFCURVE",
"672 -25 CURVE SMOOTH"
);
}
);
width = 693;
}
);
note = U;
unicode = 0055;
},
{
glyphname = V;
lastChange = "2021-08-31 12:20:37 +0000";
layers = (
{
layerId = "FC6CF40E-48D1-4025-95B5-EAE50260AD89";
paths = (
{
closed = 1;
nodes = (
"492 8 OFFCURVE",
"498 12 OFFCURVE",
"498 20 CURVE SMOOTH",
"498 30 OFFCURVE",
"496 40 OFFCURVE",
"496 51 CURVE SMOOTH",
"496 198 OFFCURVE",
"644 462 OFFCURVE",
"711 525 CURVE SMOOTH",
"740 552 OFFCURVE",
"766 588 OFFCURVE",
"766 603 CURVE SMOOTH",
"766 623 OFFCURVE",
"757 668 OFFCURVE",
"741 668 CURVE SMOOTH",
"735 668 OFFCURVE",
"729 663 OFFCURVE",
"722 651 CURVE SMOOTH",
"708 628 OFFCURVE",
"496 235 OFFCURVE",
"471 102 CURVE",
"481 205 OFFCURVE",
"487 398 OFFCURVE",
"487 538 CURVE SMOOTH",
"487 613 LINE SMOOTH",
"487 720 OFFCURVE",
"482 728 OFFCURVE",
"413 773 CURVE",
"386 770 OFFCURVE",
"317 715 OFFCURVE",
"258 657 CURVE SMOOTH",
"232 632 OFFCURVE",
"95 501 OFFCURVE",
"50 501 CURVE SMOOTH",
"39 501 OFFCURVE",
"34 508 OFFCURVE",
"34 519 CURVE SMOOTH",
"34 538 OFFCURVE",
"48 569 OFFCURVE",
"78 603 CURVE SMOOTH",
"86 612 OFFCURVE",
"90 618 OFFCURVE",
"90 620 CURVE SMOOTH",
"90 621 OFFCURVE",
"89 621 OFFCURVE",
"88 621 CURVE SMOOTH",
"87 621 OFFCURVE",
"84 620 OFFCURVE",
"81 618 CURVE SMOOTH",
"31 586 OFFCURVE",
"5 531 OFFCURVE",
"5 503 CURVE SMOOTH",
"5 459 OFFCURVE",
"28 428 OFFCURVE",
"58 428 CURVE SMOOTH",
"123 428 OFFCURVE",
"313 708 OFFCURVE",
"405 717 CURVE",
"427 650 OFFCURVE",
"432 522 OFFCURVE",
"432 395 CURVE SMOOTH",
"432 273 OFFCURVE",
"427 152 OFFCURVE",
"427 86 CURVE SMOOTH",
"427 71 OFFCURVE",
"427 59 OFFCURVE",
"428 50 CURVE SMOOTH",
"430 28 OFFCURVE",
"464 8 OFFCURVE",
"484 8 CURVE SMOOTH"
);
}
);
width = 639;
}
);
note = V;
unicode = 0056;
},
{
glyphname = W;
lastChange = "2021-08-31 12:20:37 +0000";
layers = (
{
anchors = (
{
name = bottom;
position = "{422, 0}";
},
{
name = top;
position = "{592, 750}";
}
);
layerId = "FC6CF40E-48D1-4025-95B5-EAE50260AD89";
paths = (
{
closed = 1;
nodes = (
"88 -75 OFFCURVE",
"103 -70 OFFCURVE",
"121 -57 CURVE SMOOTH",
"194 -4 OFFCURVE",
"417 251 OFFCURVE",
"503 356 CURVE",
"520 283 OFFCURVE",
"617 27 OFFCURVE",
"711 27 CURVE SMOOTH",
"776 27 OFFCURVE",
"823 143 OFFCURVE",
"823 212 CURVE SMOOTH",
"823 315 OFFCURVE",
"782 438 OFFCURVE",
"728 519 CURVE",
"799 519 OFFCURVE",
"962 543 OFFCURVE",
"995 557 CURVE SMOOTH",
"1004 560 OFFCURVE",
"1009 566 OFFCURVE",
"1009 570 CURVE SMOOTH",
"1009 573 OFFCURVE",
"1007 575 OFFCURVE",
"1003 575 CURVE SMOOTH",
"1000 575 OFFCURVE",
"997 574 OFFCURVE",
"994 573 CURVE SMOOTH",
"973 565 OFFCURVE",
"863 547 OFFCURVE",
"762 547 CURVE SMOOTH",
"748 547 OFFCURVE",
"733 547 OFFCURVE",
"719 548 CURVE",
"681 571 OFFCURVE",
"648 578 OFFCURVE",
"624 578 CURVE SMOOTH",
"598 578 OFFCURVE",
"583 572 OFFCURVE",
"583 559 CURVE SMOOTH",
"583 545 OFFCURVE",
"598 527 OFFCURVE",
"612 525 CURVE SMOOTH",
"666 517 LINE",
"708 433 OFFCURVE",
"775 292 OFFCURVE",
"775 139 CURVE SMOOTH",
"775 104 OFFCURVE",
"754 92 OFFCURVE",
"728 92 CURVE SMOOTH",
"697 92 OFFCURVE",
"660 109 OFFCURVE",
"645 125 CURVE SMOOTH",
"562 210 OFFCURVE",
"544 309 OFFCURVE",
"529 384 CURVE",
"551 410 OFFCURVE",
"562 431 OFFCURVE",
"562 444 CURVE SMOOTH",
"562 452 OFFCURVE",
"558 456 OFFCURVE",
"549 456 CURVE SMOOTH",
"502 456 OFFCURVE",
"487 421 OFFCURVE",
"487 411 CURVE SMOOTH",
"487 402 OFFCURVE",
"491 394 OFFCURVE",
"497 386 CURVE",
"428 300 OFFCURVE",
"237 81 OFFCURVE",
"207 56 CURVE SMOOTH",
"189 41 OFFCURVE",
"166 30 OFFCURVE",
"152 30 CURVE SMOOTH",
"142 30 OFFCURVE",
"135 35 OFFCURVE",
"135 47 CURVE SMOOTH",
"135 55 OFFCURVE",
"138 64 OFFCURVE",
"143 77 CURVE SMOOTH",
"200 226 OFFCURVE",
"269 307 OFFCURVE",
"344 442 CURVE SMOOTH",
"385 516 OFFCURVE",
"480 686 OFFCURVE",
"483 696 CURVE SMOOTH",
"484 700 OFFCURVE",
"485 705 OFFCURVE",
"485 709 CURVE SMOOTH",
"485 734 OFFCURVE",
"461 747 OFFCURVE",
"421 773 CURVE",
"394 770 OFFCURVE",
"325 715 OFFCURVE",
"266 657 CURVE SMOOTH",
"240 632 OFFCURVE",
"103 501 OFFCURVE",
"58 501 CURVE SMOOTH",
"47 501 OFFCURVE",
"42 508 OFFCURVE",
"42 519 CURVE SMOOTH",
"42 538 OFFCURVE",
"56 569 OFFCURVE",
"86 603 CURVE SMOOTH",
"94 612 OFFCURVE",
"98 618 OFFCURVE",
"98 620 CURVE SMOOTH",
"98 621 OFFCURVE",
"97 621 OFFCURVE",
"96 621 CURVE SMOOTH",
"95 621 OFFCURVE",
"92 620 OFFCURVE",
"89 618 CURVE SMOOTH",
"39 586 OFFCURVE",
"13 531 OFFCURVE",
"13 503 CURVE SMOOTH",
"13 459 OFFCURVE",
"36 428 OFFCURVE",
"66 428 CURVE SMOOTH",
"130 428 OFFCURVE",
"320 706 OFFCURVE",
"398 713 CURVE",
"399 711 OFFCURVE",
"399 708 OFFCURVE",
"399 705 CURVE SMOOTH",
"399 645 OFFCURVE",
"229 380 OFFCURVE",
"200 333 CURVE SMOOTH",
"164 275 OFFCURVE",
"75 123 OFFCURVE",
"58 53 CURVE SMOOTH",
"52 30 OFFCURVE",
"48 3 OFFCURVE",
"48 -21 CURVE SMOOTH",
"48 -51 OFFCURVE",
"55 -75 OFFCURVE",
"78 -75 CURVE SMOOTH"
);
}
);
width = 843;
}
);
note = W;
unicode = 0057;
},
{
glyphname = X;
lastChange = "2021-08-31 12:20:37 +0000";
layers = (
{
layerId = "FC6CF40E-48D1-4025-95B5-EAE50260AD89";
paths = (
{
closed = 1;
nodes = (
"504 -127 OFFCURVE",
"533 -87 OFFCURVE",
"538 -81 CURVE",
"539 -79 OFFCURVE",
"539 -77 OFFCURVE",
"539 -76 CURVE SMOOTH",
"539 -73 OFFCURVE",
"538 -71 OFFCURVE",
"534 -71 CURVE SMOOTH",
"523 -71 OFFCURVE",
"504 -101 OFFCURVE",
"458 -101 CURVE SMOOTH",
"385 -101 OFFCURVE",
"327 20 OFFCURVE",
"293 217 CURVE",
"292 219 OFFCURVE",
"292 221 OFFCURVE",
"292 223 CURVE",
"333 256 OFFCURVE",
"376 290 OFFCURVE",
"419 327 CURVE SMOOTH",
"520 412 OFFCURVE",
"554 483 OFFCURVE",
"554 535 CURVE SMOOTH",
"554 554 OFFCURVE",
"549 572 OFFCURVE",
"541 586 CURVE",
"591 586 LINE SMOOTH",
"642 586 OFFCURVE",
"688 591 OFFCURVE",
"702 602 CURVE SMOOTH",
"707 606 OFFCURVE",
"709 611 OFFCURVE",
"709 615 CURVE SMOOTH",
"709 620 OFFCURVE",
"707 624 OFFCURVE",
"703 624 CURVE SMOOTH",
"699 624 OFFCURVE",
"690 617 OFFCURVE",
"658 617 CURVE SMOOTH",
"592 617 OFFCURVE",
"465 633 OFFCURVE",
"424 647 CURVE",
"422 647 OFFCURVE",
"421 648 OFFCURVE",
"420 648 CURVE SMOOTH",
"416 648 OFFCURVE",
"414 644 OFFCURVE",
"414 638 CURVE SMOOTH",
"414 606 OFFCURVE",
"455 594 OFFCURVE",
"507 589 CURVE",
"519 577 OFFCURVE",
"527 563 OFFCURVE",
"527 545 CURVE SMOOTH",
"527 505 OFFCURVE",
"488 444 OFFCURVE",
"364 338 CURVE SMOOTH",
"285 269 LINE",
"267 397 OFFCURVE",
"263 525 OFFCURVE",
"256 673 CURVE SMOOTH",
"254 693 OFFCURVE",
"215 739 OFFCURVE",
"187 739 CURVE SMOOTH",
"154 739 OFFCURVE",
"149 586 OFFCURVE",
"147 553 CURVE SMOOTH",
"146 541 OFFCURVE",
"145 529 OFFCURVE",
"145 519 CURVE SMOOTH",
"145 506 OFFCURVE",
"146 498 OFFCURVE",
"148 498 CURVE SMOOTH",
"151 498 OFFCURVE",
"162 562 OFFCURVE",
"176 587 CURVE",
"189 468 OFFCURVE",
"211 326 OFFCURVE",
"232 224 CURVE",
"99 113 OFFCURVE",
"-46 0 OFFCURVE",
"-105 -26 CURVE SMOOTH",
"-109 -28 OFFCURVE",
"-111 -30 OFFCURVE",
"-111 -31 CURVE SMOOTH",
"-111 -36 OFFCURVE",
"-101 -39 OFFCURVE",
"-90 -39 CURVE SMOOTH",
"-65 -39 OFFCURVE",
"70 50 OFFCURVE",
"241 183 CURVE",
"244 170 LINE SMOOTH",
"263 92 OFFCURVE",
"326 -127 OFFCURVE",
"445 -127 CURVE SMOOTH"
);
}
);
width = 542;
}
);
note = X;
unicode = 0058;
},
{
glyphname = Y;
lastChange = "2021-08-31 12:20:37 +0000";
layers = (
{
anchors = (
{
name = bottom;
position = "{896, 309}";
},
{
name = top;
position = "{790, 750}";
},
{
name = topleft;
position = "{20, 750}";
}
);
layerId = "FC6CF40E-48D1-4025-95B5-EAE50260AD89";
paths = (
{
closed = 1;
nodes = (
"665 -251 OFFCURVE",
"746 -10 OFFCURVE",
"791 141 CURVE",
"827 137 OFFCURVE",
"862 132 OFFCURVE",
"896 126 CURVE SMOOTH",
"898 126 OFFCURVE",
"899 125 OFFCURVE",
"900 125 CURVE SMOOTH",
"904 125 OFFCURVE",
"906 127 OFFCURVE",
"906 129 CURVE SMOOTH",
"906 143 OFFCURVE",
"860 153 OFFCURVE",
"797 160 CURVE",
"835 292 OFFCURVE",
"867 473 OFFCURVE",
"867 579 CURVE SMOOTH",
"867 610 OFFCURVE",
"864 635 OFFCURVE",
"858 651 CURVE SMOOTH",
"853 663 OFFCURVE",
"817 709 OFFCURVE",
"803 709 CURVE SMOOTH",
"802 709 OFFCURVE",
"802 709 OFFCURVE",
"802 708 CURVE SMOOTH",
"805 653 LINE",
"763 531 OFFCURVE",
"650 310 OFFCURVE",
"600 260 CURVE",
"599 270 OFFCURVE",
"598 281 OFFCURVE",
"598 293 CURVE SMOOTH",
"598 352 OFFCURVE",
"611 433 OFFCURVE",
"643 526 CURVE SMOOTH",
"681 637 OFFCURVE",
"709 702 OFFCURVE",
"709 708 CURVE SMOOTH",
"709 734 OFFCURVE",
"684 747 OFFCURVE",
"644 773 CURVE",
"617 770 OFFCURVE",
"548 715 OFFCURVE",
"489 657 CURVE SMOOTH",
"463 632 OFFCURVE",
"326 501 OFFCURVE",
"281 501 CURVE SMOOTH",
"270 501 OFFCURVE",
"265 508 OFFCURVE",
"265 519 CURVE SMOOTH",
"265 538 OFFCURVE",
"279 569 OFFCURVE",
"309 603 CURVE SMOOTH",
"317 612 OFFCURVE",
"321 618 OFFCURVE",
"321 620 CURVE SMOOTH",
"321 621 OFFCURVE",
"320 621 OFFCURVE",
"319 621 CURVE SMOOTH",
"318 621 OFFCURVE",
"315 620 OFFCURVE",
"312 618 CURVE SMOOTH",
"262 586 OFFCURVE",
"236 531 OFFCURVE",
"236 503 CURVE SMOOTH",
"236 459 OFFCURVE",
"259 428 OFFCURVE",
"289 428 CURVE SMOOTH",
"356 428 OFFCURVE",
"548 717 OFFCURVE",
"631 717 CURVE",
"631 662 OFFCURVE",
"610 610 OFFCURVE",
"595 559 CURVE SMOOTH",
"565 458 OFFCURVE",
"540 333 OFFCURVE",
"541 281 CURVE SMOOTH",
"541 266 OFFCURVE",
"555 236 OFFCURVE",
"603 236 CURVE SMOOTH",
"613 236 OFFCURVE",
"622 239 OFFCURVE",
"625 248 CURVE SMOOTH",
"631 263 OFFCURVE",
"732 414 OFFCURVE",
"803 568 CURVE",
"797 438 OFFCURVE",
"772 295 OFFCURVE",
"734 167 CURVE",
"632 175 OFFCURVE",
"511 178 OFFCURVE",
"449 178 CURVE SMOOTH",
"147 178 OFFCURVE",
"6 160 OFFCURVE",
"6 85 CURVE SMOOTH",
"6 -60 OFFCURVE",
"336 -211 OFFCURVE",
"448 -243 CURVE SMOOTH",
"468 -249 OFFCURVE",
"486 -251 OFFCURVE",
"504 -251 CURVE SMOOTH"
);
},
{
closed = 1;
nodes = (
"319 -212 OFFCURVE",
"88 -42 OFFCURVE",
"88 59 CURVE SMOOTH",
"88 81 OFFCURVE",
"99 100 OFFCURVE",
"124 113 CURVE SMOOTH",
"173 138 OFFCURVE",
"344 156 OFFCURVE",
"528 156 CURVE SMOOTH",
"596 156 OFFCURVE",
"663 153 OFFCURVE",
"728 148 CURVE",
"706 75 OFFCURVE",
"679 8 OFFCURVE",
"649 -48 CURVE SMOOTH",
"593 -152 OFFCURVE",
"533 -212 OFFCURVE",
"456 -212 CURVE SMOOTH"
);
}
);
width = 870;
}
);
note = Y;
unicode = 0059;
},
{
glyphname = Z;
lastChange = "2021-08-31 12:20:37 +0000";
layers = (
{
anchors = (
{
name = bottom;
position = "{325, -44}";
},
{
name = center;
position = "{325, 375}";
},
{
name = top;
position = "{549, 682}";
}
);
layerId = "FC6CF40E-48D1-4025-95B5-EAE50260AD89";
paths = (
{
closed = 1;
nodes = (
"614 -140 OFFCURVE",
"625 -122 OFFCURVE",
"625 -95 CURVE SMOOTH",
"625 -19 OFFCURVE",
"532 132 OFFCURVE",
"486 169 CURVE SMOOTH",
"474 179 OFFCURVE",
"459 184 OFFCURVE",
"451 184 CURVE SMOOTH",
"447 184 OFFCURVE",
"444 183 OFFCURVE",
"444 180 CURVE SMOOTH",
"444 177 OFFCURVE",
"448 171 OFFCURVE",
"457 164 CURVE SMOOTH",
"514 117 OFFCURVE",
"570 28 OFFCURVE",
"570 -23 CURVE SMOOTH",
"570 -47 OFFCURVE",
"558 -60 OFFCURVE",
"528 -60 CURVE SMOOTH",
"428 -60 OFFCURVE",
"207 44 OFFCURVE",
"104 102 CURVE",
"237 268 OFFCURVE",
"551 553 OFFCURVE",
"695 610 CURVE SMOOTH",
"735 626 OFFCURVE",
"751 636 OFFCURVE",
"751 647 CURVE SMOOTH",
"751 660 OFFCURVE",
"724 685 OFFCURVE",
"713 685 CURVE SMOOTH",
"704 685 OFFCURVE",
"698 677 OFFCURVE",
"692 671 CURVE SMOOTH",
"680 660 OFFCURVE",
"618 576 OFFCURVE",
"549 576 CURVE SMOOTH",
"478 576 OFFCURVE",
"395 671 OFFCURVE",
"357 686 CURVE SMOOTH",
"349 689 OFFCURVE",
"341 690 OFFCURVE",
"331 690 CURVE SMOOTH",
"289 690 OFFCURVE",
"230 665 OFFCURVE",
"183 605 CURVE SMOOTH",
"123 528 OFFCURVE",
"122 499 OFFCURVE",
"122 485 CURVE SMOOTH",
"122 458 OFFCURVE",
"130 441 OFFCURVE",
"135 441 CURVE SMOOTH",
"139 441 OFFCURVE",
"142 447 OFFCURVE",
"142 460 CURVE SMOOTH",
"142 483 OFFCURVE",
"155 589 OFFCURVE",
"290 589 CURVE SMOOTH",
"380 589 OFFCURVE",
"395 546 OFFCURVE",
"519 546 CURVE SMOOTH",
"534 546 LINE",
"497 487 OFFCURVE",
"190 276 OFFCURVE",
"69 124 CURVE",
"68 124 OFFCURVE",
"67 125 OFFCURVE",
"66 126 CURVE SMOOTH",
"64 127 OFFCURVE",
"63 127 OFFCURVE",
"61 127 CURVE SMOOTH",
"41 127 OFFCURVE",
"8 75 OFFCURVE",
"7 59 CURVE SMOOTH",
"7 56 OFFCURVE",
"13 51 OFFCURVE",
"23 46 CURVE",
"18 32 OFFCURVE",
"16 18 OFFCURVE",
"16 6 CURVE SMOOTH",
"16 -14 OFFCURVE",
"23 -22 OFFCURVE",
"29 -22 CURVE SMOOTH",
"36 -22 OFFCURVE",
"42 -14 OFFCURVE",
"43 0 CURVE SMOOTH",
"44 8 OFFCURVE",
"48 18 OFFCURVE",
"55 31 CURVE",
"77 21 OFFCURVE",
"103 11 OFFCURVE",
"120 3 CURVE SMOOTH",
"124 1 OFFCURVE",
"126 0 OFFCURVE",
"129 0 CURVE SMOOTH",
"137 0 OFFCURVE",
"136 10 OFFCURVE",
"137 14 CURVE",
"269 -35 OFFCURVE",
"464 -102 OFFCURVE",
"537 -129 CURVE SMOOTH",
"556 -136 OFFCURVE",
"572 -140 OFFCURVE",
"585 -140 CURVE SMOOTH"
);
}
);
width = 649;
}
);
note = Z;
unicode = 005A;
},
{
glyphname = a;
lastChange = "2021-08-31 12:20:37 +0000";
layers = (
{
anchors = (
{
name = bottom;
position = "{136, 76}";
},
{
name = ogonek;
position = "{350, 62}";
},
{
name = top;
position = "{277, 389}";
}
);
layerId = "FC6CF40E-48D1-4025-95B5-EAE50260AD89";
paths = (
{
closed = 1;
nodes = (
"291 40 OFFCURVE",
"360 144 OFFCURVE",
"360 189 CURVE SMOOTH",
"360 194 OFFCURVE",
"359 197 OFFCURVE",
"357 197 CURVE SMOOTH",
"351 197 OFFCURVE",
"301 85 OFFCURVE",
"279 85 CURVE SMOOTH",
"276 85 OFFCURVE",
"276 90 OFFCURVE",
"276 96 CURVE SMOOTH",
"276 138 OFFCURVE",
"301 271 OFFCURVE",
"319 334 CURVE",
"323 337 OFFCURVE",
"325 341 OFFCURVE",
"325 344 CURVE SMOOTH",
"325 346 OFFCURVE",
"324 349 OFFCURVE",
"322 351 CURVE SMOOTH",
"302 374 OFFCURVE",
"280 383 OFFCURVE",
"256 383 CURVE SMOOTH",
"191 383 OFFCURVE",
"58 280 OFFCURVE",
"33 158 CURVE SMOOTH",
"32 154 OFFCURVE",
"31 149 OFFCURVE",
"31 145 CURVE SMOOTH",
"31 120 OFFCURVE",
"48 97 OFFCURVE",
"76 97 CURVE SMOOTH",
"133 97 OFFCURVE",
"209 209 OFFCURVE",
"258 285 CURVE",
"246 225 OFFCURVE",
"225 113 OFFCURVE",
"225 67 CURVE",
"231 54 OFFCURVE",
"252 40 OFFCURVE",
"267 40 CURVE SMOOTH"
);
},
{
closed = 1;
nodes = (
"77 134 OFFCURVE",
"73 137 OFFCURVE",
"73 144 CURVE SMOOTH",
"73 203 OFFCURVE",
"207 339 OFFCURVE",
"273 339 CURVE",
"250 286 OFFCURVE",
"132 134 OFFCURVE",
"84 134 CURVE SMOOTH"
);
}
);
width = 305;
}
);
note = a;
unicode = 0061;
},
{
glyphname = b;
lastChange = "2021-08-31 12:20:37 +0000";
layers = (
{
anchors = (
{
name = bottom;
position = "{168, 0}";
},
{
name = top;
position = "{135, 740}";
}
);
layerId = "FC6CF40E-48D1-4025-95B5-EAE50260AD89";
paths = (
{
closed = 1;
nodes = (
"214 66 OFFCURVE",
"340 242 OFFCURVE",
"340 308 CURVE SMOOTH",
"340 338 OFFCURVE",
"320 366 OFFCURVE",
"290 366 CURVE SMOOTH",
"225 366 OFFCURVE",
"114 207 OFFCURVE",
"81 147 CURVE",
"97 245 OFFCURVE",
"155 537 OFFCURVE",
"175 668 CURVE",
"172 707 OFFCURVE",
"140 739 OFFCURVE",
"121 739 CURVE SMOOTH",
"113 739 OFFCURVE",
"108 733 OFFCURVE",
"107 721 CURVE",
"67 613 OFFCURVE",
"82 269 OFFCURVE",
"35 103 CURVE SMOOTH",
"34 100 OFFCURVE",
"34 98 OFFCURVE",
"34 96 CURVE SMOOTH",
"34 75 OFFCURVE",
"64 56 OFFCURVE",
"86 53 CURVE"
);
},
{
closed = 1;
nodes = (
"97 142 OFFCURVE",
"226 330 OFFCURVE",
"273 330 CURVE SMOOTH",
"280 330 OFFCURVE",
"285 326 OFFCURVE",
"285 315 CURVE SMOOTH",
"285 215 OFFCURVE",
"159 104 OFFCURVE",
"73 88 CURVE"
);
}
);
width = 336;
}
);
note = b;
unicode = 0062;
},
{
glyphname = c;
lastChange = "2021-08-31 12:20:37 +0000";
layers = (
{
anchors = (
{
name = bottom;
position = "{169, -12}";
},
{
name = top;
position = "{337, 430}";
}
);
layerId = "FC6CF40E-48D1-4025-95B5-EAE50260AD89";
paths = (
{
closed = 1;
nodes = (
"292 -20 OFFCURVE",
"381 58 OFFCURVE",
"422 120 CURVE SMOOTH",
"427 127 OFFCURVE",
"431 141 OFFCURVE",
"431 148 CURVE SMOOTH",
"431 150 OFFCURVE",
"430 152 OFFCURVE",
"429 152 CURVE",
"429 152 OFFCURVE",
"427 151 OFFCURVE",
"426 149 CURVE SMOOTH",
"365 65 OFFCURVE",
"255 3 OFFCURVE",
"156 3 CURVE SMOOTH",
"117 3 OFFCURVE",
"82 14 OFFCURVE",
"82 73 CURVE SMOOTH",
"82 149 OFFCURVE",
"140 255 OFFCURVE",
"209 322 CURVE SMOOTH",
"277 387 OFFCURVE",
"329 408 OFFCURVE",
"357 408 CURVE SMOOTH",
"361 408 OFFCURVE",
"367 409 OFFCURVE",
"367 404 CURVE SMOOTH",
"367 389 OFFCURVE",
"337 342 OFFCURVE",
"337 306 CURVE SMOOTH",
"337 269 OFFCURVE",
"354 245 OFFCURVE",
"363 245 CURVE SMOOTH",
"368 245 OFFCURVE",
"372 250 OFFCURVE",
"373 256 CURVE",
"373 296 OFFCURVE",
"407 381 OFFCURVE",
"418 393 CURVE SMOOTH",
"419 394 OFFCURVE",
"420 396 OFFCURVE",
"420 398 CURVE SMOOTH",
"420 411 OFFCURVE",
"393 428 OFFCURVE",
"356 428 CURVE SMOOTH",
"201 428 OFFCURVE",
"20 246 OFFCURVE",
"20 87 CURVE SMOOTH",
"20 27 OFFCURVE",
"66 -20 OFFCURVE",
"143 -20 CURVE SMOOTH"
);
}
);
width = 418;
}
);
note = c;
unicode = 0063;
},
{
glyphname = d;
lastChange = "2021-08-31 12:20:37 +0000";
layers = (
{
anchors = (
{
name = bottom;
position = "{205, 0}";
},
{
name = center;
position = "{302, 499}";
},
{
name = top;
position = "{174, 440}";
},
{
name = topright;
position = "{450, 723}";
}
);
layerId = "FC6CF40E-48D1-4025-95B5-EAE50260AD89";
paths = (
{
closed = 1;
nodes = (
"470 -97 OFFCURVE",
"485 -61 OFFCURVE",
"489 -51 CURVE",
"489 -47 LINE SMOOTH",
"489 -43 OFFCURVE",
"488 -41 OFFCURVE",
"486 -41 CURVE SMOOTH",
"480 -41 OFFCURVE",
"471 -60 OFFCURVE",
"461 -60 CURVE SMOOTH",
"450 -60 OFFCURVE",
"437 -47 OFFCURVE",
"414 -6 CURVE SMOOTH",
"375 63 OFFCURVE",
"352 159 OFFCURVE",
"341 271 CURVE",
"358 267 OFFCURVE",
"375 257 OFFCURVE",
"391 243 CURVE",
"393 240 OFFCURVE",
"396 238 OFFCURVE",
"397 238 CURVE SMOOTH",
"399 238 OFFCURVE",
"400 239 OFFCURVE",
"400 242 CURVE SMOOTH",
"400 257 OFFCURVE",
"379 279 OFFCURVE",
"353 292 CURVE",
"339 297 LINE",
"339 300 LINE",
"385 415 OFFCURVE",
"426 518 OFFCURVE",
"426 615 CURVE SMOOTH",
"426 664 OFFCURVE",
"383 733 OFFCURVE",
"332 733 CURVE SMOOTH",
"324 733 OFFCURVE",
"318 730 OFFCURVE",
"314 723 CURVE SMOOTH",
"288 675 OFFCURVE",
"280 562 OFFCURVE",
"280 457 CURVE SMOOTH",
"280 405 OFFCURVE",
"281 354 OFFCURVE",
"284 305 CURVE",
"283 305 LINE SMOOTH",
"119 305 OFFCURVE",
"3 189 OFFCURVE",
"3 114 CURVE SMOOTH",
"3 101 OFFCURVE",
"5 38 OFFCURVE",
"83 38 CURVE SMOOTH",
"165 38 OFFCURVE",
"248 140 OFFCURVE",
"293 211 CURVE",
"306 106 OFFCURVE",
"330 12 OFFCURVE",
"373 -54 CURVE SMOOTH",
"391 -83 OFFCURVE",
"410 -97 OFFCURVE",
"435 -97 CURVE SMOOTH"
);
},
{
closed = 1;
nodes = (
"66 62 OFFCURVE",
"61 62 OFFCURVE",
"56 64 CURVE SMOOTH",
"43 71 OFFCURVE",
"37 81 OFFCURVE",
"37 92 CURVE SMOOTH",
"37 154 OFFCURVE",
"200 273 OFFCURVE",
"286 278 CURVE",
"290 236 LINE",
"243 161 OFFCURVE",
"139 62 OFFCURVE",
"72 62 CURVE SMOOTH"
);
},
{
closed = 1;
nodes = (
"334 373 OFFCURVE",
"333 412 OFFCURVE",
"333 452 CURVE SMOOTH",
"333 542 OFFCURVE",
"341 640 OFFCURVE",
"377 670 CURVE",
"393 665 OFFCURVE",
"400 632 OFFCURVE",
"400 593 CURVE SMOOTH",
"400 571 OFFCURVE",
"397 547 OFFCURVE",
"393 526 CURVE SMOOTH",
"379 459 OFFCURVE",
"364 408 OFFCURVE",
"336 336 CURVE"
);
}
);
width = 410;
}
);
note = d;
unicode = 0064;
},
{
glyphname = e;
lastChange = "2021-08-31 12:20:37 +0000";
layers = (
{
anchors = (
{
name = bottom;
position = "{128, 25}";
},
{
name = ogonek;
position = "{310, 80}";
},
{
name = top;
position = "{178, 437}";
}
);
layerId = "FC6CF40E-48D1-4025-95B5-EAE50260AD89";
paths = (
{
closed = 1;
nodes = (
"182 16 OFFCURVE",
"215 50 OFFCURVE",
"238 80 CURVE SMOOTH",
"254 101 OFFCURVE",
"271 131 OFFCURVE",
"287 163 CURVE SMOOTH",
"303 197 OFFCURVE",
"300 206 OFFCURVE",
"295 206 CURVE SMOOTH",
"292 206 OFFCURVE",
"287 203 OFFCURVE",
"286 200 CURVE SMOOTH",
"266 156 OFFCURVE",
"213 61 OFFCURVE",
"158 61 CURVE SMOOTH",
"126 61 OFFCURVE",
"114 107 OFFCURVE",
"114 161 CURVE SMOOTH",
"114 177 OFFCURVE",
"115 193 OFFCURVE",
"117 209 CURVE",
"183 239 OFFCURVE",
"256 290 OFFCURVE",
"256 341 CURVE SMOOTH",
"256 367 OFFCURVE",
"206 388 OFFCURVE",
"160 402 CURVE",
"152 414 OFFCURVE",
"130 440 OFFCURVE",
"115 440 CURVE SMOOTH",
"109 440 OFFCURVE",
"103 436 OFFCURVE",
"100 426 CURVE SMOOTH",
"95 410 OFFCURVE",
"72 328 OFFCURVE",
"62 247 CURVE SMOOTH",
"59 226 OFFCURVE",
"56 196 OFFCURVE",
"56 164 CURVE SMOOTH",
"56 93 OFFCURVE",
"71 16 OFFCURVE",
"140 16 CURVE SMOOTH"
);
},
{
closed = 1;
nodes = (
"128 291 OFFCURVE",
"139 339 OFFCURVE",
"155 382 CURVE",
"184 371 OFFCURVE",
"210 355 OFFCURVE",
"210 340 CURVE SMOOTH",
"210 298 OFFCURVE",
"167 262 OFFCURVE",
"120 237 CURVE"
);
}
);
width = 238;
}
);
note = e;
unicode = 0065;
},
{
glyphname = f;
lastChange = "2021-08-31 12:20:37 +0000";
layers = (
{
anchors = (
{
name = bottom;
position = "{154, 0}";
},
{
name = top;
position = "{218, 655}";
}
);
layerId = "FC6CF40E-48D1-4025-95B5-EAE50260AD89";
paths = (
{
closed = 1;
nodes = (
"278 -425 OFFCURVE",
"386 -217 OFFCURVE",
"386 -107 CURVE SMOOTH",
"386 52 OFFCURVE",
"282 162 OFFCURVE",
"118 203 CURVE",
"120 212 OFFCURVE",
"122 222 OFFCURVE",
"125 231 CURVE",
"226 273 OFFCURVE",
"337 306 OFFCURVE",
"406 316 CURVE SMOOTH",
"412 317 OFFCURVE",
"419 322 OFFCURVE",
"419 325 CURVE SMOOTH",
"419 329 OFFCURVE",
"411 329 OFFCURVE",
"403 329 CURVE SMOOTH",
"348 329 OFFCURVE",
"227 297 OFFCURVE",
"134 266 CURVE",
"157 348 OFFCURVE",
"187 418 OFFCURVE",
"213 503 CURVE SMOOTH",
"229 555 OFFCURVE",
"232 580 OFFCURVE",
"232 595 CURVE SMOOTH",
"232 605 OFFCURVE",
"231 610 OFFCURVE",
"229 616 CURVE SMOOTH",
"226 627 OFFCURVE",
"201 659 OFFCURVE",
"186 659 CURVE SMOOTH",
"183 659 OFFCURVE",
"181 658 OFFCURVE",
"179 655 CURVE SMOOTH",
"171 641 OFFCURVE",
"112 410 OFFCURVE",
"73 245 CURVE",
"37 230 LINE SMOOTH",
"11 219 OFFCURVE",
"-11 186 OFFCURVE",
"-11 174 CURVE SMOOTH",
"-11 171 OFFCURVE",
"-10 169 OFFCURVE",
"-7 169 CURVE SMOOTH",
"-5 169 OFFCURVE",
"-3 170 OFFCURVE",
"0 171 CURVE",
"37 191 LINE",
"39 191 LINE SMOOTH",
"46 191 OFFCURVE",
"54 190 OFFCURVE",
"61 190 CURVE",
"52 152 OFFCURVE",
"46 119 OFFCURVE",
"43 100 CURVE SMOOTH",
"36 56 OFFCURVE",
"24 -39 OFFCURVE",
"24 -136 CURVE SMOOTH",
"24 -281 OFFCURVE",
"49 -425 OFFCURVE",
"156 -425 CURVE SMOOTH"
);
},
{
closed = 1;
nodes = (
"117 -395 OFFCURVE",
"86 -274 OFFCURVE",
"86 -124 CURVE SMOOTH",
"86 -37 OFFCURVE",
"94 57 OFFCURVE",
"106 134 CURVE SMOOTH",
"108 151 OFFCURVE",
"111 167 OFFCURVE",
"114 183 CURVE",
"264 153 OFFCURVE",
"338 49 OFFCURVE",
"338 -91 CURVE SMOOTH",
"338 -124 OFFCURVE",
"334 -158 OFFCURVE",
"326 -195 CURVE SMOOTH",
"312 -259 OFFCURVE",
"255 -395 OFFCURVE",
"187 -395 CURVE SMOOTH"
);
}
);
width = 308;
}
);
note = f;
unicode = 0066;
},
{
glyphname = g;
lastChange = "2021-08-31 12:20:37 +0000";
layers = (
{
anchors = (
{
name = bottom;
position = "{173, -410}";
},
{
name = top;
position = "{253, 399}";
}
);
layerId = "FC6CF40E-48D1-4025-95B5-EAE50260AD89";
paths = (
{
closed = 1;
nodes = (
"141 -417 OFFCURVE",
"158 -407 OFFCURVE",
"174 -377 CURVE SMOOTH",
"190 -345 OFFCURVE",
"253 -164 OFFCURVE",
"288 21 CURVE",
"309 40 OFFCURVE",
"329 60 OFFCURVE",
"346 82 CURVE SMOOTH",
"371 114 OFFCURVE",
"404 172 OFFCURVE",
"404 195 CURVE SMOOTH",
"404 200 OFFCURVE",
"403 202 OFFCURVE",
"400 202 CURVE SMOOTH",
"397 202 OFFCURVE",
"393 198 OFFCURVE",
"389 190 CURVE SMOOTH",
"360 129 OFFCURVE",
"328 87 OFFCURVE",
"293 52 CURVE",
"304 116 OFFCURVE",
"311 180 OFFCURVE",
"311 237 CURVE SMOOTH",
"311 271 OFFCURVE",
"308 305 OFFCURVE",
"298 325 CURVE",
"312 331 OFFCURVE",
"317 336 OFFCURVE",
"317 342 CURVE SMOOTH",
"317 344 OFFCURVE",
"316 347 OFFCURVE",
"314 349 CURVE SMOOTH",
"294 372 OFFCURVE",
"272 381 OFFCURVE",
"248 381 CURVE SMOOTH",
"183 381 OFFCURVE",
"50 278 OFFCURVE",
"25 156 CURVE SMOOTH",
"24 152 OFFCURVE",
"23 147 OFFCURVE",
"23 143 CURVE SMOOTH",
"23 118 OFFCURVE",
"40 95 OFFCURVE",
"68 95 CURVE SMOOTH",
"134 95 OFFCURVE",
"225 244 OFFCURVE",
"270 315 CURVE",
"278 317 LINE",
"279 302 OFFCURVE",
"281 285 OFFCURVE",
"281 264 CURVE SMOOTH",
"281 231 OFFCURVE",
"279 188 OFFCURVE",
"273 129 CURVE SMOOTH",
"269 93 OFFCURVE",
"262 54 OFFCURVE",
"252 14 CURVE",
"201 -29 OFFCURVE",
"146 -68 OFFCURVE",
"90 -136 CURVE SMOOTH",
"51 -183 OFFCURVE",
"31 -238 OFFCURVE",
"31 -290 CURVE SMOOTH",
"31 -336 OFFCURVE",
"43 -376 OFFCURVE",
"70 -404 CURVE",
"76 -412 OFFCURVE",
"85 -416 OFFCURVE",
"90 -416 CURVE SMOOTH",
"91 -416 OFFCURVE",
"92 -415 OFFCURVE",
"92 -415 CURVE",
"92 -414 OFFCURVE",
"91 -413 OFFCURVE",
"89 -411 CURVE SMOOTH",
"73 -392 OFFCURVE",
"65 -361 OFFCURVE",
"65 -324 CURVE SMOOTH",
"65 -260 OFFCURVE",
"89 -177 OFFCURVE",
"133 -122 CURVE SMOOTH",
"168 -77 OFFCURVE",
"207 -44 OFFCURVE",
"245 -14 CURVE",
"210 -143 OFFCURVE",
"151 -285 OFFCURVE",
"100 -396 CURVE",
"105 -408 OFFCURVE",
"115 -417 OFFCURVE",
"127 -417 CURVE SMOOTH"
);
},
{
closed = 1;
nodes = (
"75 136 OFFCURVE",
"71 139 OFFCURVE",
"71 145 CURVE SMOOTH",
"71 148 OFFCURVE",
"72 151 OFFCURVE",
"74 156 CURVE SMOOTH",
"86 196 OFFCURVE",
"195 337 OFFCURVE",
"265 337 CURVE",
"244 288 OFFCURVE",
"128 136 OFFCURVE",
"81 136 CURVE SMOOTH"
);
}
);
width = 346;
}
);
note = g;
unicode = 0067;
},
{
glyphname = h;
lastChange = "2021-08-31 12:20:37 +0000";
layers = (
{
anchors = (
{
name = bottom;
position = "{146, 0}";
},
{
name = center;
position = "{105, 382}";
},
{
name = top;
position = "{219, 740}";
}
);
layerId = "FC6CF40E-48D1-4025-95B5-EAE50260AD89";
paths = (
{
closed = 1;
nodes = (
"105 -42 OFFCURVE",
"106 -41 OFFCURVE",
"106 -40 CURVE SMOOTH",
"106 65 OFFCURVE",
"152 220 OFFCURVE",
"160 239 CURVE SMOOTH",
"165 251 OFFCURVE",
"168 260 OFFCURVE",
"172 260 CURVE SMOOTH",
"174 260 OFFCURVE",
"176 258 OFFCURVE",
"177 254 CURVE SMOOTH",
"192 195 OFFCURVE",
"189 121 OFFCURVE",
"219 70 CURVE SMOOTH",
"226 57 OFFCURVE",
"238 51 OFFCURVE",
"251 51 CURVE SMOOTH",
"287 51 OFFCURVE",
"315 102 OFFCURVE",
"358 203 CURVE SMOOTH",
"360 209 OFFCURVE",
"361 213 OFFCURVE",
"361 216 CURVE SMOOTH",
"361 220 OFFCURVE",
"360 221 OFFCURVE",
"358 221 CURVE SMOOTH",
"341 221 OFFCURVE",
"302 111 OFFCURVE",
"277 111 CURVE SMOOTH",
"267 112 OFFCURVE",
"244 112 OFFCURVE",
"240 184 CURVE SMOOTH",
"236 238 OFFCURVE",
"232 345 OFFCURVE",
"216 345 CURVE SMOOTH",
"196 345 OFFCURVE",
"171 333 OFFCURVE",
"158 301 CURVE SMOOTH",
"142 263 OFFCURVE",
"104 121 OFFCURVE",
"90 39 CURVE",
"87 63 OFFCURVE",
"85 89 OFFCURVE",
"85 119 CURVE SMOOTH",
"85 173 OFFCURVE",
"89 228 OFFCURVE",
"95 282 CURVE",
"159 373 OFFCURVE",
"257 531 OFFCURVE",
"257 636 CURVE SMOOTH",
"257 662 OFFCURVE",
"244 722 OFFCURVE",
"213 722 CURVE SMOOTH",
"207 722 OFFCURVE",
"199 718 OFFCURVE",
"196 714 CURVE",
"196 716 LINE SMOOTH",
"196 731 OFFCURVE",
"170 753 OFFCURVE",
"149 753 CURVE SMOOTH",
"135 753 OFFCURVE",
"132 735 OFFCURVE",
"123 712 CURVE SMOOTH",
"107 672 OFFCURVE",
"52 398 OFFCURVE",
"52 173 CURVE SMOOTH",
"52 85 OFFCURVE",
"59 -42 OFFCURVE",
"104 -42 CURVE SMOOTH"
);
},
{
closed = 1;
nodes = (
"120 463 OFFCURVE",
"158 601 OFFCURVE",
"194 708 CURVE",
"197 706 OFFCURVE",
"199 705 OFFCURVE",
"201 703 CURVE SMOOTH",
"222 685 OFFCURVE",
"229 660 OFFCURVE",
"229 630 CURVE SMOOTH",
"229 542 OFFCURVE",
"159 415 OFFCURVE",
"100 318 CURVE"
);
}
);
width = 291;
}
);
note = h;
unicode = 0068;
},
{
glyphname = i;
lastChange = "2021-08-31 12:20:37 +0000";
layers = (
{
anchors = (
{
name = bottom;
position = "{74, 39}";
}
);
layerId = "FC6CF40E-48D1-4025-95B5-EAE50260AD89";
paths = (
{
closed = 1;
nodes = (
"137 25 OFFCURVE",
"191 148 OFFCURVE",
"208 191 CURVE SMOOTH",
"211 200 OFFCURVE",
"213 206 OFFCURVE",
"213 211 CURVE SMOOTH",
"213 215 OFFCURVE",
"211 217 OFFCURVE",
"209 217 CURVE SMOOTH",
"197 217 OFFCURVE",
"192 180 OFFCURVE",
"147 112 CURVE SMOOTH",
"140 102 OFFCURVE",
"108 63 OFFCURVE",
"91 63 CURVE SMOOTH",
"85 63 OFFCURVE",
"80 69 OFFCURVE",
"80 87 CURVE SMOOTH",
"80 134 OFFCURVE",
"114 219 OFFCURVE",
"128 246 CURVE",
"122 255 OFFCURVE",
"107 285 OFFCURVE",
"88 285 CURVE SMOOTH",
"65 285 OFFCURVE",
"52 226 OFFCURVE",
"40 136 CURVE SMOOTH",
"36 111 OFFCURVE",
"35 91 OFFCURVE",
"35 74 CURVE SMOOTH",
"35 41 OFFCURVE",
"43 25 OFFCURVE",
"68 25 CURVE SMOOTH"
);
},
{
closed = 1;
nodes = (
"145 327 OFFCURVE",
"142 367 OFFCURVE",
"165 384 CURVE SMOOTH",
"171 388 OFFCURVE",
"174 391 OFFCURVE",
"174 394 CURVE SMOOTH",
"174 397 OFFCURVE",
"171 399 OFFCURVE",
"165 399 CURVE SMOOTH",
"132 399 OFFCURVE",
"93 361 OFFCURVE",
"93 343 CURVE SMOOTH",
"93 339 OFFCURVE",
"94 337 OFFCURVE",
"97 335 CURVE SMOOTH",
"105 331 OFFCURVE",
"114 327 OFFCURVE",
"122 327 CURVE SMOOTH"
);
}
);
width = 147;
}
);
note = i;
unicode = 0069;
},
{
glyphname = j;
lastChange = "2021-08-31 12:20:37 +0000";
layers = (
{
layerId = "FC6CF40E-48D1-4025-95B5-EAE50260AD89";
paths = (
{
closed = 1;
nodes = (
"-40 -417 OFFCURVE",
"-23 -407 OFFCURVE",
"-7 -377 CURVE SMOOTH",
"10 -344 OFFCURVE",
"78 -158 OFFCURVE",
"114 28 CURVE",
"133 45 OFFCURVE",
"150 62 OFFCURVE",
"165 82 CURVE SMOOTH",
"190 114 OFFCURVE",
"223 172 OFFCURVE",
"223 195 CURVE SMOOTH",
"223 200 OFFCURVE",
"222 202 OFFCURVE",
"219 202 CURVE SMOOTH",
"216 202 OFFCURVE",
"212 198 OFFCURVE",
"208 190 CURVE SMOOTH",
"181 134 OFFCURVE",
"151 93 OFFCURVE",
"120 60 CURVE",
"130 121 OFFCURVE",
"137 180 OFFCURVE",
"137 234 CURVE SMOOTH",
"137 257 OFFCURVE",
"136 278 OFFCURVE",
"134 298 CURVE SMOOTH",
"131 323 OFFCURVE",
"102 341 OFFCURVE",
"95 341 CURVE SMOOTH",
"94 341 OFFCURVE",
"94 341 OFFCURVE",
"94 340 CURVE SMOOTH",
"97 320 OFFCURVE",
"100 297 OFFCURVE",
"100 264 CURVE SMOOTH",
"100 231 OFFCURVE",
"98 188 OFFCURVE",
"92 129 CURVE SMOOTH",
"88 93 OFFCURVE",
"81 54 OFFCURVE",
"71 14 CURVE",
"20 -29 OFFCURVE",
"-35 -68 OFFCURVE",
"-91 -136 CURVE SMOOTH",
"-130 -183 OFFCURVE",
"-150 -238 OFFCURVE",
"-150 -290 CURVE SMOOTH",
"-150 -336 OFFCURVE",
"-138 -376 OFFCURVE",
"-111 -404 CURVE",
"-105 -412 OFFCURVE",
"-96 -416 OFFCURVE",
"-91 -416 CURVE SMOOTH",
"-90 -416 OFFCURVE",
"-89 -415 OFFCURVE",
"-89 -415 CURVE",
"-89 -414 OFFCURVE",
"-90 -413 OFFCURVE",
"-92 -411 CURVE SMOOTH",
"-108 -392 OFFCURVE",
"-116 -361 OFFCURVE",
"-116 -324 CURVE SMOOTH",
"-116 -260 OFFCURVE",
"-92 -177 OFFCURVE",
"-48 -122 CURVE SMOOTH",
"-13 -77 OFFCURVE",
"26 -44 OFFCURVE",
"64 -14 CURVE",
"29 -143 OFFCURVE",
"-30 -285 OFFCURVE",
"-81 -396 CURVE",
"-76 -408 OFFCURVE",
"-66 -417 OFFCURVE",
"-54 -417 CURVE SMOOTH"
);
},
{
closed = 1;
nodes = (
"123 394 OFFCURVE",
"108 435 OFFCURVE",
"130 457 CURVE SMOOTH",
"135 461 OFFCURVE",
"137 465 OFFCURVE",
"137 467 CURVE SMOOTH",
"137 470 OFFCURVE",
"134 472 OFFCURVE",
"130 472 CURVE SMOOTH",
"103 472 OFFCURVE",
"65 428 OFFCURVE",
"65 408 CURVE SMOOTH",
"65 403 OFFCURVE",
"67 400 OFFCURVE",
"71 398 CURVE SMOOTH",
"78 395 OFFCURVE",
"85 394 OFFCURVE",
"92 394 CURVE SMOOTH"
);
}
);
width = 165;
}
);
note = j;
unicode = 006A;
},
{
glyphname = k;
lastChange = "2021-08-31 12:20:37 +0000";
layers = (
{
anchors = (
{
name = bottom;
position = "{233, 0}";
},
{
name = top;
position = "{143, 740}";
}
);
layerId = "FC6CF40E-48D1-4025-95B5-EAE50260AD89";
paths = (
{
closed = 1;
nodes = (
"125 -42 OFFCURVE",
"126 -41 OFFCURVE",
"126 -40 CURVE",
"115 0 OFFCURVE",
"105 52 OFFCURVE",
"105 119 CURVE SMOOTH",
"105 142 LINE",
"107 141 OFFCURVE",
"109 142 OFFCURVE",
"111 142 CURVE SMOOTH",
"114 142 LINE",
"154 120 OFFCURVE",
"192 96 OFFCURVE",
"208 86 CURVE SMOOTH",
"261 52 OFFCURVE",
"312 16 OFFCURVE",
"337 -2 CURVE",
"337 -3 OFFCURVE",
"338 -3 OFFCURVE",
"339 -3 CURVE SMOOTH",
"341 -3 OFFCURVE",
"343 0 OFFCURVE",
"343 4 CURVE SMOOTH",
"343 8 OFFCURVE",
"341 12 OFFCURVE",
"337 16 CURVE SMOOTH",
"283 69 OFFCURVE",
"221 125 OFFCURVE",
"154 170 CURVE",
"221 226 OFFCURVE",
"299 314 OFFCURVE",
"335 378 CURVE SMOOTH",
"336 380 OFFCURVE",
"336 381 OFFCURVE",
"336 382 CURVE SMOOTH",
"336 385 OFFCURVE",
"335 386 OFFCURVE",
"333 386 CURVE SMOOTH",
"331 386 OFFCURVE",
"330 385 OFFCURVE",
"329 384 CURVE SMOOTH",
"278 322 OFFCURVE",
"191 243 OFFCURVE",
"118 193 CURVE",
"107 199 LINE",
"109 227 OFFCURVE",
"112 255 OFFCURVE",
"115 283 CURVE",
"179 374 OFFCURVE",
"277 531 OFFCURVE",
"277 636 CURVE SMOOTH",
"277 662 OFFCURVE",
"264 722 OFFCURVE",
"233 722 CURVE SMOOTH",
"227 722 OFFCURVE",
"219 718 OFFCURVE",
"216 714 CURVE",
"216 716 LINE SMOOTH",
"216 731 OFFCURVE",
"190 753 OFFCURVE",
"169 753 CURVE SMOOTH",
"155 753 OFFCURVE",
"152 735 OFFCURVE",
"143 712 CURVE SMOOTH",
"128 674 OFFCURVE",
"79 431 OFFCURVE",
"73 216 CURVE",
"72 216 OFFCURVE",
"71 216 OFFCURVE",
"71 217 CURVE",
"68 218 OFFCURVE",
"65 219 OFFCURVE",
"62 219 CURVE SMOOTH",
"45 219 OFFCURVE",
"26 200 OFFCURVE",
"26 188 CURVE SMOOTH",
"26 184 OFFCURVE",
"28 182 OFFCURVE",
"32 180 CURVE SMOOTH",
"44 176 OFFCURVE",
"57 170 OFFCURVE",
"72 163 CURVE",
"72 162 LINE SMOOTH",
"72 75 OFFCURVE",
"81 -42 OFFCURVE",
"124 -42 CURVE SMOOTH"
);
},
{
closed = 1;
nodes = (
"140 462 OFFCURVE",
"178 601 OFFCURVE",
"214 708 CURVE",
"215 707 OFFCURVE",
"215 707 OFFCURVE",
"216 707 CURVE",
"240 689 OFFCURVE",
"250 662 OFFCURVE",
"250 630 CURVE SMOOTH",
"250 542 OFFCURVE",
"180 415 OFFCURVE",
"120 318 CURVE"
);
}
);
width = 285;
}
);
note = k;
unicode = 006B;
},
{
glyphname = l;
lastChange = "2021-08-31 12:20:37 +0000";
layers = (
{
anchors = (
{
name = bottom;
position = "{179, -37}";
},
{
name = center;
position = "{100, 370}";
},
{
name = top;
position = "{232, 731}";
},
{
name = topright;
position = "{284, 740}";
}
);
layerId = "FC6CF40E-48D1-4025-95B5-EAE50260AD89";
paths = (
{
closed = 1;
nodes = (
"214 -37 OFFCURVE",
"237 -15 OFFCURVE",
"243 -8 CURVE SMOOTH",
"247 -3 OFFCURVE",
"246 0 OFFCURVE",
"241 0 CURVE SMOOTH",
"238 0 OFFCURVE",
"233 -1 OFFCURVE",
"227 -5 CURVE",
"218 -9 OFFCURVE",
"201 -18 OFFCURVE",
"183 -18 CURVE SMOOTH",
"165 -18 OFFCURVE",
"145 -9 OFFCURVE",
"129 20 CURVE SMOOTH",
"110 54 OFFCURVE",
"102 102 OFFCURVE",
"102 157 CURVE SMOOTH",
"102 191 OFFCURVE",
"105 228 OFFCURVE",
"111 267 CURVE",
"190 372 OFFCURVE",
"256 521 OFFCURVE",
"256 624 CURVE SMOOTH",
"256 660 OFFCURVE",
"247 690 OFFCURVE",
"229 711 CURVE SMOOTH",
"221 722 OFFCURVE",
"205 731 OFFCURVE",
"192 735 CURVE SMOOTH",
"175 740 OFFCURVE",
"169 721 OFFCURVE",
"159 696 CURVE SMOOTH",
"116 570 OFFCURVE",
"75 409 OFFCURVE",
"59 296 CURVE SMOOTH",
"54 260 OFFCURVE",
"51 222 OFFCURVE",
"51 185 CURVE SMOOTH",
"51 82 OFFCURVE",
"76 -12 OFFCURVE",
"153 -33 CURVE SMOOTH",
"162 -36 OFFCURVE",
"171 -37 OFFCURVE",
"179 -37 CURVE SMOOTH"
);
},
{
closed = 1;
nodes = (
"139 429 OFFCURVE",
"179 561 OFFCURVE",
"225 675 CURVE",
"233 660 OFFCURVE",
"236 641 OFFCURVE",
"236 620 CURVE SMOOTH",
"236 535 OFFCURVE",
"181 410 OFFCURVE",
"118 310 CURVE"
);
}
);
width = 199;
}
);
note = l;
unicode = 006C;
},
{
glyphname = m;
lastChange = "2021-08-31 12:20:37 +0000";
layers = (
{
anchors = (
{
name = bottom;
position = "{186, 0}";
},
{
name = top;
position = "{202, 400}";
}
);
layerId = "FC6CF40E-48D1-4025-95B5-EAE50260AD89";
paths = (
{
closed = 1;
nodes = (
"105 -75 OFFCURVE",
"106 -74 OFFCURVE",
"106 -71 CURVE SMOOTH",
"106 -70 OFFCURVE",
"106 -68 OFFCURVE",
"105 -66 CURVE SMOOTH",
"96 -46 OFFCURVE",
"92 -8 OFFCURVE",
"92 34 CURVE SMOOTH",
"92 135 OFFCURVE",
"121 226 OFFCURVE",
"142 287 CURVE",
"141 276 OFFCURVE",
"141 263 OFFCURVE",
"141 249 CURVE SMOOTH",
"141 158 OFFCURVE",
"159 19 OFFCURVE",
"179 19 CURVE SMOOTH",
"200 19 OFFCURVE",
"216 19 OFFCURVE",
"216 35 CURVE SMOOTH",
"216 50 OFFCURVE",
"249 220 OFFCURVE",
"260 220 CURVE SMOOTH",
"271 220 OFFCURVE",
"275 94 OFFCURVE",
"301 69 CURVE SMOOTH",
"309 61 OFFCURVE",
"325 55 OFFCURVE",
"339 55 CURVE SMOOTH",
"376 55 OFFCURVE",
"409 135 OFFCURVE",
"438 203 CURVE SMOOTH",
"440 209 OFFCURVE",
"441 213 OFFCURVE",
"441 216 CURVE SMOOTH",
"441 220 OFFCURVE",
"440 221 OFFCURVE",
"438 221 CURVE SMOOTH",
"422 221 OFFCURVE",
"376 91 OFFCURVE",
"342 91 CURVE SMOOTH",
"306 91 OFFCURVE",
"343 293 OFFCURVE",
"286 293 CURVE SMOOTH",
"270 293 OFFCURVE",
"263 285 OFFCURVE",
"253 253 CURVE SMOOTH",
"242 219 OFFCURVE",
"203 94 OFFCURVE",
"202 83 CURVE",
"193 103 OFFCURVE",
"190 136 OFFCURVE",
"190 174 CURVE SMOOTH",
"190 232 OFFCURVE",
"198 300 OFFCURVE",
"208 349 CURVE",
"208 351 LINE SMOOTH",
"208 371 OFFCURVE",
"173 379 OFFCURVE",
"170 381 CURVE",
"160 380 OFFCURVE",
"148 366 OFFCURVE",
"127 298 CURVE SMOOTH",
"100 216 OFFCURVE",
"90 181 OFFCURVE",
"89 177 CURVE",
"91 262 OFFCURVE",
"94 309 OFFCURVE",
"110 387 CURVE SMOOTH",
"111 391 OFFCURVE",
"111 395 OFFCURVE",
"111 399 CURVE SMOOTH",
"111 409 OFFCURVE",
"103 429 OFFCURVE",
"64 429 CURVE SMOOTH",
"25 429 OFFCURVE",
"4 415 OFFCURVE",
"4 412 CURVE SMOOTH",
"4 411 OFFCURVE",
"38 407 OFFCURVE",
"42 404 CURVE",
"44 385 OFFCURVE",
"44 360 OFFCURVE",
"44 331 CURVE SMOOTH",
"44 271 OFFCURVE",
"42 196 OFFCURVE",
"42 128 CURVE SMOOTH",
"42 64 OFFCURVE",
"44 6 OFFCURVE",
"53 -27 CURVE SMOOTH",
"60 -52 OFFCURVE",
"91 -75 OFFCURVE",
"102 -75 CURVE SMOOTH"
);
}
);
width = 371;
}
);
note = m;
unicode = 006D;
},
{
glyphname = n;
lastChange = "2021-08-31 12:20:37 +0000";
layers = (
{
anchors = (
{
name = bottom;
position = "{242, 0}";
},
{
name = top;
position = "{194, 407}";
}
);
layerId = "FC6CF40E-48D1-4025-95B5-EAE50260AD89";
paths = (
{
closed = 1;
nodes = (
"103 -62 OFFCURVE",
"106 -60 OFFCURVE",
"106 -55 CURVE SMOOTH",
"106 -51 OFFCURVE",
"103 -45 OFFCURVE",
"103 -28 CURVE SMOOTH",
"103 24 OFFCURVE",
"117 153 OFFCURVE",
"151 278 CURVE SMOOTH",
"154 291 OFFCURVE",
"161 296 OFFCURVE",
"164 296 CURVE SMOOTH",
"172 296 OFFCURVE",
"210 141 OFFCURVE",
"250 106 CURVE SMOOTH",
"266 92 OFFCURVE",
"282 86 OFFCURVE",
"296 86 CURVE SMOOTH",
"336 86 OFFCURVE",
"352 128 OFFCURVE",
"385 203 CURVE SMOOTH",
"387 209 OFFCURVE",
"388 213 OFFCURVE",
"388 216 CURVE SMOOTH",
"388 220 OFFCURVE",
"387 221 OFFCURVE",
"385 221 CURVE SMOOTH",
"370 221 OFFCURVE",
"331 111 OFFCURVE",
"297 111 CURVE SMOOTH",
"282 111 OFFCURVE",
"258 144 OFFCURVE",
"242 220 CURVE SMOOTH",
"220 321 OFFCURVE",
"243 407 OFFCURVE",
"194 407 CURVE SMOOTH",
"167 407 OFFCURVE",
"156 379 OFFCURVE",
"133 275 CURVE SMOOTH",
"113 195 OFFCURVE",
"90 133 OFFCURVE",
"82 58 CURVE",
"82 67 LINE SMOOTH",
"82 81 OFFCURVE",
"81 100 OFFCURVE",
"81 126 CURVE SMOOTH",
"81 231 OFFCURVE",
"97 330 OFFCURVE",
"112 401 CURVE SMOOTH",
"113 404 OFFCURVE",
"113 408 OFFCURVE",
"113 411 CURVE SMOOTH",
"113 423 OFFCURVE",
"104 445 OFFCURVE",
"64 445 CURVE SMOOTH",
"25 445 OFFCURVE",
"4 431 OFFCURVE",
"4 428 CURVE SMOOTH",
"4 427 OFFCURVE",
"38 423 OFFCURVE",
"42 420 CURVE",
"43 404 OFFCURVE",
"44 382 OFFCURVE",
"44 358 CURVE SMOOTH",
"44 285 OFFCURVE",
"39 185 OFFCURVE",
"39 105 CURVE SMOOTH",
"39 57 OFFCURVE",
"41 16 OFFCURVE",
"47 -6 CURVE SMOOTH",
"56 -40 OFFCURVE",
"85 -62 OFFCURVE",
"99 -62 CURVE SMOOTH"
);
}
);
width = 315;
}
);
note = n;
unicode = 006E;
},
{
glyphname = o;
lastChange = "2021-09-01 00:51:38 +0000";
layers = (
{
anchors = (
{
name = bottom;
position = "{93, 34}";
},
{
name = center;
position = "{195, 200}";
},
{
name = ogonek;
position = "{205, 44}";
},
{
name = top;
position = "{298, 422}";
},
{
name = topright;
position = "{297, 380}";
}
);
layerId = "FC6CF40E-48D1-4025-95B5-EAE50260AD89";
paths = (
{
closed = 1;
nodes = (
"238 29 OFFCURVE",
"361 239 OFFCURVE",
"361 332 CURVE SMOOTH",
"361 367 OFFCURVE",
"345 390 OFFCURVE",
"324 399 CURVE",
"351 405 OFFCURVE",
"381 409 OFFCURVE",
"415 409 CURVE SMOOTH",
"441 409 OFFCURVE",
"470 401 OFFCURVE",
"492 401 CURVE SMOOTH",
"498 401 OFFCURVE",
"500 403 OFFCURVE",
"500 405 CURVE SMOOTH",
"500 422 OFFCURVE",
"461 430 OFFCURVE",
"432 430 CURVE SMOOTH",
"378 430 OFFCURVE",
"323 417 OFFCURVE",
"272 399 CURVE",
"256 396 OFFCURVE",
"239 390 OFFCURVE",
"224 383 CURVE",
"215 389 OFFCURVE",
"203 395 OFFCURVE",
"189 395 CURVE SMOOTH",
"179 395 OFFCURVE",
"168 390 OFFCURVE",
"160 375 CURVE SMOOTH",
"145 345 LINE",
"123 334 OFFCURVE",
"106 324 OFFCURVE",
"93 317 CURVE SMOOTH",
"86 313 OFFCURVE",
"80 312 OFFCURVE",
"76 312 CURVE SMOOTH",
"73 312 OFFCURVE",
"71 313 OFFCURVE",
"71 316 CURVE SMOOTH",
"71 317 OFFCURVE",
"71 318 OFFCURVE",
"72 320 CURVE",
"72 321 OFFCURVE",
"73 322 OFFCURVE",
"73 323 CURVE SMOOTH",
"73 325 OFFCURVE",
"71 326 OFFCURVE",
"69 326 CURVE SMOOTH",
"46 326 OFFCURVE",
"37 292 OFFCURVE",
"37 283 CURVE SMOOTH",
"37 275 OFFCURVE",
"43 267 OFFCURVE",
"56 267 CURVE SMOOTH",
"74 267 OFFCURVE",
"100 281 OFFCURVE",
"123 296 CURVE",
"97 235 OFFCURVE",
"70 158 OFFCURVE",
"70 110 CURVE SMOOTH",
"70 65 OFFCURVE",
"92 29 OFFCURVE",
"140 29 CURVE SMOOTH"
);
},
{
closed = 1;
nodes = (
"134 50 OFFCURVE",
"123 64 OFFCURVE",
"123 94 CURVE SMOOTH",
"123 153 OFFCURVE",
"167 253 OFFCURVE",
"205 324 CURVE SMOOTH",
"208 330 OFFCURVE",
"213 336 OFFCURVE",
"218 342 CURVE",
"243 353 OFFCURVE",
"267 362 OFFCURVE",
"282 362 CURVE SMOOTH",
"312 362 OFFCURVE",
"322 342 OFFCURVE",
"322 315 CURVE SMOOTH",
"322 270 OFFCURVE",
"294 205 OFFCURVE",
"278 177 CURVE SMOOTH",
"244 115 OFFCURVE",
"192 50 OFFCURVE",
"151 50 CURVE SMOOTH"
);
}
);
width = 390;
}
);
note = o;
unicode = 006F;
},
{
glyphname = p;
lastChange = "2021-08-31 12:20:37 +0000";
layers = (
{
anchors = (
{
name = bottom;
position = "{197, 0}";
},
{
name = top;
position = "{214, 523}";
}
);
layerId = "FC6CF40E-48D1-4025-95B5-EAE50260AD89";
paths = (
{
closed = 1;
nodes = (
"159 -476 OFFCURVE",
"181 -453 OFFCURVE",
"187 -446 CURVE SMOOTH",
"189 -443 OFFCURVE",
"190 -441 OFFCURVE",
"190 -439 CURVE SMOOTH",
"190 -436 OFFCURVE",
"188 -434 OFFCURVE",
"184 -434 CURVE SMOOTH",
"181 -434 OFFCURVE",
"176 -435 OFFCURVE",
"170 -438 CURVE SMOOTH",
"163 -442 OFFCURVE",
"151 -448 OFFCURVE",
"138 -448 CURVE SMOOTH",
"119 -448 OFFCURVE",
"97 -435 OFFCURVE",
"82 -384 CURVE SMOOTH",
"71 -348 OFFCURVE",
"67 -302 OFFCURVE",
"67 -249 CURVE SMOOTH",
"67 -199 OFFCURVE",
"71 -142 OFFCURVE",
"79 -83 CURVE",
"162 -58 OFFCURVE",
"270 -5 OFFCURVE",
"333 72 CURVE SMOOTH",
"366 113 OFFCURVE",
"391 153 OFFCURVE",
"398 191 CURVE",
"432 208 LINE SMOOTH",
"449 217 OFFCURVE",
"483 245 OFFCURVE",
"472 245 CURVE SMOOTH",
"467 245 OFFCURVE",
"456 241 OFFCURVE",
"433 229 CURVE SMOOTH",
"401 213 LINE",
"402 237 OFFCURVE",
"394 259 OFFCURVE",
"378 280 CURVE SMOOTH",
"336 331 OFFCURVE",
"272 375 OFFCURVE",
"198 401 CURVE",
"209 432 OFFCURVE",
"221 460 OFFCURVE",
"232 486 CURVE",
"237 503 OFFCURVE",
"214 523 OFFCURVE",
"192 530 CURVE SMOOTH",
"176 535 OFFCURVE",
"169 517 OFFCURVE",
"160 492 CURVE SMOOTH",
"158 488 OFFCURVE",
"157 482 OFFCURVE",
"157 476 CURVE SMOOTH",
"157 464 OFFCURVE",
"160 450 OFFCURVE",
"168 437 CURVE",
"157 414 LINE",
"119 424 OFFCURVE",
"79 430 OFFCURVE",
"40 430 CURVE SMOOTH",
"27 430 OFFCURVE",
"7 404 OFFCURVE",
"20 403 CURVE SMOOTH",
"40 402 OFFCURVE",
"99 400 OFFCURVE",
"138 370 CURVE",
"88 249 OFFCURVE",
"55 110 OFFCURVE",
"43 19 CURVE",
"42 16 OFFCURVE",
"42 13 OFFCURVE",
"42 11 CURVE",
"6 -16 OFFCURVE",
"-18 -40 OFFCURVE",
"-21 -59 CURVE SMOOTH",
"-22 -67 OFFCURVE",
"6 -98 OFFCURVE",
"14 -98 CURVE",
"29 -95 LINE",
"25 -138 OFFCURVE",
"22 -184 OFFCURVE",
"22 -229 CURVE SMOOTH",
"22 -336 OFFCURVE",
"38 -436 OFFCURVE",
"95 -467 CURVE SMOOTH",
"107 -474 OFFCURVE",
"118 -476 OFFCURVE",
"128 -476 CURVE SMOOTH"
);
},
{
closed = 1;
nodes = (
"13 -44 OFFCURVE",
"24 -33 OFFCURVE",
"37 -23 CURVE",
"33 -52 LINE",
"27 -54 OFFCURVE",
"20 -56 OFFCURVE",
"14 -59 CURVE"
);
},
{
closed = 1;
nodes = (
"96 21 LINE",
"144 54 OFFCURVE",
"238 105 OFFCURVE",
"327 153 CURVE",
"313 130 OFFCURVE",
"294 108 OFFCURVE",
"271 87 CURVE SMOOTH",
"206 27 OFFCURVE",
"159 -2 OFFCURVE",
"87 -32 CURVE"
);
},
{
closed = 1;
nodes = (
"124 162 OFFCURVE",
"154 272 OFFCURVE",
"186 366 CURVE",
"204 360 OFFCURVE",
"222 353 OFFCURVE",
"239 346 CURVE SMOOTH",
"317 312 OFFCURVE",
"349 269 OFFCURVE",
"349 223 CURVE SMOOTH",
"349 210 OFFCURVE",
"347 197 OFFCURVE",
"342 184 CURVE",
"272 149 OFFCURVE",
"178 100 OFFCURVE",
"102 52 CURVE"
);
}
);
width = 393;
}
);
note = p;
unicode = 0070;
},
{
glyphname = q;
lastChange = "2021-08-31 12:20:37 +0000";
layers = (
{
layerId = "FC6CF40E-48D1-4025-95B5-EAE50260AD89";
paths = (
{
closed = 1;
nodes = (
"285 -314 OFFCURVE",
"288 -311 OFFCURVE",
"289 -305 CURVE",
"286 -289 OFFCURVE",
"285 -268 OFFCURVE",
"285 -245 CURVE SMOOTH",
"285 -110 OFFCURVE",
"329 119 OFFCURVE",
"378 264 CURVE",
"378 277 OFFCURVE",
"349 296 OFFCURVE",
"329 296 CURVE SMOOTH",
"316 296 OFFCURVE",
"312 283 OFFCURVE",
"308 266 CURVE SMOOTH",
"302 244 LINE",
"249 175 OFFCURVE",
"164 102 OFFCURVE",
"106 102 CURVE SMOOTH",
"81 102 OFFCURVE",
"71 117 OFFCURVE",
"71 132 CURVE SMOOTH",
"71 197 OFFCURVE",
"244 319 OFFCURVE",
"328 319 CURVE SMOOTH",
"364 319 OFFCURVE",
"402 302 OFFCURVE",
"425 283 CURVE",
"427 280 OFFCURVE",
"430 278 OFFCURVE",
"431 278 CURVE SMOOTH",
"433 278 OFFCURVE",
"434 279 OFFCURVE",
"434 282 CURVE SMOOTH",
"434 331 OFFCURVE",
"345 349 OFFCURVE",
"308 349 CURVE SMOOTH",
"254 349 OFFCURVE",
"189 324 OFFCURVE",
"144 298 CURVE SMOOTH",
"70 255 OFFCURVE",
"37 201 OFFCURVE",
"37 154 CURVE SMOOTH",
"37 141 OFFCURVE",
"39 78 OFFCURVE",
"117 78 CURVE SMOOTH",
"181 78 OFFCURVE",
"246 142 OFFCURVE",
"293 203 CURVE",
"272 102 OFFCURVE",
"259 -17 OFFCURVE",
"259 -133 CURVE SMOOTH",
"259 -180 OFFCURVE",
"262 -314 OFFCURVE",
"281 -314 CURVE SMOOTH"
);
}
);
width = 387;
}
);
note = q;
unicode = 0071;
},
{
glyphname = r;
lastChange = "2021-08-31 12:20:37 +0000";
layers = (
{
anchors = (
{
name = bottom;
position = "{111, 95}";
},
{
name = top;
position = "{189, 474}";
}
);
layerId = "FC6CF40E-48D1-4025-95B5-EAE50260AD89";
paths = (
{
closed = 1;
nodes = (
"282 53 OFFCURVE",
"323 141 OFFCURVE",
"347 207 CURVE SMOOTH",
"348 211 OFFCURVE",
"349 215 OFFCURVE",
"349 217 CURVE SMOOTH",
"349 220 OFFCURVE",
"348 221 OFFCURVE",
"346 221 CURVE SMOOTH",
"335 221 OFFCURVE",
"335 211 OFFCURVE",
"307 159 CURVE SMOOTH",
"300 145 OFFCURVE",
"276 96 OFFCURVE",
"253 96 CURVE SMOOTH",
"228 96 OFFCURVE",
"216 160 OFFCURVE",
"216 233 CURVE SMOOTH",
"216 288 OFFCURVE",
"223 346 OFFCURVE",
"236 380 CURVE",
"236 383 LINE SMOOTH",
"236 391 OFFCURVE",
"223 394 OFFCURVE",
"209 394 CURVE SMOOTH",
"166 394 OFFCURVE",
"151 344 OFFCURVE",
"132 344 CURVE SMOOTH",
"122 344 OFFCURVE",
"113 352 OFFCURVE",
"113 352 CURVE",
"123 378 OFFCURVE",
"142 439 OFFCURVE",
"142 459 CURVE SMOOTH",
"142 474 OFFCURVE",
"136 479 OFFCURVE",
"130 479 CURVE SMOOTH",
"115 479 OFFCURVE",
"76 445 OFFCURVE",
"76 374 CURVE SMOOTH",
"76 356 OFFCURVE",
"81 341 OFFCURVE",
"95 336 CURVE",
"77 274 OFFCURVE",
"57 218 OFFCURVE",
"30 163 CURVE SMOOTH",
"25 153 OFFCURVE",
"23 146 OFFCURVE",
"23 141 CURVE SMOOTH",
"23 137 OFFCURVE",
"25 135 OFFCURVE",
"27 135 CURVE SMOOTH",
"53 135 OFFCURVE",
"106 307 OFFCURVE",
"111 330 CURVE",
"121 323 OFFCURVE",
"142 317 OFFCURVE",
"164 314 CURVE",
"163 286 OFFCURVE",
"159 241 OFFCURVE",
"159 197 CURVE SMOOTH",
"159 115 OFFCURVE",
"172 53 OFFCURVE",
"222 53 CURVE SMOOTH"
);
}
);
width = 281;
}
);
note = r;
unicode = 0072;
},
{
glyphname = s;
lastChange = "2021-08-31 12:20:37 +0000";
layers = (
{
anchors = (
{
name = bottom;
position = "{85, 60}";
},
{
name = top;
position = "{216, 432}";
}
);
layerId = "FC6CF40E-48D1-4025-95B5-EAE50260AD89";
paths = (
{
closed = 1;
nodes = (
"142 48 OFFCURVE",
"193 66 OFFCURVE",
"193 108 CURVE SMOOTH",
"193 114 OFFCURVE",
"192 120 OFFCURVE",
"190 126 CURVE",
"223 143 OFFCURVE",
"319 188 OFFCURVE",
"319 207 CURVE SMOOTH",
"319 208 OFFCURVE",
"318 208 OFFCURVE",
"317 208 CURVE SMOOTH",
"301 208 OFFCURVE",
"202 155 OFFCURVE",
"175 144 CURVE",
"140 173 OFFCURVE",
"93 196 OFFCURVE",
"93 235 CURVE SMOOTH",
"93 272 OFFCURVE",
"184 370 OFFCURVE",
"217 370 CURVE",
"214 357 OFFCURVE",
"202 320 OFFCURVE",
"202 294 CURVE SMOOTH",
"202 284 OFFCURVE",
"204 271 OFFCURVE",
"210 271 CURVE SMOOTH",
"215 271 OFFCURVE",
"218 278 OFFCURVE",
"218 290 CURVE SMOOTH",
"218 323 OFFCURVE",
"243 376 OFFCURVE",
"259 395 CURVE",
"260 397 OFFCURVE",
"261 398 OFFCURVE",
"261 400 CURVE SMOOTH",
"261 413 OFFCURVE",
"237 432 OFFCURVE",
"216 432 CURVE SMOOTH",
"211 432 OFFCURVE",
"206 431 OFFCURVE",
"201 428 CURVE SMOOTH",
"156 401 OFFCURVE",
"62 344 OFFCURVE",
"62 269 CURVE SMOOTH",
"62 198 OFFCURVE",
"149 147 OFFCURVE",
"159 130 CURVE",
"147 122 OFFCURVE",
"85 95 OFFCURVE",
"51 95 CURVE SMOOTH",
"33 95 OFFCURVE",
"21 88 OFFCURVE",
"21 79 CURVE SMOOTH",
"21 64 OFFCURVE",
"69 48 OFFCURVE",
"100 48 CURVE SMOOTH"
);
}
);
width = 266;
}
);
note = s;
unicode = 0073;
},
{
glyphname = t;
lastChange = "2021-08-31 12:20:37 +0000";
layers = (
{
anchors = (
{
name = bottom;
position = "{143, -9}";
},
{
name = center;
position = "{78, 235}";
},
{
name = top;
position = "{142, 750}";
},
{
name = topright;
position = "{251, 750}";
}
);
layerId = "FC6CF40E-48D1-4025-95B5-EAE50260AD89";
paths = (
{
closed = 1;
nodes = (
"190 -15 OFFCURVE",
"211 2 OFFCURVE",
"215 7 CURVE SMOOTH",
"221 13 OFFCURVE",
"215 16 OFFCURVE",
"201 9 CURVE SMOOTH",
"194 6 OFFCURVE",
"180 -1 OFFCURVE",
"165 -1 CURVE SMOOTH",
"150 -1 OFFCURVE",
"134 6 OFFCURVE",
"122 29 CURVE SMOOTH",
"105 61 OFFCURVE",
"98 114 OFFCURVE",
"98 179 CURVE SMOOTH",
"98 192 OFFCURVE",
"99 205 OFFCURVE",
"99 218 CURVE",
"142 306 OFFCURVE",
"183 405 OFFCURVE",
"205 494 CURVE",
"314 515 OFFCURVE",
"428 544 OFFCURVE",
"512 574 CURVE SMOOTH",
"524 578 OFFCURVE",
"552 592 OFFCURVE",
"539 589 CURVE SMOOTH",
"449 568 OFFCURVE",
"320 539 OFFCURVE",
"211 523 CURVE",
"217 552 OFFCURVE",
"220 579 OFFCURVE",
"220 604 CURVE SMOOTH",
"220 651 OFFCURVE",
"209 690 OFFCURVE",
"182 715 CURVE",
"175 727 OFFCURVE",
"155 737 OFFCURVE",
"139 740 CURVE SMOOTH",
"122 743 OFFCURVE",
"118 724 OFFCURVE",
"112 698 CURVE SMOOTH",
"98 639 OFFCURVE",
"85 572 OFFCURVE",
"75 506 CURVE",
"-1 498 OFFCURVE",
"-45 492 OFFCURVE",
"-85 492 CURVE SMOOTH",
"-98 492 OFFCURVE",
"-110 493 OFFCURVE",
"-123 494 CURVE SMOOTH",
"-132 495 OFFCURVE",
"-107 452 OFFCURVE",
"-98 453 CURVE",
"-59 453 OFFCURVE",
"1 460 OFFCURVE",
"70 471 CURVE",
"61 407 OFFCURVE",
"54 345 OFFCURVE",
"51 294 CURVE SMOOTH",
"50 276 OFFCURVE",
"48 251 OFFCURVE",
"48 222 CURVE SMOOTH",
"48 122 OFFCURVE",
"64 -15 OFFCURVE",
"158 -15 CURVE SMOOTH"
);
},
{
closed = 1;
nodes = (
"108 336 OFFCURVE",
"118 409 OFFCURVE",
"132 481 CURVE",
"148 483 OFFCURVE",
"164 486 OFFCURVE",
"181 489 CURVE",
"163 419 OFFCURVE",
"134 343 OFFCURVE",
"102 270 CURVE"
);
},
{
closed = 1;
nodes = (
"151 573 OFFCURVE",
"164 632 OFFCURVE",
"179 686 CURVE",
"192 665 OFFCURVE",
"198 636 OFFCURVE",
"198 603 CURVE SMOOTH",
"198 578 OFFCURVE",
"194 549 OFFCURVE",
"188 519 CURVE",
"153 515 LINE",
"139 513 LINE"
);
}
);
width = 194;
}
);
note = t;
unicode = 0074;
},
{
glyphname = u;
lastChange = "2021-08-31 12:20:37 +0000";
layers = (
{
anchors = (
{
name = bottom;
position = "{145, 33}";
},
{
name = ogonek;
position = "{330, 27}";
},
{
name = top;
position = "{180, 427}";
},
{
name = topright;
position = "{209, 379}";
}
);
layerId = "FC6CF40E-48D1-4025-95B5-EAE50260AD89";
paths = (
{
closed = 1;
nodes = (
"276 -1 OFFCURVE",
"341 152 OFFCURVE",
"355 187 CURVE SMOOTH",
"357 192 OFFCURVE",
"358 195 OFFCURVE",
"358 198 CURVE SMOOTH",
"358 201 OFFCURVE",
"357 203 OFFCURVE",
"354 203 CURVE SMOOTH",
"338 203 OFFCURVE",
"285 64 OFFCURVE",
"259 64 CURVE SMOOTH",
"250 64 OFFCURVE",
"239 65 OFFCURVE",
"239 106 CURVE SMOOTH",
"239 174 OFFCURVE",
"259 333 OFFCURVE",
"268 365 CURVE",
"260 383 OFFCURVE",
"238 402 OFFCURVE",
"224 402 CURVE SMOOTH",
"220 402 OFFCURVE",
"217 401 OFFCURVE",
"216 397 CURVE SMOOTH",
"201 325 OFFCURVE",
"152 166 OFFCURVE",
"119 104 CURVE SMOOTH",
"110 88 OFFCURVE",
"104 82 OFFCURVE",
"100 82 CURVE SMOOTH",
"93 82 OFFCURVE",
"93 102 OFFCURVE",
"93 121 CURVE SMOOTH",
"93 211 OFFCURVE",
"122 347 OFFCURVE",
"122 423 CURVE SMOOTH",
"122 434 OFFCURVE",
"109 437 OFFCURVE",
"91 437 CURVE SMOOTH",
"71 437 OFFCURVE",
"50 432 OFFCURVE",
"25 430 CURVE SMOOTH",
"12 429 OFFCURVE",
"4 423 OFFCURVE",
"4 417 CURVE SMOOTH",
"4 414 OFFCURVE",
"7 411 OFFCURVE",
"16 411 CURVE SMOOTH",
"30 411 OFFCURVE",
"57 405 OFFCURVE",
"63 394 CURVE SMOOTH",
"67 384 OFFCURVE",
"68 371 OFFCURVE",
"68 358 CURVE SMOOTH",
"68 327 OFFCURVE",
"61 291 OFFCURVE",
"58 266 CURVE SMOOTH",
"51 210 OFFCURVE",
"41 154 OFFCURVE",
"41 93 CURVE SMOOTH",
"41 83 OFFCURVE",
"41 75 OFFCURVE",
"42 68 CURVE SMOOTH",
"43 55 OFFCURVE",
"77 33 OFFCURVE",
"98 33 CURVE SMOOTH",
"106 33 OFFCURVE",
"112 36 OFFCURVE",
"115 44 CURVE SMOOTH",
"120 63 OFFCURVE",
"183 187 OFFCURVE",
"209 299 CURVE",
"204 262 OFFCURVE",
"191 156 OFFCURVE",
"191 58 CURVE SMOOTH",
"191 23 OFFCURVE",
"216 -1 OFFCURVE",
"239 -1 CURVE SMOOTH"
);
}
);
width = 295;
}
);
note = u;
unicode = 0075;
},
{
glyphname = v;
lastChange = "2021-08-31 12:20:37 +0000";
layers = (
{
layerId = "FC6CF40E-48D1-4025-95B5-EAE50260AD89";
paths = (
{
closed = 1;
nodes = (
"143 13 OFFCURVE",
"149 16 OFFCURVE",
"149 22 CURVE SMOOTH",
"149 27 OFFCURVE",
"148 32 OFFCURVE",
"148 37 CURVE SMOOTH",
"148 125 OFFCURVE",
"259 301 OFFCURVE",
"315 331 CURVE SMOOTH",
"333 341 OFFCURVE",
"358 360 OFFCURVE",
"359 369 CURVE SMOOTH",
"359 376 OFFCURVE",
"346 391 OFFCURVE",
"327 391 CURVE SMOOTH",
"318 391 OFFCURVE",
"307 386 OFFCURVE",
"298 374 CURVE SMOOTH",
"287 359 OFFCURVE",
"147 162 OFFCURVE",
"127 75 CURVE",
"135 142 OFFCURVE",
"142 232 OFFCURVE",
"142 292 CURVE SMOOTH",
"142 363 OFFCURVE",
"134 367 OFFCURVE",
"97 367 CURVE SMOOTH",
"73 367 OFFCURVE",
"26 356 OFFCURVE",
"26 348 CURVE SMOOTH",
"26 344 OFFCURVE",
"31 340 OFFCURVE",
"37 340 CURVE SMOOTH",
"43 340 OFFCURVE",
"51 344 OFFCURVE",
"56 344 CURVE SMOOTH",
"79 344 OFFCURVE",
"85 315 OFFCURVE",
"85 246 CURVE SMOOTH",
"85 185 OFFCURVE",
"79 111 OFFCURVE",
"79 68 CURVE SMOOTH",
"79 35 OFFCURVE",
"92 13 OFFCURVE",
"135 13 CURVE SMOOTH"
);
}
);
width = 294;
}
);
note = v;
unicode = 0076;
},
{
glyphname = w;
lastChange = "2021-08-31 12:20:37 +0000";
layers = (
{
anchors = (
{
name = bottom;
position = "{285, 0}";
},
{
name = top;
position = "{292, 357}";
}
);
layerId = "FC6CF40E-48D1-4025-95B5-EAE50260AD89";
paths = (
{
closed = 1;
nodes = (
"127 36 OFFCURVE",
"128 71 OFFCURVE",
"268 237 CURVE",
"286 182 OFFCURVE",
"343 68 OFFCURVE",
"454 68 CURVE SMOOTH",
"498 68 OFFCURVE",
"533 115 OFFCURVE",
"533 166 CURVE SMOOTH",
"533 224 OFFCURVE",
"509 286 OFFCURVE",
"488 324 CURVE",
"490 324 LINE SMOOTH",
"543 324 OFFCURVE",
"604 331 OFFCURVE",
"621 342 CURVE SMOOTH",
"625 345 OFFCURVE",
"627 350 OFFCURVE",
"627 353 CURVE SMOOTH",
"627 356 OFFCURVE",
"626 358 OFFCURVE",
"623 358 CURVE SMOOTH",
"622 358 OFFCURVE",
"620 357 OFFCURVE",
"618 356 CURVE SMOOTH",
"611 351 OFFCURVE",
"582 349 OFFCURVE",
"547 349 CURVE SMOOTH",
"498 349 OFFCURVE",
"437 353 OFFCURVE",
"415 360 CURVE",
"413 360 LINE SMOOTH",
"408 360 OFFCURVE",
"406 356 OFFCURVE",
"406 350 CURVE SMOOTH",
"406 336 OFFCURVE",
"418 329 OFFCURVE",
"436 326 CURVE",
"460 299 OFFCURVE",
"483 253 OFFCURVE",
"483 186 CURVE SMOOTH",
"483 153 OFFCURVE",
"471 95 OFFCURVE",
"426 95 CURVE SMOOTH",
"365 95 OFFCURVE",
"309 229 OFFCURVE",
"305 301 CURVE SMOOTH",
"305 314 OFFCURVE",
"298 322 OFFCURVE",
"289 322 CURVE SMOOTH",
"277 322 OFFCURVE",
"262 306 OFFCURVE",
"262 272 CURVE SMOOTH",
"262 263 LINE",
"225 217 OFFCURVE",
"169 146 OFFCURVE",
"137 109 CURVE SMOOTH",
"129 100 OFFCURVE",
"123 96 OFFCURVE",
"118 96 CURVE SMOOTH",
"112 96 OFFCURVE",
"109 103 OFFCURVE",
"109 115 CURVE SMOOTH",
"109 161 OFFCURVE",
"140 243 OFFCURVE",
"154 265 CURVE",
"171 270 OFFCURVE",
"189 320 OFFCURVE",
"189 335 CURVE SMOOTH",
"189 340 OFFCURVE",
"177 364 OFFCURVE",
"154 364 CURVE SMOOTH",
"136 364 OFFCURVE",
"116 348 OFFCURVE",
"98 294 CURVE SMOOTH",
"66 197 OFFCURVE",
"57 133 OFFCURVE",
"57 95 CURVE SMOOTH",
"57 64 OFFCURVE",
"63 36 OFFCURVE",
"106 36 CURVE SMOOTH"
);
}
);
width = 570;
}
);
note = w;
unicode = 0077;
},
{
glyphname = x;
lastChange = "2021-08-31 12:20:37 +0000";
layers = (
{
layerId = "FC6CF40E-48D1-4025-95B5-EAE50260AD89";
paths = (
{
closed = 1;
nodes = (
"-43 -88 OFFCURVE",
"46 25 OFFCURVE",
"133 151 CURVE",
"157 83 OFFCURVE",
"185 32 OFFCURVE",
"216 32 CURVE SMOOTH",
"274 32 OFFCURVE",
"349 172 OFFCURVE",
"349 195 CURVE SMOOTH",
"349 199 OFFCURVE",
"347 201 OFFCURVE",
"344 201 CURVE SMOOTH",
"330 201 OFFCURVE",
"287 80 OFFCURVE",
"244 80 CURVE SMOOTH",
"222 80 OFFCURVE",
"192 129 OFFCURVE",
"171 207 CURVE",
"274 335 OFFCURVE",
"300 371 OFFCURVE",
"300 414 CURVE SMOOTH",
"300 428 OFFCURVE",
"299 457 OFFCURVE",
"284 457 CURVE SMOOTH",
"281 457 OFFCURVE",
"279 456 OFFCURVE",
"279 454 CURVE SMOOTH",
"272 389 OFFCURVE",
"195 266 OFFCURVE",
"166 225 CURVE",
"160 253 OFFCURVE",
"154 284 OFFCURVE",
"151 318 CURVE SMOOTH",
"149 334 OFFCURVE",
"140 346 OFFCURVE",
"128 346 CURVE SMOOTH",
"107 346 OFFCURVE",
"83 282 OFFCURVE",
"82 281 CURVE",
"53 219 OFFCURVE",
"33 168 OFFCURVE",
"33 157 CURVE SMOOTH",
"33 153 OFFCURVE",
"34 150 OFFCURVE",
"37 150 CURVE SMOOTH",
"52 150 OFFCURVE",
"83 248 OFFCURVE",
"97 248 CURVE SMOOTH",
"101 248 OFFCURVE",
"105 243 OFFCURVE",
"107 237 CURVE SMOOTH",
"112 215 OFFCURVE",
"119 194 OFFCURVE",
"125 174 CURVE",
"58 83 OFFCURVE",
"-32 -19 OFFCURVE",
"-81 -80 CURVE",
"-82 -82 OFFCURVE",
"-83 -83 OFFCURVE",
"-83 -84 CURVE SMOOTH",
"-83 -87 OFFCURVE",
"-81 -88 OFFCURVE",
"-78 -88 CURVE SMOOTH"
);
}
);
width = 289;
}
);
note = x;
unicode = 0078;
},
{
glyphname = y;
lastChange = "2021-08-31 12:20:37 +0000";
layers = (
{
anchors = (
{
name = bottom;
position = "{315, 0}";
},
{
name = top;
position = "{181, 418}";
}
);
layerId = "FC6CF40E-48D1-4025-95B5-EAE50260AD89";
paths = (
{
closed = 1;
nodes = (
"60 -468 OFFCURVE",
"92 -449 OFFCURVE",
"119 -399 CURVE SMOOTH",
"132 -376 OFFCURVE",
"208 -177 OFFCURVE",
"250 29 CURVE",
"285 62 OFFCURVE",
"318 102 OFFCURVE",
"344 163 CURVE SMOOTH",
"349 174 OFFCURVE",
"351 181 OFFCURVE",
"351 185 CURVE SMOOTH",
"351 188 OFFCURVE",
"350 189 OFFCURVE",
"349 189 CURVE SMOOTH",
"344 189 OFFCURVE",
"331 177 OFFCURVE",
"324 161 CURVE SMOOTH",
"308 128 OFFCURVE",
"285 99 OFFCURVE",
"258 72 CURVE",
"269 141 OFFCURVE",
"277 210 OFFCURVE",
"277 271 CURVE SMOOTH",
"277 324 OFFCURVE",
"276 392 OFFCURVE",
"235 392 CURVE SMOOTH",
"229 392 OFFCURVE",
"225 391 OFFCURVE",
"223 389 CURVE",
"223 390 LINE",
"223 389 OFFCURVE",
"222 389 OFFCURVE",
"222 388 CURVE SMOOTH",
"222 387 LINE",
"211 358 OFFCURVE",
"138 167 OFFCURVE",
"119 105 CURVE",
"127 154 OFFCURVE",
"133 255 OFFCURVE",
"133 326 CURVE SMOOTH",
"133 419 OFFCURVE",
"126 422 OFFCURVE",
"90 422 CURVE SMOOTH",
"17 422 OFFCURVE",
"-3 386 OFFCURVE",
"-5 390 CURVE SMOOTH",
"-4 388 OFFCURVE",
"-2 387 OFFCURVE",
"2 387 CURVE SMOOTH",
"20 387 OFFCURVE",
"35 400 OFFCURVE",
"46 400 CURVE SMOOTH",
"69 400 OFFCURVE",
"77 371 OFFCURVE",
"77 295 CURVE SMOOTH",
"77 228 OFFCURVE",
"70 145 OFFCURVE",
"70 103 CURVE SMOOTH",
"70 73 OFFCURVE",
"85 59 OFFCURVE",
"127 59 CURVE SMOOTH",
"135 59 OFFCURVE",
"141 61 OFFCURVE",
"141 65 CURVE SMOOTH",
"141 69 OFFCURVE",
"140 73 OFFCURVE",
"140 78 CURVE SMOOTH",
"140 129 OFFCURVE",
"189 273 OFFCURVE",
"231 332 CURVE",
"233 319 OFFCURVE",
"234 304 OFFCURVE",
"234 286 CURVE SMOOTH",
"234 254 OFFCURVE",
"233 215 OFFCURVE",
"229 167 CURVE SMOOTH",
"225 123 OFFCURVE",
"215 73 OFFCURVE",
"202 21 CURVE",
"152 -23 OFFCURVE",
"94 -70 OFFCURVE",
"40 -136 CURVE SMOOTH",
"1 -183 OFFCURVE",
"-19 -238 OFFCURVE",
"-19 -290 CURVE SMOOTH",
"-19 -336 OFFCURVE",
"-7 -376 OFFCURVE",
"20 -404 CURVE",
"26 -412 OFFCURVE",
"35 -416 OFFCURVE",
"40 -416 CURVE SMOOTH",
"41 -416 OFFCURVE",
"42 -415 OFFCURVE",
"42 -415 CURVE",
"42 -414 OFFCURVE",
"41 -413 OFFCURVE",
"39 -411 CURVE SMOOTH",
"23 -392 OFFCURVE",
"15 -361 OFFCURVE",
"15 -324 CURVE SMOOTH",
"15 -260 OFFCURVE",
"39 -177 OFFCURVE",
"83 -122 CURVE SMOOTH",
"118 -77 OFFCURVE",
"156 -47 OFFCURVE",
"192 -18 CURVE",
"147 -184 OFFCURVE",
"72 -365 OFFCURVE",
"36 -448 CURVE",
"33 -452 OFFCURVE",
"32 -456 OFFCURVE",
"32 -459 CURVE SMOOTH",
"32 -464 OFFCURVE",
"36 -468 OFFCURVE",
"43 -468 CURVE SMOOTH"
);
}
);
width = 296;
}
);
note = y;
unicode = 0079;
},
{
glyphname = z;
lastChange = "2021-08-31 12:20:37 +0000";
layers = (
{
anchors = (
{
name = bottom;
position = "{166, 0}";
},
{
name = center;
position = "{186, 222}";
},
{
name = top;
position = "{273, 422}";
}
);
layerId = "FC6CF40E-48D1-4025-95B5-EAE50260AD89";
paths = (
{
closed = 1;
nodes = (
"342 -21 OFFCURVE",
"361 6 OFFCURVE",
"361 21 CURVE SMOOTH",
"361 48 OFFCURVE",
"306 161 OFFCURVE",
"276 161 CURVE SMOOTH",
"274 161 OFFCURVE",
"273 160 OFFCURVE",
"273 158 CURVE SMOOTH",
"273 156 OFFCURVE",
"276 151 OFFCURVE",
"278 148 CURVE SMOOTH",
"321 91 OFFCURVE",
"326 38 OFFCURVE",
"326 31 CURVE SMOOTH",
"326 20 OFFCURVE",
"320 16 OFFCURVE",
"309 16 CURVE SMOOTH",
"264 16 OFFCURVE",
"139 102 OFFCURVE",
"127 112 CURVE SMOOTH",
"124 114 OFFCURVE",
"121 115 OFFCURVE",
"118 116 CURVE",
"168 181 OFFCURVE",
"250 270 OFFCURVE",
"294 323 CURVE",
"317 330 OFFCURVE",
"363 334 OFFCURVE",
"390 400 CURVE",
"391 404 OFFCURVE",
"392 407 OFFCURVE",
"392 411 CURVE SMOOTH",
"392 429 OFFCURVE",
"372 444 OFFCURVE",
"361 444 CURVE SMOOTH",
"358 444 OFFCURVE",
"355 443 OFFCURVE",
"354 441 CURVE SMOOTH",
"327 394 OFFCURVE",
"297 359 OFFCURVE",
"273 332 CURVE",
"238 332 OFFCURVE",
"215 361 OFFCURVE",
"190 405 CURVE SMOOTH",
"185 413 OFFCURVE",
"180 416 OFFCURVE",
"173 416 CURVE SMOOTH",
"139 416 OFFCURVE",
"88 343 OFFCURVE",
"78 310 CURVE SMOOTH",
"77 306 OFFCURVE",
"76 303 OFFCURVE",
"76 301 CURVE SMOOTH",
"76 296 OFFCURVE",
"78 294 OFFCURVE",
"81 294 CURVE SMOOTH",
"93 294 OFFCURVE",
"108 345 OFFCURVE",
"151 345 CURVE SMOOTH",
"162 345 OFFCURVE",
"228 325 OFFCURVE",
"259 316 CURVE",
"205 252 OFFCURVE",
"136 171 OFFCURVE",
"96 121 CURVE",
"68 121 OFFCURVE",
"35 105 OFFCURVE",
"35 86 CURVE SMOOTH",
"35 82 OFFCURVE",
"37 78 OFFCURVE",
"43 76 CURVE SMOOTH",
"62 69 LINE",
"60 62 OFFCURVE",
"59 57 OFFCURVE",
"59 52 CURVE SMOOTH",
"59 43 OFFCURVE",
"63 37 OFFCURVE",
"67 37 CURVE SMOOTH",
"71 37 OFFCURVE",
"75 42 OFFCURVE",
"79 53 CURVE SMOOTH",
"82 62 LINE",
"109 52 OFFCURVE",
"144 40 OFFCURVE",
"164 31 CURVE SMOOTH",
"196 17 OFFCURVE",
"276 -21 OFFCURVE",
"308 -21 CURVE SMOOTH"
);
}
);
width = 331;
}
);
note = z;
unicode = 007A;
},
{
glyphname = apostrophemod;
lastChange = "2021-08-31 12:20:37 +0000";
layers = (
{
layerId = "FC6CF40E-48D1-4025-95B5-EAE50260AD89";
paths = (
{
closed = 1;
nodes = (
"10 545 OFFCURVE",
"18 549 OFFCURVE",
"29 557 CURVE SMOOTH",
"50 574 OFFCURVE",
"93 669 OFFCURVE",
"93 693 CURVE SMOOTH",
"93 696 OFFCURVE",
"92 698 OFFCURVE",
"90 699 CURVE SMOOTH",
"79 702 OFFCURVE",
"68 709 OFFCURVE",
"60 709 CURVE SMOOTH",
"45 709 OFFCURVE",
"28 585 OFFCURVE",
"6 559 CURVE SMOOTH",
"2 555 OFFCURVE",
"0 551 OFFCURVE",
"0 549 CURVE SMOOTH",
"0 547 OFFCURVE",
"2 545 OFFCURVE",
"5 545 CURVE SMOOTH"
);
}
);
width = 93;
}
);
note = apostrophe;
unicode = 02BC;
},
{
glyphname = doubleprimemod;
lastChange = "2021-08-31 12:20:37 +0000";
layers = (
{
layerId = "FC6CF40E-48D1-4025-95B5-EAE50260AD89";
paths = (
{
closed = 1;
nodes = (
"125 571 OFFCURVE",
"133 575 OFFCURVE",
"144 583 CURVE SMOOTH",
"165 600 OFFCURVE",
"208 669 OFFCURVE",
"208 693 CURVE SMOOTH",
"208 696 OFFCURVE",
"207 698 OFFCURVE",
"205 699 CURVE SMOOTH",
"194 702 OFFCURVE",
"183 709 OFFCURVE",
"175 709 CURVE SMOOTH",
"160 709 OFFCURVE",
"143 611 OFFCURVE",
"121 585 CURVE SMOOTH",
"117 581 OFFCURVE",
"115 577 OFFCURVE",
"115 575 CURVE SMOOTH",
"115 573 OFFCURVE",
"117 571 OFFCURVE",
"120 571 CURVE SMOOTH"
);
},
{
closed = 1;
nodes = (
"10 571 OFFCURVE",
"18 575 OFFCURVE",
"29 583 CURVE SMOOTH",
"50 600 OFFCURVE",
"93 669 OFFCURVE",
"93 693 CURVE SMOOTH",
"93 696 OFFCURVE",
"92 698 OFFCURVE",
"90 699 CURVE SMOOTH",
"79 702 OFFCURVE",
"68 709 OFFCURVE",
"60 709 CURVE SMOOTH",
"45 709 OFFCURVE",
"28 611 OFFCURVE",
"6 585 CURVE SMOOTH",
"2 581 OFFCURVE",
"0 577 OFFCURVE",
"0 575 CURVE SMOOTH",
"0 573 OFFCURVE",
"2 571 OFFCURVE",
"5 571 CURVE SMOOTH"
);
}
);
width = 208;
}
);
unicode = 02BA;
},
{
glyphname = primemod;
lastChange = "2021-08-31 12:20:37 +0000";
layers = (
{
layerId = "FC6CF40E-48D1-4025-95B5-EAE50260AD89";
paths = (
{
closed = 1;
nodes = (
"10 571 OFFCURVE",
"18 575 OFFCURVE",
"29 583 CURVE SMOOTH",
"50 600 OFFCURVE",
"93 669 OFFCURVE",
"93 693 CURVE SMOOTH",
"93 696 OFFCURVE",
"92 698 OFFCURVE",
"90 699 CURVE SMOOTH",
"79 702 OFFCURVE",
"68 709 OFFCURVE",
"60 709 CURVE SMOOTH",
"45 709 OFFCURVE",
"28 611 OFFCURVE",
"6 585 CURVE SMOOTH",
"2 581 OFFCURVE",
"0 577 OFFCURVE",
"0 575 CURVE SMOOTH",
"0 573 OFFCURVE",
"2 571 OFFCURVE",
"5 571 CURVE SMOOTH"
);
}
);
width = 93;
}
);
unicode = 02B9;
},
{
color = 6;
glyphname = dieresiscomb;
lastChange = "2021-08-31 12:20:37 +0000";
layers = (
{
anchors = (
{
name = _top;
position = "{78, 400}";
},
{
name = top;
position = "{103, 492}";
}
);
layerId = "FC6CF40E-48D1-4025-95B5-EAE50260AD89";
paths = (
{
closed = 1;
nodes = (
"162 440 OFFCURVE",
"159 469 OFFCURVE",
"178 486 CURVE",
"182 488 OFFCURVE",
"183 491 OFFCURVE",
"183 493 CURVE SMOOTH",
"183 497 OFFCURVE",
"178 499 OFFCURVE",
"169 499 CURVE SMOOTH",
"135 499 OFFCURVE",
"113 473 OFFCURVE",
"113 461 CURVE SMOOTH",
"113 456 OFFCURVE",
"115 451 OFFCURVE",
"120 448 CURVE SMOOTH",
"128 443 OFFCURVE",
"136 440 OFFCURVE",
"142 440 CURVE SMOOTH"
);
},
{
closed = 1;
nodes = (
"49 440 OFFCURVE",
"46 469 OFFCURVE",
"65 486 CURVE",
"69 488 OFFCURVE",
"70 491 OFFCURVE",
"70 493 CURVE SMOOTH",
"70 497 OFFCURVE",
"65 499 OFFCURVE",
"56 499 CURVE SMOOTH",
"22 499 OFFCURVE",
"0 473 OFFCURVE",
"0 461 CURVE SMOOTH",
"0 456 OFFCURVE",
"2 451 OFFCURVE",
"7 448 CURVE SMOOTH",
"15 443 OFFCURVE",
"23 440 OFFCURVE",
"29 440 CURVE SMOOTH"
);
}
);
width = 183;
}
);
unicode = 0308;
},
{
color = 6;
glyphname = dotaccentcomb;
lastChange = "2021-08-31 12:20:37 +0000";
layers = (
{
anchors = (
{
name = _top;
position = "{25, 400}";
},
{
name = top;
position = "{59, 480}";
}
);
layerId = "FC6CF40E-48D1-4025-95B5-EAE50260AD89";
paths = (
{
closed = 1;
nodes = (
"57 440 OFFCURVE",
"54 469 OFFCURVE",
"73 486 CURVE",
"77 488 OFFCURVE",
"78 491 OFFCURVE",
"78 493 CURVE SMOOTH",
"78 497 OFFCURVE",
"73 499 OFFCURVE",
"64 499 CURVE SMOOTH",
"30 499 OFFCURVE",
"8 473 OFFCURVE",
"8 461 CURVE SMOOTH",
"8 456 OFFCURVE",
"10 451 OFFCURVE",
"15 448 CURVE SMOOTH",
"23 443 OFFCURVE",
"31 440 OFFCURVE",
"37 440 CURVE SMOOTH"
);
}
);
width = 70;
}
);
unicode = 0307;
},
{
color = 6;
glyphname = gravecomb;
lastChange = "2021-08-31 12:20:37 +0000";
layers = (
{
anchors = (
{
name = _top;
position = "{87, 400}";
},
{
name = _topviet;
position = "{71, 312}";
},
{
name = top;
position = "{67, 541}";
}
);
layerId = "FC6CF40E-48D1-4025-95B5-EAE50260AD89";
paths = (
{
closed = 1;
nodes = (
"132 440 OFFCURVE",
"134 442 OFFCURVE",
"134 448 CURVE SMOOTH",
"134 452 OFFCURVE",
"130 457 OFFCURVE",
"123 462 CURVE SMOOTH",
"110 471 OFFCURVE",
"41 529 OFFCURVE",
"34 534 CURVE SMOOTH",
"26 541 OFFCURVE",
"24 541 OFFCURVE",
"20 541 CURVE SMOOTH",
"13 541 OFFCURVE",
"-2 523 OFFCURVE",
"0 516 CURVE",
"0 504 OFFCURVE",
"79 456 OFFCURVE",
"107 446 CURVE SMOOTH",
"117 442 OFFCURVE",
"124 440 OFFCURVE",
"129 440 CURVE SMOOTH"
);
}
);
width = 134;
}
);
note = gravecomb;
unicode = 0300;
},
{
color = 6;
glyphname = acutecomb;
lastChange = "2021-09-01 00:50:57 +0000";
layers = (
{
anchors = (
{
name = _top;
position = "{48, 400}";
},
{
name = top;
position = "{73, 541}";
}
);
background = {
paths = (
{
closed = 1;
nodes = (
"16 440 OFFCURVE",
"23 442 OFFCURVE",
"33 446 CURVE SMOOTH",
"61 456 OFFCURVE",
"140 504 OFFCURVE",
"140 516 CURVE",
"142 523 OFFCURVE",
"127 541 OFFCURVE",
"120 541 CURVE SMOOTH",
"116 541 OFFCURVE",
"114 541 OFFCURVE",
"106 534 CURVE SMOOTH",
"99 529 OFFCURVE",
"30 471 OFFCURVE",
"17 462 CURVE SMOOTH",
"10 457 OFFCURVE",
"6 452 OFFCURVE",
"6 448 CURVE SMOOTH",
"6 442 OFFCURVE",
"8 440 OFFCURVE",
"11 440 CURVE SMOOTH"
);
}
);
};
layerId = "FC6CF40E-48D1-4025-95B5-EAE50260AD89";
paths = (
{
closed = 1;
nodes = (
"9 440 OFFCURVE",
"16 442 OFFCURVE",
"27 446 CURVE SMOOTH",
"56 456 OFFCURVE",
"142 504 OFFCURVE",
"144 516 CURVE",
"147 523 OFFCURVE",
"134 541 OFFCURVE",
"127 541 CURVE SMOOTH",
"123 541 OFFCURVE",
"121 541 OFFCURVE",
"112 534 CURVE SMOOTH",
"104 529 OFFCURVE",
"27 471 OFFCURVE",
"13 462 CURVE SMOOTH",
"5 457 OFFCURVE",
"1 452 OFFCURVE",
"0 448 CURVE SMOOTH",
"-1 442 OFFCURVE",
"1 440 OFFCURVE",
"4 440 CURVE SMOOTH"
);
}
);
width = 144;
}
);
note = acutecomb;
unicode = 0301;
},
{
color = 6;
glyphname = hungarumlautcomb;
lastChange = "2021-08-31 12:20:37 +0000";
layers = (
{
anchors = (
{
name = _top;
position = "{36, 400}";
},
{
name = top;
position = "{83, 563}";
}
);
layerId = "FC6CF40E-48D1-4025-95B5-EAE50260AD89";
paths = (
{
closed = 1;
nodes = (
"13 442 OFFCURVE",
"18 447 OFFCURVE",
"23 455 CURVE",
"39 475 OFFCURVE",
"77 546 OFFCURVE",
"70 555 CURVE",
"69 560 OFFCURVE",
"53 563 OFFCURVE",
"45 563 CURVE SMOOTH",
"43 563 OFFCURVE",
"40 563 OFFCURVE",
"39 562 CURVE",
"35 560 OFFCURVE",
"35 559 OFFCURVE",
"32 551 CURVE SMOOTH",
"29 544 OFFCURVE",
"7 471 OFFCURVE",
"3 458 CURVE",
"1 454 OFFCURVE",
"0 451 OFFCURVE",
"0 448 CURVE SMOOTH",
"0 446 OFFCURVE",
"1 444 OFFCURVE",
"2 443 CURVE SMOOTH",
"5 439 OFFCURVE",
"7 439 OFFCURVE",
"9 440 CURVE SMOOTH"
);
},
{
closed = 1;
nodes = (
"86 442 OFFCURVE",
"91 447 OFFCURVE",
"96 455 CURVE",
"112 475 OFFCURVE",
"147 546 OFFCURVE",
"140 555 CURVE",
"139 560 OFFCURVE",
"126 563 OFFCURVE",
"118 563 CURVE SMOOTH",
"116 563 OFFCURVE",
"113 563 OFFCURVE",
"112 562 CURVE",
"108 560 OFFCURVE",
"108 559 OFFCURVE",
"105 551 CURVE SMOOTH",
"102 544 OFFCURVE",
"80 471 OFFCURVE",
"76 458 CURVE",
"74 454 OFFCURVE",
"73 451 OFFCURVE",
"73 448 CURVE SMOOTH",
"73 446 OFFCURVE",
"74 444 OFFCURVE",
"75 443 CURVE SMOOTH",
"78 439 OFFCURVE",
"80 439 OFFCURVE",
"82 440 CURVE SMOOTH"
);
}
);
width = 141;
}
);
unicode = 030B;
},
{
color = 6;
glyphname = caroncomb.alt;
lastChange = "2021-08-31 12:20:37 +0000";
layers = (
{
anchors = (
{
name = _topright;
position = "{-20, 400}";
}
);
layerId = "FC6CF40E-48D1-4025-95B5-EAE50260AD89";
paths = (
{
closed = 1;
nodes = (
"10 242 OFFCURVE",
"18 245 OFFCURVE",
"29 254 CURVE SMOOTH",
"60 279 OFFCURVE",
"93 334 OFFCURVE",
"93 384 CURVE SMOOTH",
"93 387 OFFCURVE",
"92 389 OFFCURVE",
"90 390 CURVE SMOOTH",
"79 393 OFFCURVE",
"68 400 OFFCURVE",
"60 400 CURVE SMOOTH",
"45 400 OFFCURVE",
"36 298 OFFCURVE",
"6 256 CURVE SMOOTH",
"3 251 OFFCURVE",
"0 248 OFFCURVE",
"0 246 CURVE SMOOTH",
"0 244 OFFCURVE",
"2 242 OFFCURVE",
"5 242 CURVE SMOOTH"
);
}
);
width = 93;
}
);
},
{
color = 6;
glyphname = circumflexcomb;
lastChange = "2021-09-01 00:46:40 +0000";
layers = (
{
anchors = (
{
name = _top;
position = "{114, 400}";
},
{
name = top;
position = "{82, 504}";
},
{
name = topviet;
position = "{152, 419}";
}
);
background = {
paths = (
{
closed = 1;
nodes = (
"9 435 OFFCURVE",
"17 437 OFFCURVE",
"27 441 CURVE SMOOTH",
"47 448 OFFCURVE",
"91 472 OFFCURVE",
"118 490 CURVE",
"142 472 OFFCURVE",
"182 448 OFFCURVE",
"200 441 CURVE SMOOTH",
"210 437 OFFCURVE",
"216 435 OFFCURVE",
"221 435 CURVE SMOOTH",
"224 435 OFFCURVE",
"227 437 OFFCURVE",
"227 443 CURVE",
"228 447 OFFCURVE",
"224 452 OFFCURVE",
"218 457 CURVE SMOOTH",
"206 466 OFFCURVE",
"145 521 OFFCURVE",
"136 529 CURVE SMOOTH",
"134 531 OFFCURVE",
"129 536 OFFCURVE",
"124 536 CURVE SMOOTH",
"119 536 OFFCURVE",
"114 532 OFFCURVE",
"109 529 CURVE SMOOTH",
"99 522 OFFCURVE",
"27 466 OFFCURVE",
"13 457 CURVE SMOOTH",
"5 452 OFFCURVE",
"1 447 OFFCURVE",
"0 443 CURVE",
"0 437 OFFCURVE",
"1 435 OFFCURVE",
"4 435 CURVE SMOOTH"
);
}
);
};
layerId = "FC6CF40E-48D1-4025-95B5-EAE50260AD89";
paths = (
{
closed = 1;
nodes = (
"-5 435 OFFCURVE",
"3 437 OFFCURVE",
"15 441 CURVE SMOOTH",
"37 448 OFFCURVE",
"87 472 OFFCURVE",
"119 490 CURVE",
"138 472 OFFCURVE",
"172 448 OFFCURVE",
"188 441 CURVE SMOOTH",
"196 437 OFFCURVE",
"202 435 OFFCURVE",
"207 435 CURVE SMOOTH",
"210 435 OFFCURVE",
"213 437 OFFCURVE",
"215 443 CURVE",
"217 447 OFFCURVE",
"215 452 OFFCURVE",
"210 457 CURVE SMOOTH",
"201 466 OFFCURVE",
"155 521 OFFCURVE",
"148 529 CURVE SMOOTH",
"147 531 OFFCURVE",
"143 536 OFFCURVE",
"138 536 CURVE SMOOTH",
"133 536 OFFCURVE",
"127 532 OFFCURVE",
"121 529 CURVE SMOOTH",
"109 522 OFFCURVE",
"22 466 OFFCURVE",
"5 457 CURVE SMOOTH",
"-4 452 OFFCURVE",
"-10 447 OFFCURVE",
"-12 443 CURVE",
"-14 437 OFFCURVE",
"-13 435 OFFCURVE",
"-10 435 CURVE SMOOTH"
);
}
);
width = 227;
}
);
unicode = 0302;
},
{
color = 6;
glyphname = brevecomb;
lastChange = "2021-09-01 00:47:19 +0000";
layers = (
{
anchors = (
{
name = _top;
position = "{74, 400}";
},
{
name = top;
position = "{97, 492}";
}
);
background = {
paths = (
{
closed = 1;
nodes = (
"128 434 OFFCURVE",
"178 477 OFFCURVE",
"178 521 CURVE SMOOTH",
"178 525 OFFCURVE",
"177 528 OFFCURVE",
"176 528 CURVE SMOOTH",
"175 528 OFFCURVE",
"174 528 OFFCURVE",
"173 527 CURVE SMOOTH",
"161 517 OFFCURVE",
"134 473 OFFCURVE",
"82 473 CURVE SMOOTH",
"24 473 OFFCURVE",
"18 527 OFFCURVE",
"4 527 CURVE SMOOTH",
"0 527 OFFCURVE",
"-2 519 OFFCURVE",
"-2 507 CURVE SMOOTH",
"-2 465 OFFCURVE",
"33 434 OFFCURVE",
"76 434 CURVE SMOOTH"
);
}
);
};
layerId = "FC6CF40E-48D1-4025-95B5-EAE50260AD89";
paths = (
{
closed = 1;
nodes = (
"125 434 OFFCURVE",
"178 477 OFFCURVE",
"181 521 CURVE SMOOTH",
"181 525 OFFCURVE",
"180 528 OFFCURVE",
"179 528 CURVE SMOOTH",
"178 528 OFFCURVE",
"177 528 OFFCURVE",
"176 527 CURVE SMOOTH",
"164 517 OFFCURVE",
"133 473 OFFCURVE",
"81 473 CURVE SMOOTH",
"23 473 OFFCURVE",
"21 527 OFFCURVE",
"7 527 CURVE SMOOTH",
"3 527 OFFCURVE",
"1 519 OFFCURVE",
"0 507 CURVE SMOOTH",
"-3 465 OFFCURVE",
"30 434 OFFCURVE",
"73 434 CURVE SMOOTH"
);
}
);
width = 181;
}
);
unicode = 0306;
},
{
color = 6;
glyphname = ringcomb;
lastChange = "2021-08-31 12:20:37 +0000";
layers = (
{
anchors = (
{
name = _top;
position = "{48, 400}";
},
{
name = top;
position = "{81, 545}";
}
);
layerId = "FC6CF40E-48D1-4025-95B5-EAE50260AD89";
paths = (
{
closed = 1;
nodes = (
"111 447 OFFCURVE",
"150 474 OFFCURVE",
"150 517 CURVE SMOOTH",
"150 541 OFFCURVE",
"123 564 OFFCURVE",
"86 564 CURVE SMOOTH",
"37 564 OFFCURVE",
"-3 534 OFFCURVE",
"-3 491 CURVE SMOOTH",
"-3 467 OFFCURVE",
"22 447 OFFCURVE",
"58 447 CURVE SMOOTH"
);
},
{
closed = 1;
nodes = (
"49 467 OFFCURVE",
"39 481 OFFCURVE",
"39 498 CURVE SMOOTH",
"39 520 OFFCURVE",
"56 545 OFFCURVE",
"81 545 CURVE SMOOTH",
"100 545 OFFCURVE",
"109 529 OFFCURVE",
"109 511 CURVE SMOOTH",
"109 491 OFFCURVE",
"96 467 OFFCURVE",
"69 467 CURVE SMOOTH"
);
}
);
width = 147;
}
);
unicode = 030A;
},
{
color = 6;
glyphname = tildecomb;
lastChange = "2021-09-01 00:48:46 +0000";
layers = (
{
anchors = (
{
name = _top;
position = "{97, 400}";
},
{
name = _topviet;
position = "{116, 314}";
},
{
name = top;
position = "{97, 490}";
}
);
background = {
paths = (
{
closed = 1;
nodes = (
"177 451 OFFCURVE",
"198 489 OFFCURVE",
"198 509 CURVE SMOOTH",
"198 511 OFFCURVE",
"194 512 OFFCURVE",
"191 512 CURVE",
"182 500 OFFCURVE",
"169 491 OFFCURVE",
"154 491 CURVE SMOOTH",
"121 491 OFFCURVE",
"93 517 OFFCURVE",
"59 517 CURVE SMOOTH",
"18 517 OFFCURVE",
"-4 487 OFFCURVE",
"-4 459 CURVE SMOOTH",
"-4 457 OFFCURVE",
"-1 456 OFFCURVE",
"1 456 CURVE",
"5 461 OFFCURVE",
"12 482 OFFCURVE",
"39 482 CURVE SMOOTH",
"72 482 OFFCURVE",
"102 451 OFFCURVE",
"136 451 CURVE SMOOTH"
);
}
);
};
layerId = "FC6CF40E-48D1-4025-95B5-EAE50260AD89";
paths = (
{
closed = 1;
nodes = (
"173 451 OFFCURVE",
"195 489 OFFCURVE",
"197 509 CURVE SMOOTH",
"197 511 OFFCURVE",
"193 512 OFFCURVE",
"190 512 CURVE",
"180 500 OFFCURVE",
"168 491 OFFCURVE",
"154 491 CURVE SMOOTH",
"123 491 OFFCURVE",
"98 517 OFFCURVE",
"66 517 CURVE SMOOTH",
"26 517 OFFCURVE",
"2 487 OFFCURVE",
"0 459 CURVE SMOOTH",
"0 457 OFFCURVE",
"3 456 OFFCURVE",
"5 456 CURVE",
"10 461 OFFCURVE",
"18 482 OFFCURVE",
"44 482 CURVE SMOOTH",
"75 482 OFFCURVE",
"101 451 OFFCURVE",
"134 451 CURVE SMOOTH"
);
}
);
width = 197;
}
);
note = tildecomb;
unicode = 0303;
},
{
color = 6;
glyphname = macroncomb;
lastChange = "2021-08-31 12:20:37 +0000";
layers = (
{
anchors = (
{
name = _top;
position = "{91, 400}";
},
{
name = top;
position = "{91, 486}";
}
);
layerId = "FC6CF40E-48D1-4025-95B5-EAE50260AD89";
paths = (
{
closed = 1;
nodes = (
"52 454 OFFCURVE",
"136 455 OFFCURVE",
"173 460 CURVE SMOOTH",
"185 462 OFFCURVE",
"191 466 OFFCURVE",
"191 472 CURVE SMOOTH",
"191 476 OFFCURVE",
"183 481 OFFCURVE",
"162 483 CURVE SMOOTH",
"144 485 OFFCURVE",
"72 486 OFFCURVE",
"49 486 CURVE SMOOTH",
"29 486 OFFCURVE",
"-10 484 OFFCURVE",
"-10 460 CURVE SMOOTH",
"-10 454 OFFCURVE",
"6 454 OFFCURVE",
"8 454 CURVE SMOOTH"
);
}
);
width = 181;
}
);
unicode = 0304;
},
{
color = 6;
glyphname = hookabovecomb;
lastChange = "2021-09-01 00:49:12 +0000";
layers = (
{
anchors = (
{
name = _top;
position = "{31, 400}";
},
{
name = _topviet;
position = "{-33, 361}";
},
{
name = top;
position = "{60, 571}";
}
);
background = {
paths = (
{
closed = 1;
nodes = (
"50 440 OFFCURVE",
"53 441 OFFCURVE",
"55 442 CURVE SMOOTH",
"76 456 OFFCURVE",
"120 484 OFFCURVE",
"120 531 CURVE SMOOTH",
"120 557 OFFCURVE",
"92 571 OFFCURVE",
"67 571 CURVE SMOOTH",
"51 571 OFFCURVE",
"19 566 OFFCURVE",
"3 550 CURVE SMOOTH",
"-3 544 OFFCURVE",
"2 539 OFFCURVE",
"5 539 CURVE SMOOTH",
"7 539 OFFCURVE",
"22 546 OFFCURVE",
"46 546 CURVE SMOOTH",
"64 546 OFFCURVE",
"78 535 OFFCURVE",
"78 516 CURVE SMOOTH",
"78 493 OFFCURVE",
"59 466 OFFCURVE",
"44 451 CURVE SMOOTH",
"39 446 OFFCURVE",
"42 440 OFFCURVE",
"48 440 CURVE SMOOTH"
);
}
);
};
layerId = "FC6CF40E-48D1-4025-95B5-EAE50260AD89";
paths = (
{
closed = 1;
nodes = (
"41 440 OFFCURVE",
"44 441 OFFCURVE",
"46 442 CURVE SMOOTH",
"69 456 OFFCURVE",
"117 484 OFFCURVE",
"124 531 CURVE SMOOTH",
"127 557 OFFCURVE",
"101 571 OFFCURVE",
"76 571 CURVE SMOOTH",
"60 571 OFFCURVE",
"27 566 OFFCURVE",
"9 550 CURVE SMOOTH",
"2 544 OFFCURVE",
"7 539 OFFCURVE",
"10 539 CURVE SMOOTH",
"12 539 OFFCURVE",
"28 546 OFFCURVE",
"52 546 CURVE SMOOTH",
"70 546 OFFCURVE",
"82 535 OFFCURVE",
"79 516 CURVE SMOOTH",
"76 493 OFFCURVE",
"53 466 OFFCURVE",
"36 451 CURVE SMOOTH",
"31 446 OFFCURVE",
"33 440 OFFCURVE",
"39 440 CURVE SMOOTH"
);
}
);
width = 120;
}
);
note = hookabovecomb;
unicode = 0309;
},
{
color = 6;
glyphname = dblgravecomb;
lastChange = "2021-08-31 12:20:37 +0000";
layers = (
{
anchors = (
{
name = _top;
position = "{164, 400}";
},
{
name = top;
position = "{101, 564}";
}
);
layerId = "FC6CF40E-48D1-4025-95B5-EAE50260AD89";
paths = (
{
closed = 1;
nodes = (
"125 445 OFFCURVE",
"127 446 OFFCURVE",
"127 452 CURVE",
"128 456 OFFCURVE",
"124 462 OFFCURVE",
"118 467 CURVE SMOOTH",
"105 477 OFFCURVE",
"42 541 OFFCURVE",
"35 547 CURVE SMOOTH",
"28 554 OFFCURVE",
"26 555 OFFCURVE",
"22 555 CURVE SMOOTH",
"15 556 OFFCURVE",
"-2 539 OFFCURVE",
"0 532 CURVE",
"-1 520 OFFCURVE",
"73 465 OFFCURVE",
"100 453 CURVE SMOOTH",
"110 448 OFFCURVE",
"117 445 OFFCURVE",
"122 445 CURVE SMOOTH"
);
},
{
closed = 1;
nodes = (
"198 447 OFFCURVE",
"202 448 OFFCURVE",
"202 454 CURVE",
"205 457 OFFCURVE",
"201 463 OFFCURVE",
"195 469 CURVE SMOOTH",
"185 479 OFFCURVE",
"132 549 OFFCURVE",
"126 556 CURVE SMOOTH",
"121 563 OFFCURVE",
"119 564 OFFCURVE",
"115 564 CURVE",
"108 567 OFFCURVE",
"86 554 OFFCURVE",
"88 546 CURVE",
"85 536 OFFCURVE",
"150 474 OFFCURVE",
"174 458 CURVE SMOOTH",
"183 452 OFFCURVE",
"190 449 OFFCURVE",
"195 448 CURVE SMOOTH"
);
}
);
width = 203;
}
);
unicode = 030F;
},
{
color = 6;
glyphname = commaturnedabovecomb;
lastChange = "2021-08-31 12:20:37 +0000";
layers = (
{
anchors = (
{
name = _top;
position = "{12, 400}";
},
{
name = top;
position = "{51, 557}";
}
);
layerId = "FC6CF40E-48D1-4025-95B5-EAE50260AD89";
paths = (
{
closed = 1;
nodes = (
"63 440 OFFCURVE",
"51 487 OFFCURVE",
"97 546 CURVE SMOOTH",
"100 549 OFFCURVE",
"102 552 OFFCURVE",
"102 553 CURVE SMOOTH",
"102 555 OFFCURVE",
"100 557 OFFCURVE",
"97 557 CURVE SMOOTH",
"78 558 OFFCURVE",
"3 482 OFFCURVE",
"0 453 CURVE SMOOTH",
"0 447 OFFCURVE",
"3 445 OFFCURVE",
"12 442 CURVE SMOOTH",
"18 441 OFFCURVE",
"24 440 OFFCURVE",
"28 440 CURVE SMOOTH"
);
}
);
width = 102;
}
);
unicode = 0312;
},
{
color = 6;
glyphname = horncomb;
lastChange = "2021-08-31 12:20:37 +0000";
layers = (
{
anchors = (
{
name = _topright;
position = "{-20, 400}";
},
{
name = topright;
position = "{117, 456}";
}
);
layerId = "FC6CF40E-48D1-4025-95B5-EAE50260AD89";
paths = (
{
closed = 1;
nodes = (
"85 366 OFFCURVE",
"107 402 OFFCURVE",
"107 426 CURVE SMOOTH",
"107 445 OFFCURVE",
"97 476 OFFCURVE",
"71 476 CURVE SMOOTH",
"62 476 OFFCURVE",
"60 468 OFFCURVE",
"60 461 CURVE SMOOTH",
"60 455 OFFCURVE",
"65 439 OFFCURVE",
"65 430 CURVE SMOOTH",
"65 417 OFFCURVE",
"60 388 OFFCURVE",
"25 388 CURVE SMOOTH",
"14 388 OFFCURVE",
"5 391 OFFCURVE",
"2 394 CURVE",
"0 390 OFFCURVE",
"0 382 OFFCURVE",
"0 380 CURVE SMOOTH",
"0 373 OFFCURVE",
"20 366 OFFCURVE",
"33 366 CURVE SMOOTH"
);
}
);
width = 97;
}
);
unicode = 031B;
},
{
color = 6;
glyphname = dotbelowcomb;
lastChange = "2021-08-31 12:20:37 +0000";
layers = (
{
anchors = (
{
name = _bottom;
position = "{37, 0}";
},
{
name = bottom;
position = "{37, -122}";
}
);
layerId = "FC6CF40E-48D1-4025-95B5-EAE50260AD89";
paths = (
{
closed = 1;
nodes = (
"51 -122 OFFCURVE",
"48 -90 OFFCURVE",
"68 -74 CURVE SMOOTH",
"71 -72 OFFCURVE",
"73 -69 OFFCURVE",
"73 -67 CURVE SMOOTH",
"73 -62 OFFCURVE",
"67 -60 OFFCURVE",
"58 -60 CURVE SMOOTH",
"23 -60 OFFCURVE",
"0 -87 OFFCURVE",
"0 -100 CURVE SMOOTH",
"0 -105 OFFCURVE",
"3 -111 OFFCURVE",
"8 -114 CURVE SMOOTH",
"16 -119 OFFCURVE",
"24 -122 OFFCURVE",
"31 -122 CURVE SMOOTH"
);
}
);
width = 73;
}
);
note = dotbelowcomb;
unicode = 0323;
},
{
color = 6;
glyphname = commaaccentcomb;
lastChange = "2021-08-31 12:20:37 +0000";
layers = (
{
anchors = (
{
name = _bottom;
position = "{98, 0}";
},
{
name = bottom;
position = "{51, -211}";
}
);
layerId = "FC6CF40E-48D1-4025-95B5-EAE50260AD89";
paths = (
{
closed = 1;
nodes = (
"27 -211 OFFCURVE",
"101 -111 OFFCURVE",
"101 -75 CURVE SMOOTH",
"101 -68 OFFCURVE",
"98 -64 OFFCURVE",
"88 -62 CURVE SMOOTH",
"83 -61 OFFCURVE",
"78 -60 OFFCURVE",
"73 -60 CURVE SMOOTH",
"33 -60 OFFCURVE",
"51 -120 OFFCURVE",
"5 -197 CURVE SMOOTH",
"2 -202 OFFCURVE",
"0 -206 OFFCURVE",
"0 -207 CURVE SMOOTH",
"0 -210 OFFCURVE",
"3 -211 OFFCURVE",
"5 -211 CURVE SMOOTH"
);
}
);
width = 101;
}
);
unicode = 0326;
},
{
color = 6;
glyphname = cedillacomb;
lastChange = "2021-08-31 12:20:37 +0000";
layers = (
{
anchors = (
{
name = _bottom;
position = "{104, 0}";
},
{
name = bottom;
position = "{78, -205}";
}
);
layerId = "FC6CF40E-48D1-4025-95B5-EAE50260AD89";
paths = (
{
closed = 1;
nodes = (
"80 -205 OFFCURVE",
"143 -180 OFFCURVE",
"153 -131 CURVE SMOOTH",
"157 -109 OFFCURVE",
"143 -93 OFFCURVE",
"129 -80 CURVE SMOOTH",
"115 -65 OFFCURVE",
"101 -53 OFFCURVE",
"105 -33 CURVE SMOOTH",
"108 -21 OFFCURVE",
"127 -1 OFFCURVE",
"156 2 CURVE",
"155 8 OFFCURVE",
"147 8 OFFCURVE",
"142 8 CURVE SMOOTH",
"98 8 OFFCURVE",
"74 -15 OFFCURVE",
"67 -48 CURVE SMOOTH",
"63 -65 OFFCURVE",
"74 -81 OFFCURVE",
"86 -96 CURVE SMOOTH",
"97 -110 OFFCURVE",
"108 -124 OFFCURVE",
"108 -141 CURVE SMOOTH",
"108 -172 OFFCURVE",
"72 -185 OFFCURVE",
"37 -185 CURVE SMOOTH",
"26 -185 OFFCURVE",
"15 -183 OFFCURVE",
"5 -181 CURVE SMOOTH",
"2 -180 OFFCURVE",
"0 -184 OFFCURVE",
"0 -189 CURVE SMOOTH",
"0 -195 OFFCURVE",
"2 -201 OFFCURVE",
"5 -202 CURVE SMOOTH",
"13 -204 OFFCURVE",
"22 -205 OFFCURVE",
"32 -205 CURVE SMOOTH"
);
}
);
width = 156;
}
);
unicode = 0327;
},
{
color = 6;
glyphname = ogonekcomb;
lastChange = "2021-08-31 12:20:37 +0000";
layers = (
{
anchors = (
{
name = _ogonek;
position = "{174, -6}";
}
);
layerId = "FC6CF40E-48D1-4025-95B5-EAE50260AD89";
paths = (
{
closed = 1;
nodes = (
"79 -175 OFFCURVE",
"103 -170 OFFCURVE",
"130 -161 CURVE SMOOTH",
"160 -150 OFFCURVE",
"181 -124 OFFCURVE",
"171 -124 CURVE SMOOTH",
"170 -124 OFFCURVE",
"167 -125 OFFCURVE",
"163 -127 CURVE SMOOTH",
"152 -132 OFFCURVE",
"141 -138 OFFCURVE",
"128 -143 CURVE SMOOTH",
"115 -147 OFFCURVE",
"103 -151 OFFCURVE",
"89 -151 CURVE SMOOTH",
"63 -151 OFFCURVE",
"49 -135 OFFCURVE",
"49 -111 CURVE SMOOTH",
"49 -106 OFFCURVE",
"50 -101 OFFCURVE",
"51 -95 CURVE SMOOTH",
"56 -67 OFFCURVE",
"80 -29 OFFCURVE",
"99 -7 CURVE",
"91 -6 LINE",
"64 -6 OFFCURVE",
"9 -75 OFFCURVE",
"1 -116 CURVE SMOOTH",
"0 -121 OFFCURVE",
"0 -125 OFFCURVE",
"0 -129 CURVE SMOOTH",
"0 -159 OFFCURVE",
"23 -175 OFFCURVE",
"59 -175 CURVE SMOOTH"
);
}
);
width = 174;
}
);
unicode = 0328;
},
{
color = 6;
glyphname = macronbelowcomb;
lastChange = "2021-08-31 12:20:37 +0000";
layers = (
{
anchors = (
{
name = _bottom;
position = "{91, 0}";
},
{
name = bottom;
position = "{91, -108}";
}
);
layerId = "FC6CF40E-48D1-4025-95B5-EAE50260AD89";
paths = (
{
closed = 1;
nodes = (
"62 -108 OFFCURVE",
"126 -107 OFFCURVE",
"163 -102 CURVE SMOOTH",
"175 -100 OFFCURVE",
"181 -96 OFFCURVE",
"181 -90 CURVE SMOOTH",
"181 -86 OFFCURVE",
"173 -81 OFFCURVE",
"152 -79 CURVE SMOOTH",
"134 -77 OFFCURVE",
"82 -76 OFFCURVE",
"59 -76 CURVE SMOOTH",
"39 -76 OFFCURVE",
"0 -78 OFFCURVE",
"0 -102 CURVE SMOOTH",
"0 -108 OFFCURVE",
"16 -108 OFFCURVE",
"18 -108 CURVE SMOOTH"
);
}
);
width = 181;
}
);
unicode = 0331;
},
{
color = 6;
glyphname = strokeshortcomb;
lastChange = "2021-08-31 12:20:37 +0000";
layers = (
{
anchors = (
{
name = _center;
position = "{108, 207}";
}
);
layerId = "FC6CF40E-48D1-4025-95B5-EAE50260AD89";
paths = (
{
closed = 1;
nodes = (
"74 191 OFFCURVE",
"151 192 OFFCURVE",
"195 197 CURVE SMOOTH",
"209 199 OFFCURVE",
"216 203 OFFCURVE",
"216 209 CURVE SMOOTH",
"216 213 OFFCURVE",
"207 218 OFFCURVE",
"182 220 CURVE SMOOTH",
"160 222 OFFCURVE",
"98 223 OFFCURVE",
"71 223 CURVE SMOOTH",
"47 223 OFFCURVE",
"0 221 OFFCURVE",
"0 197 CURVE SMOOTH",
"0 191 OFFCURVE",
"19 191 OFFCURVE",
"22 191 CURVE SMOOTH"
);
}
);
width = 216;
}
);
unicode = 0335;
},
{
glyphname = AE;
lastChange = "2021-08-31 12:20:37 +0000";
layers = (
{
anchors = (
{
name = bottom;
position = "{436, 0}";
},
{
name = top;
position = "{552, 750}";
}
);
layerId = "FC6CF40E-48D1-4025-95B5-EAE50260AD89";
paths = (
{
closed = 1;
nodes = (
"808 -108 OFFCURVE",
"897 -40 OFFCURVE",
"897 -27 CURVE SMOOTH",
"897 -24 OFFCURVE",
"894 -22 OFFCURVE",
"888 -21 CURVE",
"868 -35 OFFCURVE",
"803 -45 OFFCURVE",
"728 -45 CURVE SMOOTH",
"576 -45 OFFCURVE",
"405 -11 OFFCURVE",
"405 85 CURVE SMOOTH",
"405 175 OFFCURVE",
"527 251 OFFCURVE",
"652 306 CURVE",
"710 306 OFFCURVE",
"816 321 OFFCURVE",
"816 364 CURVE SMOOTH",
"816 385 OFFCURVE",
"802 408 OFFCURVE",
"780 408 CURVE SMOOTH",
"766 408 OFFCURVE",
"641 360 OFFCURVE",
"606 341 CURVE",
"520 382 OFFCURVE",
"450 451 OFFCURVE",
"450 513 CURVE SMOOTH",
"450 568 OFFCURVE",
"493 617 OFFCURVE",
"622 660 CURVE SMOOTH",
"716 691 OFFCURVE",
"776 702 OFFCURVE",
"864 702 CURVE SMOOTH",
"890 702 OFFCURVE",
"919 702 OFFCURVE",
"952 700 CURVE",
"811 597 OFFCURVE",
"507 618 OFFCURVE",
"507 597 CURVE SMOOTH",
"507 593 OFFCURVE",
"513 589 OFFCURVE",
"542 589 CURVE SMOOTH",
"627 589 OFFCURVE",
"947 610 OFFCURVE",
"995 677 CURVE",
"995 681 LINE SMOOTH",
"995 697 OFFCURVE",
"981 751 OFFCURVE",
"963 756 CURVE SMOOTH",
"939 763 OFFCURVE",
"906 765 OFFCURVE",
"870 765 CURVE SMOOTH",
"695 765 OFFCURVE",
"419 682 OFFCURVE",
"419 538 CURVE SMOOTH",
"419 463 OFFCURVE",
"486 380 OFFCURVE",
"586 328 CURVE",
"499 276 OFFCURVE",
"442 203 OFFCURVE",
"384 133 CURVE",
"378 166 LINE SMOOTH",
"362 255 OFFCURVE",
"354 364 OFFCURVE",
"354 473 CURVE",
"402 562 OFFCURVE",
"422 629 OFFCURVE",
"422 680 CURVE SMOOTH",
"422 745 OFFCURVE",
"390 783 OFFCURVE",
"349 803 CURVE",
"348 803 OFFCURVE",
"347 804 OFFCURVE",
"346 804 CURVE SMOOTH",
"345 804 OFFCURVE",
"343 804 OFFCURVE",
"342 803 CURVE",
"328 809 OFFCURVE",
"310 812 OFFCURVE",
"297 812 CURVE SMOOTH",
"273 812 OFFCURVE",
"276 790 OFFCURVE",
"272 758 CURVE SMOOTH",
"271 751 OFFCURVE",
"271 739 OFFCURVE",
"271 723 CURVE SMOOTH",
"271 663 OFFCURVE",
"277 546 OFFCURVE",
"293 417 CURVE",
"245 344 OFFCURVE",
"191 267 OFFCURVE",
"136 193 CURVE",
"97 208 OFFCURVE",
"59 220 OFFCURVE",
"24 220 CURVE SMOOTH",
"10 220 OFFCURVE",
"-3 220 OFFCURVE",
"-3 206 CURVE SMOOTH",
"-3 173 OFFCURVE",
"37 151 OFFCURVE",
"92 134 CURVE",
"29 52 OFFCURVE",
"-33 -23 OFFCURVE",
"-87 -82 CURVE SMOOTH",
"-89 -84 OFFCURVE",
"-90 -86 OFFCURVE",
"-90 -87 CURVE SMOOTH",
"-90 -89 OFFCURVE",
"-88 -90 OFFCURVE",
"-85 -90 CURVE SMOOTH",
"-46 -90 OFFCURVE",
"29 -2 OFFCURVE",
"123 126 CURVE",
"210 105 OFFCURVE",
"313 99 OFFCURVE",
"309 100 CURVE",
"312 99 OFFCURVE",
"324 93 OFFCURVE",
"341 76 CURVE",
"335 64 OFFCURVE",
"333 53 OFFCURVE",
"333 43 CURVE SMOOTH",
"333 -58 OFFCURVE",
"570 -108 OFFCURVE",
"694 -108 CURVE SMOOTH"
);
},
{
closed = 1;
nodes = (
"288 125 OFFCURVE",
"224 156 OFFCURVE",
"163 182 CURVE",
"205 243 OFFCURVE",
"251 310 OFFCURVE",
"298 381 CURVE",
"310 291 OFFCURVE",
"327 198 OFFCURVE",
"350 116 CURVE"
);
},
{
closed = 1;
nodes = (
"354 603 OFFCURVE",
"359 686 OFFCURVE",
"365 759 CURVE",
"388 741 OFFCURVE",
"405 716 OFFCURVE",
"405 676 CURVE SMOOTH",
"405 638 OFFCURVE",
"391 589 OFFCURVE",
"354 519 CURVE"
);
}
);
width = 871;
}
);
note = AE;
unicode = 00C6;
},
{
glyphname = Eth;
lastChange = "2021-08-31 12:20:37 +0000";
layers = (
{
layerId = "FC6CF40E-48D1-4025-95B5-EAE50260AD89";
paths = (
{
closed = 1;
nodes = (
"242 -133 OFFCURVE",
"411 -63 OFFCURVE",
"515 37 CURVE SMOOTH",
"557 77 OFFCURVE",
"589 120 OFFCURVE",
"613 162 CURVE",
"646 176 LINE SMOOTH",
"664 183 OFFCURVE",
"697 206 OFFCURVE",
"697 211 CURVE SMOOTH",
"697 212 OFFCURVE",
"696 213 OFFCURVE",
"694 213 CURVE SMOOTH",
"684 213 OFFCURVE",
"675 203 OFFCURVE",
"627 189 CURVE",
"649 236 OFFCURVE",
"659 283 OFFCURVE",
"659 328 CURVE SMOOTH",
"659 521 OFFCURVE",
"475 683 OFFCURVE",
"275 716 CURVE",
"274 733 OFFCURVE",
"270 747 OFFCURVE",
"262 747 CURVE SMOOTH",
"257 747 OFFCURVE",
"251 743 OFFCURVE",
"244 731 CURVE SMOOTH",
"242 728 OFFCURVE",
"240 725 OFFCURVE",
"238 720 CURVE",
"226 721 OFFCURVE",
"214 722 OFFCURVE",
"202 722 CURVE SMOOTH",
"166 722 OFFCURVE",
"130 717 OFFCURVE",
"96 708 CURVE SMOOTH",
"42 695 OFFCURVE",
"-5 673 OFFCURVE",
"-5 661 CURVE SMOOTH",
"-5 659 OFFCURVE",
"-3 656 OFFCURVE",
"2 655 CURVE",
"25 662 OFFCURVE",
"76 671 OFFCURVE",
"133 671 CURVE SMOOTH",
"160 671 OFFCURVE",
"187 668 OFFCURVE",
"214 664 CURVE",
"179 571 OFFCURVE",
"124 401 OFFCURVE",
"97 238 CURVE",
"69 239 OFFCURVE",
"44 242 OFFCURVE",
"29 251 CURVE",
"27 251 LINE SMOOTH",
"14 251 OFFCURVE",
"-1 217 OFFCURVE",
"-1 203 CURVE SMOOTH",
"-1 199 OFFCURVE",
"0 197 OFFCURVE",
"2 197 CURVE SMOOTH",
"4 197 LINE SMOOTH",
"8 196 OFFCURVE",
"16 196 OFFCURVE",
"27 196 CURVE SMOOTH",
"43 196 OFFCURVE",
"66 196 OFFCURVE",
"91 198 CURVE",
"84 150 OFFCURVE",
"80 102 OFFCURVE",
"80 59 CURVE SMOOTH",
"80 11 OFFCURVE",
"90 -51 OFFCURVE",
"114 -51 CURVE SMOOTH",
"115 -51 OFFCURVE",
"115 -51 OFFCURVE",
"115 -50 CURVE SMOOTH",
"111 -23 OFFCURVE",
"108 3 OFFCURVE",
"108 44 CURVE SMOOTH",
"108 90 OFFCURVE",
"112 144 OFFCURVE",
"121 201 CURVE",
"161 205 OFFCURVE",
"200 212 OFFCURVE",
"215 220 CURVE SMOOTH",
"218 222 OFFCURVE",
"226 239 OFFCURVE",
"226 245 CURVE SMOOTH",
"226 246 OFFCURVE",
"226 247 OFFCURVE",
"225 247 CURVE SMOOTH",
"210 245 OFFCURVE",
"169 239 OFFCURVE",
"127 238 CURVE",
"152 380 OFFCURVE",
"200 537 OFFCURVE",
"263 653 CURVE",
"434 608 OFFCURVE",
"580 478 OFFCURVE",
"580 301 CURVE SMOOTH",
"580 253 OFFCURVE",
"568 204 OFFCURVE",
"541 157 CURVE",
"332 77 LINE SMOOTH",
"189 22 OFFCURVE",
"108 -44 OFFCURVE",
"108 -81 CURVE SMOOTH",
"108 -93 OFFCURVE",
"133 -138 OFFCURVE",
"154 -139 CURVE"
);
},
{
closed = 1;
nodes = (
"148 -59 OFFCURVE",
"267 24 OFFCURVE",
"337 51 CURVE SMOOTH",
"399 75 OFFCURVE",
"460 100 OFFCURVE",
"518 123 CURVE",
"499 99 OFFCURVE",
"476 77 OFFCURVE",
"449 57 CURVE SMOOTH",
"346 -20 OFFCURVE",
"283 -46 OFFCURVE",
"147 -82 CURVE"
);
}
);
width = 687;
}
);
note = Eth;
unicode = 00D0;
},
{
glyphname = LJ;
lastChange = "2021-08-31 12:20:37 +0000";
layers = (
{
layerId = "FC6CF40E-48D1-4025-95B5-EAE50260AD89";
paths = (
{
closed = 1;
nodes = (
"526 -136 OFFCURVE",
"551 -125 OFFCURVE",
"551 -87 CURVE SMOOTH",
"551 -59 OFFCURVE",
"531 -29 OFFCURVE",
"489 -11 CURVE SMOOTH",
"485 -9 OFFCURVE",
"481 -8 OFFCURVE",
"479 -8 CURVE SMOOTH",
"476 -8 OFFCURVE",
"475 -9 OFFCURVE",
"475 -10 CURVE SMOOTH",
"475 -12 OFFCURVE",
"477 -15 OFFCURVE",
"482 -19 CURVE SMOOTH",
"491 -26 OFFCURVE",
"526 -78 OFFCURVE",
"526 -100 CURVE SMOOTH",
"526 -110 OFFCURVE",
"519 -111 OFFCURVE",
"507 -111 CURVE SMOOTH",
"460 -111 OFFCURVE",
"358 -63 OFFCURVE",
"207 -2 CURVE",
"243 62 OFFCURVE",
"268 134 OFFCURVE",
"279 171 CURVE SMOOTH",
"287 198 OFFCURVE",
"295 231 OFFCURVE",
"304 267 CURVE",
"407 365 OFFCURVE",
"510 493 OFFCURVE",
"510 585 CURVE SMOOTH",
"510 627 OFFCURVE",
"489 665 OFFCURVE",
"439 691 CURVE SMOOTH",
"413 704 OFFCURVE",
"397 709 OFFCURVE",
"388 709 CURVE SMOOTH",
"382 709 OFFCURVE",
"379 707 OFFCURVE",
"379 704 CURVE SMOOTH",
"379 698 OFFCURVE",
"388 689 OFFCURVE",
"402 684 CURVE SMOOTH",
"445 667 OFFCURVE",
"463 636 OFFCURVE",
"463 597 CURVE SMOOTH",
"463 522 OFFCURVE",
"398 417 OFFCURVE",
"316 323 CURVE",
"340 435 OFFCURVE",
"361 562 OFFCURVE",
"372 645 CURVE SMOOTH",
"374 669 OFFCURVE",
"376 687 OFFCURVE",
"376 700 CURVE SMOOTH",
"376 731 OFFCURVE",
"341 746 OFFCURVE",
"321 746 CURVE SMOOTH",
"298 746 OFFCURVE",
"258 648 OFFCURVE",
"248 624 CURVE SMOOTH",
"244 615 OFFCURVE",
"242 605 OFFCURVE",
"242 600 CURVE SMOOTH",
"242 598 OFFCURVE",
"242 597 OFFCURVE",
"243 597 CURVE SMOOTH",
"245 597 OFFCURVE",
"285 658 OFFCURVE",
"291 658 CURVE",
"282 528 OFFCURVE",
"263 374 OFFCURVE",
"234 239 CURVE",
"189 196 OFFCURVE",
"142 159 OFFCURVE",
"102 134 CURVE",
"100 132 OFFCURVE",
"100 131 OFFCURVE",
"100 130 CURVE SMOOTH",
"100 128 OFFCURVE",
"102 127 OFFCURVE",
"107 127 CURVE SMOOTH",
"125 127 OFFCURVE",
"171 155 OFFCURVE",
"225 199 CURVE",
"209 128 OFFCURVE",
"190 65 OFFCURVE",
"169 14 CURVE",
"89 47 OFFCURVE",
"6 83 OFFCURVE",
"-74 118 CURVE",
"-76 118 OFFCURVE",
"-77 119 OFFCURVE",
"-79 119 CURVE SMOOTH",
"-98 119 OFFCURVE",
"-122 75 OFFCURVE",
"-123 59 CURVE SMOOTH",
"-123 49 OFFCURVE",
"-47 20 OFFCURVE",
"-10 3 CURVE SMOOTH",
"-6 1 OFFCURVE",
"-4 0 OFFCURVE",
"-1 0 CURVE SMOOTH",
"7 0 OFFCURVE",
"6 10 OFFCURVE",
"7 14 CURVE",
"145 -36 LINE",
"120 -79 OFFCURVE",
"92 -105 OFFCURVE",
"62 -105 CURVE SMOOTH",
"8 -105 OFFCURVE",
"-21 -69 OFFCURVE",
"-30 -69 CURVE SMOOTH",
"-34 -69 OFFCURVE",
"-36 -71 OFFCURVE",
"-36 -74 CURVE SMOOTH",
"-36 -75 OFFCURVE",
"-35 -77 OFFCURVE",
"-34 -78 CURVE SMOOTH",
"-30 -84 OFFCURVE",
"-1 -128 OFFCURVE",
"60 -128 CURVE SMOOTH",
"106 -128 OFFCURVE",
"146 -93 OFFCURVE",
"179 -47 CURVE",
"337 -93 OFFCURVE",
"454 -136 OFFCURVE",
"496 -136 CURVE SMOOTH"
);
},
{
closed = 1;
nodes = (
"473 -253 OFFCURVE",
"455 -209 OFFCURVE",
"455 -159 CURVE SMOOTH",
"455 -42 OFFCURVE",
"550 113 OFFCURVE",
"679 237 CURVE",
"668 152 OFFCURVE",
"648 65 OFFCURVE",
"621 -12 CURVE SMOOTH",
"588 -107 OFFCURVE",
"551 -200 OFFCURVE",
"513 -283 CURVE"
);
},
{
closed = 1;
nodes = (
"598 -335 OFFCURVE",
"603 -297 OFFCURVE",
"628 -211 CURVE SMOOTH",
"664 -85 OFFCURVE",
"714 106 OFFCURVE",
"738 289 CURVE",
"798 338 OFFCURVE",
"863 380 OFFCURVE",
"929 408 CURVE",
"933 411 OFFCURVE",
"934 413 OFFCURVE",
"934 415 CURVE SMOOTH",
"934 419 OFFCURVE",
"929 422 OFFCURVE",
"921 422 CURVE SMOOTH",
"917 422 OFFCURVE",
"913 421 OFFCURVE",
"908 420 CURVE",
"860 404 OFFCURVE",
"802 369 OFFCURVE",
"742 322 CURVE",
"749 377 OFFCURVE",
"752 431 OFFCURVE",
"752 482 CURVE SMOOTH",
"752 521 OFFCURVE",
"749 557 OFFCURVE",
"744 591 CURVE SMOOTH",
"740 616 OFFCURVE",
"707 624 OFFCURVE",
"685 624 CURVE SMOOTH",
"673 624 OFFCURVE",
"667 622 OFFCURVE",
"667 619 CURVE",
"684 564 OFFCURVE",
"692 493 OFFCURVE",
"692 414 CURVE SMOOTH",
"692 369 OFFCURVE",
"689 321 OFFCURVE",
"684 273 CURVE",
"545 146 OFFCURVE",
"416 -33 OFFCURVE",
"416 -169 CURVE SMOOTH",
"416 -224 OFFCURVE",
"437 -272 OFFCURVE",
"487 -306 CURVE SMOOTH",
"491 -309 OFFCURVE",
"495 -310 OFFCURVE",
"500 -310 CURVE SMOOTH",
"501 -310 LINE",
"500 -310 OFFCURVE",
"500 -311 OFFCURVE",
"500 -312 CURVE SMOOTH",
"499 -315 OFFCURVE",
"498 -317 OFFCURVE",
"498 -320 CURVE SMOOTH",
"498 -339 OFFCURVE",
"523 -359 OFFCURVE",
"550 -366 CURVE"
);
},
{
closed = 1;
nodes = (
"459 561 LINE",
"549 618 OFFCURVE",
"721 666 OFFCURVE",
"869 666 CURVE SMOOTH",
"905 666 OFFCURVE",
"940 665 OFFCURVE",
"969 664 CURVE SMOOTH",
"970 664 OFFCURVE",
"971 664 OFFCURVE",
"971 665 CURVE SMOOTH",
"971 678 OFFCURVE",
"890 688 OFFCURVE",
"832 688 CURVE SMOOTH",
"706 688 OFFCURVE",
"549 659 OFFCURVE",
"471 625 CURVE",
"464 623 OFFCURVE",
"456 585 OFFCURVE",
"456 568 CURVE SMOOTH",
"456 564 OFFCURVE",
"457 561 OFFCURVE",
"458 561 CURVE SMOOTH"
);
}
);
width = 850;
}
);
unicode = 01C7;
},
{
glyphname = Lj;
lastChange = "2021-08-31 12:20:37 +0000";
layers = (
{
layerId = "FC6CF40E-48D1-4025-95B5-EAE50260AD89";
paths = (
{
closed = 1;
nodes = (
"106 -128 OFFCURVE",
"146 -93 OFFCURVE",
"179 -47 CURVE",
"241 -66 OFFCURVE",
"393 -93 OFFCURVE",
"413 -93 CURVE SMOOTH",
"427 -93 OFFCURVE",
"451 -82 OFFCURVE",
"451 -60 CURVE SMOOTH",
"451 -43 OFFCURVE",
"429 -20 OFFCURVE",
"409 -10 CURVE",
"408 -9 OFFCURVE",
"406 -8 OFFCURVE",
"405 -8 CURVE SMOOTH",
"403 -8 OFFCURVE",
"403 -9 OFFCURVE",
"403 -9 CURVE",
"403 -10 OFFCURVE",
"404 -12 OFFCURVE",
"406 -14 CURVE SMOOTH",
"410 -18 OFFCURVE",
"419 -43 OFFCURVE",
"419 -56 CURVE SMOOTH",
"419 -62 OFFCURVE",
"416 -63 OFFCURVE",
"410 -63 CURVE SMOOTH",
"388 -63 OFFCURVE",
"308 -36 OFFCURVE",
"207 -2 CURVE",
"243 62 OFFCURVE",
"268 134 OFFCURVE",
"279 171 CURVE SMOOTH",
"287 198 OFFCURVE",
"295 231 OFFCURVE",
"304 267 CURVE",
"407 365 OFFCURVE",
"510 493 OFFCURVE",
"510 585 CURVE SMOOTH",
"510 627 OFFCURVE",
"489 665 OFFCURVE",
"439 691 CURVE SMOOTH",
"413 704 OFFCURVE",
"397 709 OFFCURVE",
"388 709 CURVE SMOOTH",
"382 709 OFFCURVE",
"379 707 OFFCURVE",
"379 704 CURVE SMOOTH",
"379 698 OFFCURVE",
"388 689 OFFCURVE",
"402 684 CURVE SMOOTH",
"445 667 OFFCURVE",
"463 636 OFFCURVE",
"463 597 CURVE SMOOTH",
"463 522 OFFCURVE",
"398 417 OFFCURVE",
"316 323 CURVE",
"340 435 OFFCURVE",
"361 562 OFFCURVE",
"372 645 CURVE SMOOTH",
"374 669 OFFCURVE",
"376 687 OFFCURVE",
"376 700 CURVE SMOOTH",
"376 731 OFFCURVE",
"341 746 OFFCURVE",
"321 746 CURVE SMOOTH",
"298 746 OFFCURVE",
"258 648 OFFCURVE",
"248 624 CURVE SMOOTH",
"244 615 OFFCURVE",
"242 605 OFFCURVE",
"242 600 CURVE SMOOTH",
"242 598 OFFCURVE",
"242 597 OFFCURVE",
"243 597 CURVE SMOOTH",
"245 597 OFFCURVE",
"285 658 OFFCURVE",
"291 658 CURVE",
"282 528 OFFCURVE",
"263 374 OFFCURVE",
"234 239 CURVE",
"189 196 OFFCURVE",
"142 159 OFFCURVE",
"102 134 CURVE",
"100 132 OFFCURVE",
"100 131 OFFCURVE",
"100 130 CURVE SMOOTH",
"100 128 OFFCURVE",
"102 127 OFFCURVE",
"107 127 CURVE SMOOTH",
"125 127 OFFCURVE",
"171 155 OFFCURVE",
"225 199 CURVE",
"209 128 OFFCURVE",
"190 65 OFFCURVE",
"169 14 CURVE",
"89 47 OFFCURVE",
"6 83 OFFCURVE",
"-74 118 CURVE",
"-76 118 OFFCURVE",
"-77 119 OFFCURVE",
"-79 119 CURVE SMOOTH",
"-98 119 OFFCURVE",
"-122 75 OFFCURVE",
"-123 59 CURVE SMOOTH",
"-123 49 OFFCURVE",
"-47 20 OFFCURVE",
"-10 3 CURVE SMOOTH",
"-6 1 OFFCURVE",
"-4 0 OFFCURVE",
"-1 0 CURVE SMOOTH",
"7 0 OFFCURVE",
"6 10 OFFCURVE",
"7 14 CURVE",
"145 -36 LINE",
"120 -79 OFFCURVE",
"92 -105 OFFCURVE",
"62 -105 CURVE SMOOTH",
"8 -105 OFFCURVE",
"-21 -69 OFFCURVE",
"-30 -69 CURVE SMOOTH",
"-34 -69 OFFCURVE",
"-36 -71 OFFCURVE",
"-36 -74 CURVE SMOOTH",
"-36 -75 OFFCURVE",
"-35 -77 OFFCURVE",
"-34 -78 CURVE SMOOTH",
"-30 -84 OFFCURVE",
"-1 -128 OFFCURVE",
"60 -128 CURVE SMOOTH"
);
},
{
closed = 1;
nodes = (
"380 -417 OFFCURVE",
"397 -407 OFFCURVE",
"413 -377 CURVE SMOOTH",
"430 -344 OFFCURVE",
"498 -158 OFFCURVE",
"534 28 CURVE",
"553 45 OFFCURVE",
"570 62 OFFCURVE",
"585 82 CURVE SMOOTH",
"610 114 OFFCURVE",
"643 172 OFFCURVE",
"643 195 CURVE SMOOTH",
"643 200 OFFCURVE",
"642 202 OFFCURVE",
"639 202 CURVE SMOOTH",
"636 202 OFFCURVE",
"632 198 OFFCURVE",
"628 190 CURVE SMOOTH",
"601 134 OFFCURVE",
"571 93 OFFCURVE",
"540 60 CURVE",
"550 121 OFFCURVE",
"557 180 OFFCURVE",
"557 234 CURVE SMOOTH",
"557 257 OFFCURVE",
"556 278 OFFCURVE",
"554 298 CURVE SMOOTH",
"551 323 OFFCURVE",
"522 341 OFFCURVE",
"515 341 CURVE SMOOTH",
"514 341 OFFCURVE",
"514 341 OFFCURVE",
"514 340 CURVE SMOOTH",
"517 320 OFFCURVE",
"520 297 OFFCURVE",
"520 264 CURVE SMOOTH",
"520 231 OFFCURVE",
"518 188 OFFCURVE",
"512 129 CURVE SMOOTH",
"508 93 OFFCURVE",
"501 54 OFFCURVE",
"491 14 CURVE",
"440 -29 OFFCURVE",
"385 -68 OFFCURVE",
"329 -136 CURVE SMOOTH",
"290 -183 OFFCURVE",
"270 -238 OFFCURVE",
"270 -290 CURVE SMOOTH",
"270 -336 OFFCURVE",
"282 -376 OFFCURVE",
"309 -404 CURVE",
"315 -412 OFFCURVE",
"324 -416 OFFCURVE",
"329 -416 CURVE SMOOTH",
"330 -416 OFFCURVE",
"331 -415 OFFCURVE",
"331 -415 CURVE",
"331 -414 OFFCURVE",
"330 -413 OFFCURVE",
"328 -411 CURVE SMOOTH",
"312 -392 OFFCURVE",
"304 -361 OFFCURVE",
"304 -324 CURVE SMOOTH",
"304 -260 OFFCURVE",
"328 -177 OFFCURVE",
"372 -122 CURVE SMOOTH",
"407 -77 OFFCURVE",
"446 -44 OFFCURVE",
"484 -14 CURVE",
"449 -143 OFFCURVE",
"390 -285 OFFCURVE",
"339 -396 CURVE",
"344 -408 OFFCURVE",
"354 -417 OFFCURVE",
"366 -417 CURVE SMOOTH"
);
},
{
closed = 1;
nodes = (
"543 394 OFFCURVE",
"528 435 OFFCURVE",
"550 457 CURVE SMOOTH",
"555 461 OFFCURVE",
"557 465 OFFCURVE",
"557 467 CURVE SMOOTH",
"557 470 OFFCURVE",
"554 472 OFFCURVE",
"550 472 CURVE SMOOTH",
"523 472 OFFCURVE",
"485 428 OFFCURVE",
"485 408 CURVE SMOOTH",
"485 403 OFFCURVE",
"487 400 OFFCURVE",
"491 398 CURVE SMOOTH",
"498 395 OFFCURVE",
"505 394 OFFCURVE",
"512 394 CURVE SMOOTH"
);
}
);
width = 585;
}
);
unicode = 01C8;
},
{
glyphname = Lslash;
lastChange = "2021-08-31 12:20:37 +0000";
layers = (
{
layerId = "FC6CF40E-48D1-4025-95B5-EAE50260AD89";
paths = (
{
closed = 1;
nodes = (
"593 -148 OFFCURVE",
"627 -136 OFFCURVE",
"627 -94 CURVE SMOOTH",
"627 -64 OFFCURVE",
"600 -31 OFFCURVE",
"543 -11 CURVE SMOOTH",
"537 -9 OFFCURVE",
"532 -8 OFFCURVE",
"529 -8 CURVE SMOOTH",
"526 -8 OFFCURVE",
"524 -9 OFFCURVE",
"524 -10 CURVE SMOOTH",
"524 -12 OFFCURVE",
"527 -16 OFFCURVE",
"534 -20 CURVE SMOOTH",
"546 -28 OFFCURVE",
"593 -84 OFFCURVE",
"593 -108 CURVE SMOOTH",
"593 -119 OFFCURVE",
"583 -120 OFFCURVE",
"568 -120 CURVE SMOOTH",
"504 -120 OFFCURVE",
"366 -68 OFFCURVE",
"207 -2 CURVE",
"234 46 OFFCURVE",
"255 98 OFFCURVE",
"268 137 CURVE",
"353 141 OFFCURVE",
"429 147 OFFCURVE",
"445 154 CURVE",
"448 156 OFFCURVE",
"457 170 OFFCURVE",
"457 175 CURVE",
"456 176 LINE",
"441 174 OFFCURVE",
"363 171 OFFCURVE",
"278 170 CURVE",
"278 170 OFFCURVE",
"279 170 OFFCURVE",
"279 171 CURVE",
"287 198 OFFCURVE",
"295 231 OFFCURVE",
"304 267 CURVE",
"407 365 OFFCURVE",
"510 493 OFFCURVE",
"510 585 CURVE SMOOTH",
"510 627 OFFCURVE",
"489 665 OFFCURVE",
"439 691 CURVE SMOOTH",
"413 704 OFFCURVE",
"397 709 OFFCURVE",
"388 709 CURVE SMOOTH",
"382 709 OFFCURVE",
"379 707 OFFCURVE",
"379 704 CURVE SMOOTH",
"379 698 OFFCURVE",
"388 689 OFFCURVE",
"402 684 CURVE SMOOTH",
"445 667 OFFCURVE",
"463 636 OFFCURVE",
"463 597 CURVE SMOOTH",
"463 522 OFFCURVE",
"398 417 OFFCURVE",
"316 323 CURVE",
"340 435 OFFCURVE",
"361 562 OFFCURVE",
"372 645 CURVE SMOOTH",
"374 669 OFFCURVE",
"376 687 OFFCURVE",
"376 700 CURVE SMOOTH",
"376 731 OFFCURVE",
"341 746 OFFCURVE",
"321 746 CURVE SMOOTH",
"298 746 OFFCURVE",
"258 648 OFFCURVE",
"248 624 CURVE SMOOTH",
"244 615 OFFCURVE",
"242 605 OFFCURVE",
"242 600 CURVE SMOOTH",
"242 598 OFFCURVE",
"242 597 OFFCURVE",
"243 597 CURVE SMOOTH",
"245 597 OFFCURVE",
"285 658 OFFCURVE",
"291 658 CURVE",
"282 528 OFFCURVE",
"263 374 OFFCURVE",
"234 239 CURVE",
"208 214 OFFCURVE",
"181 190 OFFCURVE",
"155 171 CURVE",
"105 172 OFFCURVE",
"63 176 OFFCURVE",
"45 183 CURVE",
"42 183 LINE SMOOTH",
"24 183 OFFCURVE",
"6 152 OFFCURVE",
"6 139 CURVE SMOOTH",
"6 136 OFFCURVE",
"7 134 OFFCURVE",
"10 134 CURVE SMOOTH",
"12 134 LINE SMOOTH",
"17 133 OFFCURVE",
"35 132 OFFCURVE",
"60 132 CURVE SMOOTH",
"100 132 LINE",
"100 130 LINE SMOOTH",
"100 128 OFFCURVE",
"102 127 OFFCURVE",
"107 127 CURVE SMOOTH",
"112 127 OFFCURVE",
"118 129 OFFCURVE",
"127 132 CURVE",
"209 135 LINE",
"197 90 OFFCURVE",
"183 49 OFFCURVE",
"169 14 CURVE",
"89 47 OFFCURVE",
"6 83 OFFCURVE",
"-74 118 CURVE",
"-76 118 OFFCURVE",
"-77 119 OFFCURVE",
"-79 119 CURVE SMOOTH",
"-98 119 OFFCURVE",
"-122 75 OFFCURVE",
"-123 59 CURVE SMOOTH",
"-123 49 OFFCURVE",
"-47 20 OFFCURVE",
"-10 3 CURVE SMOOTH",
"-6 1 OFFCURVE",
"-4 0 OFFCURVE",
"-1 0 CURVE SMOOTH",
"7 0 OFFCURVE",
"6 10 OFFCURVE",
"7 14 CURVE",
"145 -36 LINE",
"120 -79 OFFCURVE",
"92 -105 OFFCURVE",
"62 -105 CURVE SMOOTH",
"8 -105 OFFCURVE",
"-21 -69 OFFCURVE",
"-30 -69 CURVE SMOOTH",
"-34 -69 OFFCURVE",
"-36 -71 OFFCURVE",
"-36 -74 CURVE SMOOTH",
"-36 -75 OFFCURVE",
"-35 -77 OFFCURVE",
"-34 -78 CURVE SMOOTH",
"-30 -84 OFFCURVE",
"-1 -128 OFFCURVE",
"60 -128 CURVE SMOOTH",
"106 -128 OFFCURVE",
"146 -93 OFFCURVE",
"179 -47 CURVE",
"337 -101 OFFCURVE",
"495 -148 OFFCURVE",
"553 -148 CURVE SMOOTH"
);
},
{
closed = 1;
nodes = (
"188 170 LINE",
"199 179 OFFCURVE",
"212 188 OFFCURVE",
"225 199 CURVE",
"223 189 OFFCURVE",
"221 179 OFFCURVE",
"218 170 CURVE"
);
}
);
width = 388;
}
);
note = Lslash;
unicode = 0141;
},
{
glyphname = Eng;
lastChange = "2021-08-31 12:20:37 +0000";
layers = (
{
background = {
paths = (
{
closed = 1;
nodes = (
"155 -503 OFFCURVE",
"94 -380 OFFCURVE",
"100 -373 CURVE",
"81 -358 OFFCURVE",
"95 -409 OFFCURVE",
"98 -416 CURVE SMOOTH",
"139 -492 OFFCURVE",
"261 -473 OFFCURVE",
"303 -409 CURVE SMOOTH",
"359 -320 OFFCURVE",
"393 12 OFFCURVE",
"415 334 CURVE SMOOTH",
"425 478 OFFCURVE",
"356 458 OFFCURVE",
"355 310 CURVE SMOOTH",
"354 61 OFFCURVE",
"325 -231 OFFCURVE",
"228 -385 CURVE SMOOTH"
);
}
);
};
layerId = "FC6CF40E-48D1-4025-95B5-EAE50260AD89";
paths = (
{
closed = 1;
nodes = (
"233 -465 OFFCURVE",
"280 -444 OFFCURVE",
"303 -409 CURVE SMOOTH",
"368 -305 OFFCURVE",
"417 76 OFFCURVE",
"417 378 CURVE SMOOTH",
"417 490 OFFCURVE",
"410 592 OFFCURVE",
"395 664 CURVE",
"381 675 OFFCURVE",
"369 679 OFFCURVE",
"359 679 CURVE SMOOTH",
"315 679 OFFCURVE",
"295 598 OFFCURVE",
"257 512 CURVE SMOOTH",
"219 427 OFFCURVE",
"145 279 OFFCURVE",
"130 113 CURVE",
"127 161 OFFCURVE",
"125 212 OFFCURVE",
"125 264 CURVE SMOOTH",
"125 404 OFFCURVE",
"139 544 OFFCURVE",
"190 628 CURVE",
"190 629 LINE SMOOTH",
"190 644 OFFCURVE",
"151 669 OFFCURVE",
"140 669 CURVE SMOOTH",
"138 669 OFFCURVE",
"137 669 OFFCURVE",
"137 668 CURVE",
"101 616 OFFCURVE",
"47 533 OFFCURVE",
"23 482 CURVE",
"23 479 LINE SMOOTH",
"23 476 OFFCURVE",
"23 474 OFFCURVE",
"26 474 CURVE SMOOTH",
"32 474 OFFCURVE",
"65 520 OFFCURVE",
"83 538 CURVE",
"73 489 OFFCURVE",
"68 418 OFFCURVE",
"68 342 CURVE SMOOTH",
"68 225 OFFCURVE",
"79 94 OFFCURVE",
"92 13 CURVE SMOOTH",
"95 -8 OFFCURVE",
"143 -22 OFFCURVE",
"156 -22 CURVE SMOOTH",
"159 -22 OFFCURVE",
"160 -22 OFFCURVE",
"160 -21 CURVE",
"157 -12 OFFCURVE",
"153 24 OFFCURVE",
"153 64 CURVE SMOOTH",
"153 85 OFFCURVE",
"154 106 OFFCURVE",
"157 126 CURVE SMOOTH",
"186 316 OFFCURVE",
"248 419 OFFCURVE",
"286 513 CURVE",
"337 607 LINE",
"350 541 OFFCURVE",
"356 463 OFFCURVE",
"356 382 CURVE SMOOTH",
"356 285 OFFCURVE",
"341 34 OFFCURVE",
"323 -103 CURVE",
"303 -214 OFFCURVE",
"273 -314 OFFCURVE",
"228 -385 CURVE SMOOTH",
"205 -423 OFFCURVE",
"182 -436 OFFCURVE",
"163 -436 CURVE SMOOTH",
"123 -436 OFFCURVE",
"96 -378 OFFCURVE",
"100 -373 CURVE",
"93 -367 OFFCURVE",
"90 -371 OFFCURVE",
"90 -379 CURVE SMOOTH",
"90 -391 OFFCURVE",
"96 -412 OFFCURVE",
"98 -416 CURVE SMOOTH",
"117 -451 OFFCURVE",
"152 -465 OFFCURVE",
"189 -465 CURVE SMOOTH"
);
}
);
width = 470;
}
);
note = Eng;
unicode = 014A;
},
{
glyphname = OE;
lastChange = "2021-08-31 12:20:37 +0000";
layers = (
{
layerId = "FC6CF40E-48D1-4025-95B5-EAE50260AD89";
paths = (
{
closed = 1;
nodes = (
"434 -129 OFFCURVE",
"656 -54 OFFCURVE",
"814 51 CURVE",
"814 48 OFFCURVE",
"813 46 OFFCURVE",
"813 43 CURVE SMOOTH",
"813 -58 OFFCURVE",
"1049 -108 OFFCURVE",
"1174 -108 CURVE SMOOTH",
"1288 -108 OFFCURVE",
"1377 -40 OFFCURVE",
"1377 -27 CURVE SMOOTH",
"1377 -24 OFFCURVE",
"1374 -22 OFFCURVE",
"1368 -21 CURVE",
"1348 -35 OFFCURVE",
"1283 -45 OFFCURVE",
"1208 -45 CURVE SMOOTH",
"1056 -45 OFFCURVE",
"885 -11 OFFCURVE",
"885 85 CURVE SMOOTH",
"885 175 OFFCURVE",
"1007 251 OFFCURVE",
"1132 306 CURVE",
"1190 306 OFFCURVE",
"1296 321 OFFCURVE",
"1296 364 CURVE SMOOTH",
"1296 385 OFFCURVE",
"1282 408 OFFCURVE",
"1260 408 CURVE SMOOTH",
"1246 408 OFFCURVE",
"1121 360 OFFCURVE",
"1086 341 CURVE",
"1000 382 OFFCURVE",
"930 451 OFFCURVE",
"930 513 CURVE SMOOTH",
"930 568 OFFCURVE",
"973 617 OFFCURVE",
"1102 660 CURVE SMOOTH",
"1196 691 OFFCURVE",
"1256 702 OFFCURVE",
"1344 702 CURVE SMOOTH",
"1370 702 OFFCURVE",
"1399 702 OFFCURVE",
"1432 700 CURVE",
"1291 597 OFFCURVE",
"987 618 OFFCURVE",
"987 597 CURVE SMOOTH",
"987 593 OFFCURVE",
"993 589 OFFCURVE",
"1022 589 CURVE SMOOTH",
"1107 589 OFFCURVE",
"1427 610 OFFCURVE",
"1475 677 CURVE",
"1475 681 LINE SMOOTH",
"1475 697 OFFCURVE",
"1461 751 OFFCURVE",
"1443 756 CURVE SMOOTH",
"1419 763 OFFCURVE",
"1386 765 OFFCURVE",
"1350 765 CURVE SMOOTH",
"1197 765 OFFCURVE",
"965 699 OFFCURVE",
"911 591 CURVE",
"809 665 OFFCURVE",
"684 708 OFFCURVE",
"608 708 CURVE SMOOTH",
"568 708 OFFCURVE",
"451 691 OFFCURVE",
"451 668 CURVE SMOOTH",
"451 651 OFFCURVE",
"564 648 OFFCURVE",
"580 647 CURVE SMOOTH",
"678 640 OFFCURVE",
"808 606 OFFCURVE",
"900 551 CURVE",
"899 547 OFFCURVE",
"899 542 OFFCURVE",
"899 538 CURVE SMOOTH",
"899 464 OFFCURVE",
"966 380 OFFCURVE",
"1066 328 CURVE",
"942 265 OFFCURVE",
"859 161 OFFCURVE",
"747 94 CURVE SMOOTH",
"575 -9 OFFCURVE",
"388 -51 OFFCURVE",
"244 -51 CURVE SMOOTH",
"123 -51 OFFCURVE",
"46 -14 OFFCURVE",
"46 87 CURVE SMOOTH",
"46 294 OFFCURVE",
"313 552 OFFCURVE",
"551 587 CURVE",
"561 587 LINE SMOOTH",
"652 587 OFFCURVE",
"724 546 OFFCURVE",
"730 546 CURVE SMOOTH",
"737 546 OFFCURVE",
"740 550 OFFCURVE",
"740 555 CURVE SMOOTH",
"740 571 OFFCURVE",
"707 615 OFFCURVE",
"609 615 CURVE SMOOTH",
"596 615 OFFCURVE",
"584 614 OFFCURVE",
"573 613 CURVE SMOOTH",
"244 582 OFFCURVE",
"21 316 OFFCURVE",
"21 93 CURVE SMOOTH",
"21 -51 OFFCURVE",
"120 -129 OFFCURVE",
"284 -129 CURVE SMOOTH"
);
}
);
width = 1351;
}
);
note = OE;
unicode = 0152;
},
{
glyphname = Thorn;
lastChange = "2021-08-31 12:20:37 +0000";
layers = (
{
layerId = "FC6CF40E-48D1-4025-95B5-EAE50260AD89";
paths = (
{
closed = 1;
nodes = (
"178 -476 OFFCURVE",
"190 -435 OFFCURVE",
"190 -438 CURVE",
"190 -435 OFFCURVE",
"188 -434 OFFCURVE",
"184 -434 CURVE SMOOTH",
"175 -434 OFFCURVE",
"160 -448 OFFCURVE",
"138 -448 CURVE SMOOTH",
"111 -448 OFFCURVE",
"71 -417 OFFCURVE",
"71 -283 CURVE SMOOTH",
"71 -206 OFFCURVE",
"82 -106 OFFCURVE",
"101 2 CURVE",
"185 22 OFFCURVE",
"314 78 OFFCURVE",
"384 165 CURVE SMOOTH",
"417 206 OFFCURVE",
"442 246 OFFCURVE",
"449 284 CURVE",
"483 301 LINE SMOOTH",
"498 309 OFFCURVE",
"525 331 OFFCURVE",
"525 336 CURVE SMOOTH",
"525 337 OFFCURVE",
"524 338 OFFCURVE",
"523 338 CURVE SMOOTH",
"518 338 OFFCURVE",
"507 334 OFFCURVE",
"484 322 CURVE SMOOTH",
"452 306 LINE",
"452 308 LINE SMOOTH",
"452 395 OFFCURVE",
"330 465 OFFCURVE",
"217 500 CURVE",
"246 597 OFFCURVE",
"274 680 OFFCURVE",
"298 735 CURVE",
"298 736 OFFCURVE",
"299 738 OFFCURVE",
"299 740 CURVE SMOOTH",
"299 754 OFFCURVE",
"274 780 OFFCURVE",
"253 780 CURVE SMOOTH",
"240 780 OFFCURVE",
"234 763 OFFCURVE",
"226 741 CURVE SMOOTH",
"224 737 OFFCURVE",
"223 731 OFFCURVE",
"223 724 CURVE SMOOTH",
"223 713 OFFCURVE",
"226 699 OFFCURVE",
"234 686 CURVE",
"215 647 OFFCURVE",
"192 584 OFFCURVE",
"169 512 CURVE",
"144 518 OFFCURVE",
"120 522 OFFCURVE",
"99 523 CURVE SMOOTH",
"92 523 OFFCURVE",
"89 519 OFFCURVE",
"89 513 CURVE SMOOTH",
"89 508 OFFCURVE",
"92 503 OFFCURVE",
"98 503 CURVE SMOOTH",
"112 502 OFFCURVE",
"135 498 OFFCURVE",
"163 492 CURVE",
"117 346 OFFCURVE",
"72 170 OFFCURVE",
"52 70 CURVE",
"38 56 OFFCURVE",
"30 43 OFFCURVE",
"30 33 CURVE SMOOTH",
"30 29 OFFCURVE",
"35 21 OFFCURVE",
"42 13 CURVE",
"33 -50 OFFCURVE",
"22 -142 OFFCURVE",
"22 -230 CURVE SMOOTH",
"22 -353 OFFCURVE",
"46 -476 OFFCURVE",
"128 -476 CURVE SMOOTH"
);
},
{
closed = 1;
nodes = (
"112 64 OFFCURVE",
"115 79 OFFCURVE",
"118 93 CURVE",
"173 134 OFFCURVE",
"268 187 OFFCURVE",
"385 250 CURVE",
"369 226 OFFCURVE",
"346 202 OFFCURVE",
"322 180 CURVE SMOOTH",
"249 113 OFFCURVE",
"199 83 OFFCURVE",
"110 50 CURVE"
);
},
{
closed = 1;
nodes = (
"150 248 OFFCURVE",
"180 371 OFFCURVE",
"211 479 CURVE",
"245 469 OFFCURVE",
"281 456 OFFCURVE",
"314 443 CURVE SMOOTH",
"388 412 OFFCURVE",
"416 373 OFFCURVE",
"416 331 CURVE SMOOTH",
"416 315 OFFCURVE",
"412 299 OFFCURVE",
"404 283 CURVE",
"325 243 OFFCURVE",
"207 182 OFFCURVE",
"125 127 CURVE"
);
}
);
width = 487;
}
);
note = Thorn;
unicode = 00DE;
},
{
glyphname = Germandbls;
lastChange = "2021-08-31 12:20:37 +0000";
layers = (
{
layerId = "FC6CF40E-48D1-4025-95B5-EAE50260AD89";
paths = (
{
closed = 1;
nodes = (
"125 -107 OFFCURVE",
"126 -106 OFFCURVE",
"126 -105 CURVE SMOOTH",
"115 -60 OFFCURVE",
"105 0 OFFCURVE",
"105 76 CURVE SMOOTH",
"105 283 OFFCURVE",
"161 523 OFFCURVE",
"211 700 CURVE SMOOTH",
"218 724 OFFCURVE",
"237 733 OFFCURVE",
"262 733 CURVE SMOOTH",
"332 733 OFFCURVE",
"446 657 OFFCURVE",
"446 610 CURVE SMOOTH",
"446 572 OFFCURVE",
"409 519 OFFCURVE",
"363 484 CURVE SMOOTH",
"317 451 OFFCURVE",
"236 424 OFFCURVE",
"214 386 CURVE SMOOTH",
"201 365 OFFCURVE",
"195 344 OFFCURVE",
"195 323 CURVE SMOOTH",
"195 212 OFFCURVE",
"335 160 OFFCURVE",
"364 136 CURVE",
"346 120 OFFCURVE",
"259 62 OFFCURVE",
"202 50 CURVE SMOOTH",
"175 45 OFFCURVE",
"160 32 OFFCURVE",
"160 21 CURVE SMOOTH",
"160 5 OFFCURVE",
"207 -3 OFFCURVE",
"245 -3 CURVE SMOOTH",
"332 -3 OFFCURVE",
"421 45 OFFCURVE",
"421 108 CURVE SMOOTH",
"421 119 OFFCURVE",
"417 131 OFFCURVE",
"410 143 CURVE",
"452 181 OFFCURVE",
"497 220 OFFCURVE",
"529 267 CURVE",
"534 272 OFFCURVE",
"536 278 OFFCURVE",
"536 280 CURVE SMOOTH",
"536 282 OFFCURVE",
"536 283 OFFCURVE",
"535 283 CURVE SMOOTH",
"526 283 OFFCURVE",
"416 183 OFFCURVE",
"387 160 CURVE",
"317 189 OFFCURVE",
"262 232 OFFCURVE",
"262 312 CURVE SMOOTH",
"262 393 OFFCURVE",
"352 442 OFFCURVE",
"403 482 CURVE SMOOTH",
"446 517 OFFCURVE",
"506 566 OFFCURVE",
"506 624 CURVE SMOOTH",
"506 703 OFFCURVE",
"360 800 OFFCURVE",
"240 800 CURVE SMOOTH",
"168 800 OFFCURVE",
"152 757 OFFCURVE",
"141 728 CURVE SMOOTH",
"124 684 OFFCURVE",
"72 391 OFFCURVE",
"72 142 CURVE SMOOTH",
"72 42 OFFCURVE",
"78 -107 OFFCURVE",
"124 -107 CURVE SMOOTH"
);
}
);
width = 533;
}
);
unicode = 1E9E;
},
{
glyphname = Schwa;
lastChange = "2021-08-31 12:20:37 +0000";
layers = (
{
layerId = "FC6CF40E-48D1-4025-95B5-EAE50260AD89";
paths = (
{
closed = 1;
nodes = (
"227 -23 OFFCURVE",
"239 -22 OFFCURVE",
"252 -19 CURVE SMOOTH",
"361 4 OFFCURVE",
"436 322 OFFCURVE",
"471 427 CURVE",
"488 439 OFFCURVE",
"502 452 OFFCURVE",
"502 458 CURVE SMOOTH",
"502 461 OFFCURVE",
"499 463 OFFCURVE",
"493 463 CURVE SMOOTH",
"490 463 OFFCURVE",
"485 462 OFFCURVE",
"479 461 CURVE",
"488 505 OFFCURVE",
"493 550 OFFCURVE",
"493 593 CURVE SMOOTH",
"493 708 OFFCURVE",
"454 806 OFFCURVE",
"338 806 CURVE SMOOTH",
"322 806 OFFCURVE",
"304 804 OFFCURVE",
"284 800 CURVE SMOOTH",
"173 777 OFFCURVE",
"47 629 OFFCURVE",
"39 580 CURVE SMOOTH",
"38 573 OFFCURVE",
"38 564 OFFCURVE",
"40 564 CURVE SMOOTH",
"42 564 OFFCURVE",
"44 566 OFFCURVE",
"47 572 CURVE",
"98 652 OFFCURVE",
"147 721 OFFCURVE",
"256 744 CURVE SMOOTH",
"278 749 OFFCURVE",
"298 751 OFFCURVE",
"316 751 CURVE SMOOTH",
"408 751 OFFCURVE",
"440 691 OFFCURVE",
"440 606 CURVE SMOOTH",
"440 558 OFFCURVE",
"430 501 OFFCURVE",
"414 443 CURVE",
"432 459 OFFCURVE",
"304 395 OFFCURVE",
"223 321 CURVE SMOOTH",
"182 282 OFFCURVE",
"113 173 OFFCURVE",
"117 98 CURVE SMOOTH",
"121 27 OFFCURVE",
"148 -23 OFFCURVE",
"216 -23 CURVE SMOOTH"
);
},
{
closed = 1;
nodes = (
"208 5 OFFCURVE",
"203 6 OFFCURVE",
"199 9 CURVE SMOOTH",
"179 22 OFFCURVE",
"171 50 OFFCURVE",
"171 83 CURVE SMOOTH",
"171 124 OFFCURVE",
"184 173 OFFCURVE",
"204 209 CURVE SMOOTH",
"254 308 OFFCURVE",
"298 336 OFFCURVE",
"411 413 CURVE",
"402 368 OFFCURVE",
"377 237 OFFCURVE",
"338 156 CURVE SMOOTH",
"288 52 OFFCURVE",
"243 5 OFFCURVE",
"213 5 CURVE SMOOTH"
);
}
);
width = 513;
}
);
unicode = 018F;
},
{
glyphname = Zacute;
lastChange = "2021-08-31 12:20:37 +0000";
layers = (
{
layerId = "FC6CF40E-48D1-4025-95B5-EAE50260AD89";
paths = (
{
closed = 1;
nodes = (
"614 -140 OFFCURVE",
"625 -122 OFFCURVE",
"625 -95 CURVE SMOOTH",
"625 -19 OFFCURVE",
"532 132 OFFCURVE",
"486 169 CURVE SMOOTH",
"474 179 OFFCURVE",
"459 184 OFFCURVE",
"451 184 CURVE SMOOTH",
"447 184 OFFCURVE",
"444 183 OFFCURVE",
"444 180 CURVE SMOOTH",
"444 177 OFFCURVE",
"448 171 OFFCURVE",
"457 164 CURVE SMOOTH",
"514 117 OFFCURVE",
"570 28 OFFCURVE",
"570 -23 CURVE SMOOTH",
"570 -47 OFFCURVE",
"558 -60 OFFCURVE",
"528 -60 CURVE SMOOTH",
"428 -60 OFFCURVE",
"207 44 OFFCURVE",
"104 102 CURVE",
"237 268 OFFCURVE",
"551 553 OFFCURVE",
"695 610 CURVE SMOOTH",
"735 626 OFFCURVE",
"751 636 OFFCURVE",
"751 647 CURVE SMOOTH",
"751 660 OFFCURVE",
"724 685 OFFCURVE",
"713 685 CURVE SMOOTH",
"704 685 OFFCURVE",
"698 677 OFFCURVE",
"692 671 CURVE SMOOTH",
"680 660 OFFCURVE",
"618 576 OFFCURVE",
"549 576 CURVE SMOOTH",
"478 576 OFFCURVE",
"395 671 OFFCURVE",
"357 686 CURVE SMOOTH",
"349 689 OFFCURVE",
"341 690 OFFCURVE",
"331 690 CURVE SMOOTH",
"289 690 OFFCURVE",
"230 665 OFFCURVE",
"183 605 CURVE SMOOTH",
"123 528 OFFCURVE",
"122 499 OFFCURVE",
"122 485 CURVE SMOOTH",
"122 458 OFFCURVE",
"130 441 OFFCURVE",
"135 441 CURVE SMOOTH",
"139 441 OFFCURVE",
"142 447 OFFCURVE",
"142 460 CURVE SMOOTH",
"142 483 OFFCURVE",
"155 589 OFFCURVE",
"290 589 CURVE SMOOTH",
"380 589 OFFCURVE",
"395 546 OFFCURVE",
"519 546 CURVE SMOOTH",
"534 546 LINE",
"497 487 OFFCURVE",
"190 276 OFFCURVE",
"69 124 CURVE",
"68 124 OFFCURVE",
"67 125 OFFCURVE",
"66 126 CURVE SMOOTH",
"64 127 OFFCURVE",
"63 127 OFFCURVE",
"61 127 CURVE SMOOTH",
"41 127 OFFCURVE",
"8 75 OFFCURVE",
"7 59 CURVE SMOOTH",
"7 56 OFFCURVE",
"13 51 OFFCURVE",
"23 46 CURVE",
"18 32 OFFCURVE",
"16 18 OFFCURVE",
"16 6 CURVE SMOOTH",
"16 -14 OFFCURVE",
"23 -22 OFFCURVE",
"29 -22 CURVE SMOOTH",
"36 -22 OFFCURVE",
"42 -14 OFFCURVE",
"43 0 CURVE SMOOTH",
"44 8 OFFCURVE",
"48 18 OFFCURVE",
"55 31 CURVE",
"77 21 OFFCURVE",
"103 11 OFFCURVE",
"120 3 CURVE SMOOTH",
"124 1 OFFCURVE",
"126 0 OFFCURVE",
"129 0 CURVE SMOOTH",
"137 0 OFFCURVE",
"136 10 OFFCURVE",
"137 14 CURVE",
"269 -35 OFFCURVE",
"464 -102 OFFCURVE",
"537 -129 CURVE SMOOTH",
"556 -136 OFFCURVE",
"572 -140 OFFCURVE",
"585 -140 CURVE SMOOTH"
);
},
{
closed = 1;
nodes = (
"470 697 OFFCURVE",
"479 699 OFFCURVE",
"492 704 CURVE SMOOTH",
"527 717 OFFCURVE",
"643 804 OFFCURVE",
"643 818 CURVE SMOOTH",
"643 819 OFFCURVE",
"642 820 OFFCURVE",
"642 820 CURVE",
"632 826 OFFCURVE",
"625 836 OFFCURVE",
"616 836 CURVE SMOOTH",
"613 836 OFFCURVE",
"610 835 OFFCURVE",
"607 831 CURVE",
"592 820 OFFCURVE",
"489 721 OFFCURVE",
"472 711 CURVE SMOOTH",
"463 707 OFFCURVE",
"458 702 OFFCURVE",
"458 700 CURVE SMOOTH",
"458 698 OFFCURVE",
"460 697 OFFCURVE",
"464 697 CURVE SMOOTH"
);
}
);
width = 649;
}
);
note = Zacute;
unicode = 0179;
},
{
glyphname = Zdotaccent;
lastChange = "2021-08-31 12:20:37 +0000";
layers = (
{
layerId = "FC6CF40E-48D1-4025-95B5-EAE50260AD89";
paths = (
{
closed = 1;
nodes = (
"614 -140 OFFCURVE",
"625 -122 OFFCURVE",
"625 -95 CURVE SMOOTH",
"625 -19 OFFCURVE",
"532 132 OFFCURVE",
"486 169 CURVE SMOOTH",
"474 179 OFFCURVE",
"459 184 OFFCURVE",
"451 184 CURVE SMOOTH",
"447 184 OFFCURVE",
"444 183 OFFCURVE",
"444 180 CURVE SMOOTH",
"444 177 OFFCURVE",
"448 171 OFFCURVE",
"457 164 CURVE SMOOTH",
"514 117 OFFCURVE",
"570 28 OFFCURVE",
"570 -23 CURVE SMOOTH",
"570 -47 OFFCURVE",
"558 -60 OFFCURVE",
"528 -60 CURVE SMOOTH",
"428 -60 OFFCURVE",
"207 44 OFFCURVE",
"104 102 CURVE",
"237 268 OFFCURVE",
"551 553 OFFCURVE",
"695 610 CURVE SMOOTH",
"735 626 OFFCURVE",
"751 636 OFFCURVE",
"751 647 CURVE SMOOTH",
"751 660 OFFCURVE",
"724 685 OFFCURVE",
"713 685 CURVE SMOOTH",
"704 685 OFFCURVE",
"698 677 OFFCURVE",
"692 671 CURVE SMOOTH",
"680 660 OFFCURVE",
"618 576 OFFCURVE",
"549 576 CURVE SMOOTH",
"478 576 OFFCURVE",
"395 671 OFFCURVE",
"357 686 CURVE SMOOTH",
"349 689 OFFCURVE",
"341 690 OFFCURVE",
"331 690 CURVE SMOOTH",
"289 690 OFFCURVE",
"230 665 OFFCURVE",
"183 605 CURVE SMOOTH",
"123 528 OFFCURVE",
"122 499 OFFCURVE",
"122 485 CURVE SMOOTH",
"122 458 OFFCURVE",
"130 441 OFFCURVE",
"135 441 CURVE SMOOTH",
"139 441 OFFCURVE",
"142 447 OFFCURVE",
"142 460 CURVE SMOOTH",
"142 483 OFFCURVE",
"155 589 OFFCURVE",
"290 589 CURVE SMOOTH",
"380 589 OFFCURVE",
"395 546 OFFCURVE",
"519 546 CURVE SMOOTH",
"534 546 LINE",
"497 487 OFFCURVE",
"190 276 OFFCURVE",
"69 124 CURVE",
"68 124 OFFCURVE",
"67 125 OFFCURVE",
"66 126 CURVE SMOOTH",
"64 127 OFFCURVE",
"63 127 OFFCURVE",
"61 127 CURVE SMOOTH",
"41 127 OFFCURVE",
"8 75 OFFCURVE",
"7 59 CURVE SMOOTH",
"7 56 OFFCURVE",
"13 51 OFFCURVE",
"23 46 CURVE",
"18 32 OFFCURVE",
"16 18 OFFCURVE",
"16 6 CURVE SMOOTH",
"16 -14 OFFCURVE",
"23 -22 OFFCURVE",
"29 -22 CURVE SMOOTH",
"36 -22 OFFCURVE",
"42 -14 OFFCURVE",
"43 0 CURVE SMOOTH",
"44 8 OFFCURVE",
"48 18 OFFCURVE",
"55 31 CURVE",
"77 21 OFFCURVE",
"103 11 OFFCURVE",
"120 3 CURVE SMOOTH",
"124 1 OFFCURVE",
"126 0 OFFCURVE",
"129 0 CURVE SMOOTH",
"137 0 OFFCURVE",
"136 10 OFFCURVE",
"137 14 CURVE",
"269 -35 OFFCURVE",
"464 -102 OFFCURVE",
"537 -129 CURVE SMOOTH",
"556 -136 OFFCURVE",
"572 -140 OFFCURVE",
"585 -140 CURVE SMOOTH"
);
},
{
closed = 1;
nodes = (
"532 716 OFFCURVE",
"533 761 OFFCURVE",
"545 776 CURVE SMOOTH",
"548 781 OFFCURVE",
"553 786 OFFCURVE",
"558 791 CURVE",
"557 792 LINE",
"557 791 LINE",
"555 792 LINE",
"534 792 OFFCURVE",
"482 761 OFFCURVE",
"482 742 CURVE SMOOTH",
"483 734 OFFCURVE",
"496 716 OFFCURVE",
"506 716 CURVE SMOOTH"
);
}
);
width = 649;
}
);
note = Zdotaccent;
unicode = 017B;
},
{
glyphname = A.ss01;
lastChange = "2021-08-31 12:20:37 +0000";
layers = (
{
layerId = "FC6CF40E-48D1-4025-95B5-EAE50260AD89";
paths = (
{
closed = 1;
nodes = (
"16 -248 OFFCURVE",
"33 -245 OFFCURVE",
"41 -237 CURVE",
"44 -237 OFFCURVE",
"50 -227 OFFCURVE",
"53 -224 CURVE",
"54 -227 OFFCURVE",
"53 -226 OFFCURVE",
"53 -229 CURVE",
"67 -225 OFFCURVE",
"85 -214 OFFCURVE",
"91 -199 CURVE",
"125 -175 OFFCURVE",
"149 -144 OFFCURVE",
"178 -116 CURVE SMOOTH",
"182 -113 OFFCURVE",
"180 -115 OFFCURVE",
"177 -112 CURVE",
"190 -107 OFFCURVE",
"207 -90 OFFCURVE",
"213 -78 CURVE",
"215 -78 LINE",
"211 -73 LINE",
"213 -72 LINE",
"215 -78 OFFCURVE",
"218 -65 OFFCURVE",
"219 -65 CURVE SMOOTH",
"227 -65 LINE",
"239 -56 OFFCURVE",
"251 -34 OFFCURVE",
"257 -21 CURVE",
"259 -21 LINE",
"257 -23 LINE",
"269 -20 OFFCURVE",
"271 -4 OFFCURVE",
"282 2 CURVE",
"284 14 LINE",
"292 14 LINE",
"294 24 LINE",
"301 24 LINE",
"305 32 OFFCURVE",
"326 54 OFFCURVE",
"323 62 CURVE",
"331 62 LINE",
"343 76 OFFCURVE",
"351 94 OFFCURVE",
"363 107 CURVE SMOOTH",
"373 120 OFFCURVE",
"390 132 OFFCURVE",
"394 147 CURVE",
"396 151 OFFCURVE",
"396 149 OFFCURVE",
"392 151 CURVE",
"415 167 OFFCURVE",
"439 196 OFFCURVE",
"451 220 CURVE",
"506 215 OFFCURVE",
"559 193 OFFCURVE",
"616 196 CURVE SMOOTH",
"631 196 OFFCURVE",
"654 185 OFFCURVE",
"664 187 CURVE",
"667 183 OFFCURVE",
"668 181 OFFCURVE",
"668 176 CURVE",
"671 175 OFFCURVE",
"674 175 OFFCURVE",
"677 175 CURVE SMOOTH",
"679 175 OFFCURVE",
"680 175 OFFCURVE",
"682 176 CURVE",
"680 171 OFFCURVE",
"682 173 OFFCURVE",
"676 172 CURVE",
"687 160 LINE",
"691 158 OFFCURVE",
"691 160 OFFCURVE",
"693 164 CURVE",
"696 164 LINE",
"696 158 OFFCURVE",
"696 157 OFFCURVE",
"691 154 CURVE",
"696 147 OFFCURVE",
"697 145 OFFCURVE",
"704 143 CURVE",
"703 139 OFFCURVE",
"704 134 OFFCURVE",
"704 130 CURVE",
"712 130 LINE",
"713 125 OFFCURVE",
"713 124 OFFCURVE",
"718 122 CURVE",
"717 116 OFFCURVE",
"715 111 OFFCURVE",
"710 107 CURVE",
"718 99 OFFCURVE",
"716 88 OFFCURVE",
"722 81 CURVE",
"719 75 OFFCURVE",
"721 77 OFFCURVE",
"716 76 CURVE",
"717 69 OFFCURVE",
"721 66 OFFCURVE",
"724 60 CURVE",
"722 46 LINE",
"723 41 OFFCURVE",
"725 37 OFFCURVE",
"727 31 CURVE",
"733 31 LINE",
"735 30 LINE",
"735 25 OFFCURVE",
"732 19 OFFCURVE",
"732 15 CURVE SMOOTH",
"732 14 OFFCURVE",
"733 13 OFFCURVE",
"733 12 CURVE",
"738 10 LINE",
"738 8 OFFCURVE",
"738 6 OFFCURVE",
"736 6 CURVE",
"738 -1 OFFCURVE",
"740 2 OFFCURVE",
"744 -2 CURVE",
"740 -7 OFFCURVE",
"744 -4 OFFCURVE",
"738 -4 CURVE",
"742 -10 OFFCURVE",
"746 -14 OFFCURVE",
"752 -18 CURVE",
"751 -23 OFFCURVE",
"753 -21 OFFCURVE",
"748 -23 CURVE",
"752 -29 OFFCURVE",
"751 -27 OFFCURVE",
"756 -25 CURVE",
"756 -27 OFFCURVE",
"755 -29 OFFCURVE",
"754 -29 CURVE",
"761 -35 OFFCURVE",
"772 -37 OFFCURVE",
"780 -38 CURVE SMOOTH",
"782 -38 OFFCURVE",
"786 -40 OFFCURVE",
"784 -40 CURVE",
"782 -42 LINE",
"791 -42 LINE",
"790 -41 OFFCURVE",
"788 -40 OFFCURVE",
"786 -40 CURVE",
"786 -36 LINE",
"793 -38 OFFCURVE",
"793 -38 OFFCURVE",
"791 -44 CURVE",
"797 -44 OFFCURVE",
"815 -42 OFFCURVE",
"820 -44 CURVE",
"828 -44 LINE",
"827 -41 OFFCURVE",
"826 -39 OFFCURVE",
"826 -36 CURVE",
"825 -38 OFFCURVE",
"824 -38 OFFCURVE",
"824 -40 CURVE",
"822 -40 LINE",
"824 -10 OFFCURVE",
"811 13 OFFCURVE",
"811 41 CURVE SMOOTH",
"811 50 OFFCURVE",
"813 60 OFFCURVE",
"816 70 CURVE",
"811 74 OFFCURVE",
"814 75 OFFCURVE",
"808 76 CURVE",
"810 81 OFFCURVE",
"816 81 OFFCURVE",
"818 85 CURVE SMOOTH",
"820 89 OFFCURVE",
"820 93 OFFCURVE",
"820 97 CURVE SMOOTH",
"820 106 OFFCURVE",
"817 113 OFFCURVE",
"817 118 CURVE SMOOTH",
"817 120 OFFCURVE",
"818 122 OFFCURVE",
"820 124 CURVE",
"820 137 LINE",
"818 138 OFFCURVE",
"817 138 OFFCURVE",
"816 139 CURVE",
"812 139 OFFCURVE",
"810 137 OFFCURVE",
"806 135 CURVE",
"809 106 OFFCURVE",
"795 107 OFFCURVE",
"793 81 CURVE",
"797 81 OFFCURVE",
"799 81 OFFCURVE",
"802 79 CURVE",
"799 79 LINE",
"797 73 OFFCURVE",
"797 74 OFFCURVE",
"791 74 CURVE",
"791 64 OFFCURVE",
"793 54 OFFCURVE",
"791 43 CURVE",
"797 47 OFFCURVE",
"795 47 OFFCURVE",
"795 52 CURVE",
"797 52 LINE",
"799 41 LINE",
"791 41 LINE",
"793 37 OFFCURVE",
"793 39 OFFCURVE",
"793 33 CURVE",
"795 31 LINE",
"787 31 OFFCURVE",
"788 35 OFFCURVE",
"788 26 CURVE",
"786 26 LINE",
"780 45 OFFCURVE",
"780 64 OFFCURVE",
"774 81 CURVE SMOOTH",
"772 85 OFFCURVE",
"762 98 OFFCURVE",
"762 105 CURVE SMOOTH",
"762 108 OFFCURVE",
"763 109 OFFCURVE",
"766 110 CURVE",
"767 116 OFFCURVE",
"760 131 OFFCURVE",
"760 136 CURVE SMOOTH",
"760 137 LINE SMOOTH",
"759 147 OFFCURVE",
"750 172 OFFCURVE",
"750 181 CURVE SMOOTH",
"750 187 OFFCURVE",
"757 190 OFFCURVE",
"758 196 CURVE",
"761 196 OFFCURVE",
"764 196 OFFCURVE",
"766 193 CURVE",
"767 196 OFFCURVE",
"768 198 OFFCURVE",
"768 200 CURVE",
"775 199 OFFCURVE",
"781 198 OFFCURVE",
"787 198 CURVE SMOOTH",
"796 198 OFFCURVE",
"805 200 OFFCURVE",
"814 206 CURVE",
"816 200 OFFCURVE",
"830 204 OFFCURVE",
"830 213 CURVE",
"836 212 OFFCURVE",
"842 212 OFFCURVE",
"847 212 CURVE SMOOTH",
"889 212 OFFCURVE",
"880 237 OFFCURVE",
"903 241 CURVE",
"897 245 LINE",
"899 247 LINE",
"897 249 LINE",
"901 249 OFFCURVE",
"901 248 OFFCURVE",
"903 249 CURVE",
"907 249 LINE",
"907 257 OFFCURVE",
"907 259 OFFCURVE",
"901 264 CURVE",
"903 268 OFFCURVE",
"905 272 OFFCURVE",
"905 276 CURVE SMOOTH",
"905 282 OFFCURVE",
"902 287 OFFCURVE",
"895 289 CURVE",
"894 288 OFFCURVE",
"893 288 OFFCURVE",
"891 287 CURVE",
"891 283 OFFCURVE",
"889 278 OFFCURVE",
"888 274 CURVE",
"891 270 LINE",
"889 263 OFFCURVE",
"874 256 OFFCURVE",
"874 250 CURVE SMOOTH",
"874 249 OFFCURVE",
"874 248 OFFCURVE",
"876 247 CURVE",
"876 243 LINE",
"856 243 LINE",
"860 239 LINE",
"856 237 OFFCURVE",
"850 241 OFFCURVE",
"843 237 CURVE SMOOTH",
"835 232 OFFCURVE",
"848 228 OFFCURVE",
"830 228 CURVE",
"835 224 LINE",
"827 221 OFFCURVE",
"829 224 OFFCURVE",
"824 218 CURVE",
"819 220 OFFCURVE",
"821 218 OFFCURVE",
"820 224 CURVE",
"816 222 OFFCURVE",
"811 222 OFFCURVE",
"806 222 CURVE",
"806 211 LINE",
"804 209 LINE",
"799 213 OFFCURVE",
"802 209 OFFCURVE",
"802 215 CURVE",
"770 215 LINE",
"770 209 LINE",
"767 211 OFFCURVE",
"762 213 OFFCURVE",
"757 213 CURVE SMOOTH",
"752 213 OFFCURVE",
"748 211 OFFCURVE",
"746 208 CURVE",
"744 208 LINE",
"746 223 OFFCURVE",
"744 257 OFFCURVE",
"736 272 CURVE",
"736 280 OFFCURVE",
"735 313 OFFCURVE",
"733 319 CURVE",
"733 327 OFFCURVE",
"735 335 OFFCURVE",
"727 335 CURVE",
"728 342 OFFCURVE",
"729 351 OFFCURVE",
"729 359 CURVE SMOOTH",
"729 381 OFFCURVE",
"726 405 OFFCURVE",
"722 423 CURVE SMOOTH",
"720 432 OFFCURVE",
"723 445 OFFCURVE",
"723 456 CURVE SMOOTH",
"723 463 OFFCURVE",
"722 469 OFFCURVE",
"718 473 CURVE",
"724 480 OFFCURVE",
"713 690 OFFCURVE",
"746 729 CURVE",
"744 753 OFFCURVE",
"711 766 OFFCURVE",
"710 771 CURVE",
"705 771 OFFCURVE",
"696 768 OFFCURVE",
"690 768 CURVE SMOOTH",
"689 768 OFFCURVE",
"688 769 OFFCURVE",
"687 769 CURVE",
"680 764 OFFCURVE",
"684 756 OFFCURVE",
"672 752 CURVE",
"678 741 LINE",
"676 738 OFFCURVE",
"674 735 OFFCURVE",
"674 731 CURVE",
"667 732 OFFCURVE",
"666 729 OFFCURVE",
"660 727 CURVE",
"661 724 LINE",
"664 723 LINE",
"661 714 OFFCURVE",
"658 705 OFFCURVE",
"650 698 CURVE",
"649 695 OFFCURVE",
"643 703 OFFCURVE",
"640 705 CURVE SMOOTH",
"631 709 OFFCURVE",
"625 701 OFFCURVE",
"616 698 CURVE SMOOTH",
"608 696 OFFCURVE",
"611 697 OFFCURVE",
"612 692 CURVE",
"607 693 OFFCURVE",
"609 692 OFFCURVE",
"608 696 CURVE",
"604 695 OFFCURVE",
"601 693 OFFCURVE",
"596 692 CURVE",
"596 687 LINE",
"591 687 OFFCURVE",
"583 687 OFFCURVE",
"579 692 CURVE",
"570 690 OFFCURVE",
"570 692 OFFCURVE",
"568 683 CURVE",
"558 681 LINE",
"558 687 LINE",
"555 685 OFFCURVE",
"550 681 OFFCURVE",
"544 681 CURVE SMOOTH",
"541 681 OFFCURVE",
"537 683 OFFCURVE",
"534 683 CURVE SMOOTH",
"533 683 OFFCURVE",
"531 682 OFFCURVE",
"529 681 CURVE",
"529 677 LINE",
"504 669 LINE SMOOTH",
"500 668 OFFCURVE",
"493 671 OFFCURVE",
"487 671 CURVE SMOOTH",
"483 671 OFFCURVE",
"479 670 OFFCURVE",
"477 665 CURVE",
"469 667 LINE",
"438 659 LINE SMOOTH",
"418 652 OFFCURVE",
"400 662 OFFCURVE",
"381 646 CURVE",
"360 648 LINE",
"354 642 LINE",
"352 643 OFFCURVE",
"349 644 OFFCURVE",
"346 644 CURVE SMOOTH",
"338 644 OFFCURVE",
"329 641 OFFCURVE",
"327 635 CURVE",
"315 635 LINE",
"315 637 LINE",
"318 639 OFFCURVE",
"321 639 OFFCURVE",
"325 639 CURVE",
"316 644 OFFCURVE",
"309 637 OFFCURVE",
"301 637 CURVE SMOOTH",
"299 637 LINE SMOOTH",
"294 637 OFFCURVE",
"292 641 OFFCURVE",
"286 641 CURVE",
"286 635 LINE",
"264 635 OFFCURVE",
"244 637 OFFCURVE",
"222 642 CURVE",
"211 646 OFFCURVE",
"206 640 OFFCURVE",
"199 640 CURVE SMOOTH",
"196 640 OFFCURVE",
"192 642 OFFCURVE",
"186 648 CURVE",
"186 646 OFFCURVE",
"186 643 OFFCURVE",
"184 641 CURVE",
"175 646 OFFCURVE",
"169 662 OFFCURVE",
"157 663 CURVE",
"158 664 OFFCURVE",
"159 664 OFFCURVE",
"161 665 CURVE",
"157 670 OFFCURVE",
"160 667 OFFCURVE",
"155 667 CURVE",
"155 669 LINE",
"153 669 OFFCURVE",
"153 672 OFFCURVE",
"153 673 CURVE",
"157 673 LINE",
"157 674 OFFCURVE",
"157 677 OFFCURVE",
"155 677 CURVE",
"156 681 OFFCURVE",
"159 693 OFFCURVE",
"159 702 CURVE SMOOTH",
"159 705 OFFCURVE",
"158 708 OFFCURVE",
"157 709 CURVE",
"159 711 OFFCURVE",
"161 711 OFFCURVE",
"163 711 CURVE",
"164 718 OFFCURVE",
"166 737 OFFCURVE",
"175 741 CURVE",
"173 744 OFFCURVE",
"173 744 OFFCURVE",
"171 746 CURVE",
"171 750 LINE SMOOTH",
"171 741 OFFCURVE",
"167 739 OFFCURVE",
"159 739 CURVE SMOOTH",
"155 739 LINE",
"139 728 OFFCURVE",
"141 707 OFFCURVE",
"131 692 CURVE",
"133 688 OFFCURVE",
"136 685 OFFCURVE",
"139 681 CURVE",
"136 679 OFFCURVE",
"133 677 OFFCURVE",
"131 675 CURVE",
"131 666 OFFCURVE",
"133 658 OFFCURVE",
"135 648 CURVE",
"145 645 OFFCURVE",
"163 610 OFFCURVE",
"190 610 CURVE SMOOTH",
"195 610 OFFCURVE",
"200 611 OFFCURVE",
"205 613 CURVE",
"211 607 LINE",
"219 604 OFFCURVE",
"237 602 OFFCURVE",
"254 602 CURVE SMOOTH",
"268 602 OFFCURVE",
"282 603 OFFCURVE",
"288 607 CURVE",
"297 605 OFFCURVE",
"306 604 OFFCURVE",
"314 604 CURVE SMOOTH",
"334 604 OFFCURVE",
"351 608 OFFCURVE",
"371 607 CURVE SMOOTH",
"398 605 LINE SMOOTH",
"421 604 OFFCURVE",
"449 617 OFFCURVE",
"473 615 CURVE SMOOTH",
"499 613 OFFCURVE",
"542 615 OFFCURVE",
"568 623 CURVE SMOOTH",
"590 629 OFFCURVE",
"645 642 OFFCURVE",
"666 641 CURVE",
"668 639 LINE",
"664 635 LINE",
"660 635 LINE",
"660 634 LINE",
"658 633 OFFCURVE",
"663 633 OFFCURVE",
"664 633 CURVE",
"664 623 LINE",
"663 624 OFFCURVE",
"663 625 OFFCURVE",
"662 627 CURVE",
"658 627 LINE",
"657 623 OFFCURVE",
"657 618 OFFCURVE",
"654 615 CURVE",
"654 611 LINE",
"657 612 OFFCURVE",
"659 614 OFFCURVE",
"662 615 CURVE",
"664 613 LINE",
"662 607 OFFCURVE",
"660 601 OFFCURVE",
"654 599 CURVE",
"654 592 LINE",
"648 592 LINE",
"649 590 LINE",
"652 590 LINE",
"651 584 OFFCURVE",
"651 579 OFFCURVE",
"648 575 CURVE",
"648 571 LINE",
"647 573 OFFCURVE",
"647 575 OFFCURVE",
"646 577 CURVE",
"638 572 OFFCURVE",
"643 562 OFFCURVE",
"638 555 CURVE",
"631 548 LINE",
"627 542 OFFCURVE",
"634 537 OFFCURVE",
"629 529 CURVE",
"624 524 OFFCURVE",
"611 518 OFFCURVE",
"611 510 CURVE SMOOTH",
"611 509 OFFCURVE",
"612 508 OFFCURVE",
"612 507 CURVE SMOOTH",
"612 499 OFFCURVE",
"614 499 OFFCURVE",
"606 499 CURVE",
"604 491 OFFCURVE",
"600 487 OFFCURVE",
"594 482 CURVE",
"594 474 OFFCURVE",
"593 478 OFFCURVE",
"596 473 CURVE",
"588 471 OFFCURVE",
"577 445 OFFCURVE",
"577 437 CURVE",
"566 437 LINE",
"566 435 OFFCURVE",
"564 433 OFFCURVE",
"562 432 CURVE",
"562 425 OFFCURVE",
"559 429 OFFCURVE",
"564 425 CURVE",
"561 418 OFFCURVE",
"555 413 OFFCURVE",
"548 412 CURVE",
"547 404 OFFCURVE",
"544 398 OFFCURVE",
"544 391 CURVE",
"539 390 OFFCURVE",
"535 387 OFFCURVE",
"531 386 CURVE",
"532 381 OFFCURVE",
"532 381 OFFCURVE",
"535 378 CURVE",
"530 374 OFFCURVE",
"531 374 OFFCURVE",
"531 370 CURVE",
"527 370 OFFCURVE",
"524 372 OFFCURVE",
"521 372 CURVE",
"513 355 OFFCURVE",
"500 343 OFFCURVE",
"496 326 CURVE",
"481 329 OFFCURVE",
"473 300 OFFCURVE",
"462 293 CURVE SMOOTH",
"460 292 OFFCURVE",
"451 295 OFFCURVE",
"444 291 CURVE",
"442 294 OFFCURVE",
"441 297 OFFCURVE",
"438 299 CURVE SMOOTH",
"433 304 OFFCURVE",
"425 304 OFFCURVE",
"416 304 CURVE SMOOTH",
"408 304 LINE SMOOTH",
"399 304 OFFCURVE",
"390 305 OFFCURVE",
"384 310 CURVE",
"379 310 OFFCURVE",
"377 311 OFFCURVE",
"377 306 CURVE",
"372 308 OFFCURVE",
"374 306 OFFCURVE",
"373 311 CURVE",
"364 312 OFFCURVE",
"354 312 OFFCURVE",
"345 311 CURVE",
"343 310 LINE",
"345 304 OFFCURVE",
"343 306 OFFCURVE",
"349 306 CURVE",
"345 304 OFFCURVE",
"341 306 OFFCURVE",
"338 304 CURVE",
"334 304 LINE",
"336 285 LINE",
"341 287 LINE",
"347 280 OFFCURVE",
"351 268 OFFCURVE",
"354 260 CURVE",
"370 246 OFFCURVE",
"396 238 OFFCURVE",
"415 232 CURVE",
"413 226 OFFCURVE",
"411 222 OFFCURVE",
"411 215 CURVE",
"404 213 OFFCURVE",
"398 208 OFFCURVE",
"392 204 CURVE",
"392 193 LINE",
"384 193 LINE",
"382 178 OFFCURVE",
"375 182 OFFCURVE",
"369 174 CURVE SMOOTH",
"366 169 OFFCURVE",
"369 167 OFFCURVE",
"367 164 CURVE SMOOTH",
"363 158 OFFCURVE",
"365 166 OFFCURVE",
"358 162 CURVE",
"360 156 LINE",
"354 151 OFFCURVE",
"345 147 OFFCURVE",
"341 139 CURVE",
"331 128 OFFCURVE",
"318 100 OFFCURVE",
"309 92 CURVE",
"305 90 OFFCURVE",
"308 92 OFFCURVE",
"309 88 CURVE",
"303 85 OFFCURVE",
"299 81 OFFCURVE",
"292 79 CURVE",
"292 72 LINE",
"286 72 LINE",
"288 68 OFFCURVE",
"288 64 OFFCURVE",
"288 60 CURVE",
"280 53 OFFCURVE",
"267 52 OFFCURVE",
"261 41 CURVE",
"261 31 LINE",
"257 31 OFFCURVE",
"252 30 OFFCURVE",
"249 30 CURVE",
"248 28 OFFCURVE",
"247 26 OFFCURVE",
"245 24 CURVE",
"248 19 OFFCURVE",
"246 21 OFFCURVE",
"251 20 CURVE",
"248 18 OFFCURVE",
"245 18 OFFCURVE",
"241 18 CURVE",
"241 12 LINE",
"237 16 LINE",
"237 8 LINE",
"231 8 OFFCURVE",
"230 5 OFFCURVE",
"229 0 CURVE",
"226 -2 OFFCURVE",
"229 -2 OFFCURVE",
"230 -4 CURVE",
"222 -6 LINE",
"219 -14 OFFCURVE",
"213 -20 OFFCURVE",
"205 -21 CURVE",
"205 -29 LINE",
"199 -29 LINE",
"198 -37 OFFCURVE",
"199 -36 OFFCURVE",
"193 -38 CURVE",
"193 -39 OFFCURVE",
"194 -45 OFFCURVE",
"195 -42 CURVE",
"197 -40 LINE",
"194 -44 OFFCURVE",
"191 -44 OFFCURVE",
"184 -44 CURVE",
"184 -46 OFFCURVE",
"180 -48 OFFCURVE",
"178 -50 CURVE",
"175 -58 OFFCURVE",
"184 -55 OFFCURVE",
"177 -60 CURVE",
"176 -62 OFFCURVE",
"166 -63 OFFCURVE",
"161 -71 CURVE",
"164 -78 OFFCURVE",
"133 -95 OFFCURVE",
"141 -98 CURVE",
"136 -103 OFFCURVE",
"127 -108 OFFCURVE",
"124 -114 CURVE",
"120 -116 OFFCURVE",
"122 -124 OFFCURVE",
"120 -127 CURVE",
"120 -129 LINE",
"118 -129 OFFCURVE",
"118 -126 OFFCURVE",
"118 -123 CURVE",
"111 -123 LINE",
"100 -146 OFFCURVE",
"96 -145 OFFCURVE",
"78 -160 CURVE",
"78 -161 OFFCURVE",
"80 -166 OFFCURVE",
"80 -164 CURVE",
"83 -162 LINE",
"76 -170 OFFCURVE",
"71 -179 OFFCURVE",
"59 -182 CURVE",
"59 -186 OFFCURVE",
"58 -188 OFFCURVE",
"55 -192 CURVE",
"55 -190 LINE",
"50 -192 OFFCURVE",
"44 -195 OFFCURVE",
"41 -199 CURVE",
"41 -210 LINE",
"37 -208 LINE",
"30 -215 OFFCURVE",
"19 -219 OFFCURVE",
"14 -227 CURVE SMOOTH",
"12 -230 OFFCURVE",
"12 -234 OFFCURVE",
"14 -237 CURVE",
"14 -239 LINE",
"5 -235 LINE",
"4 -237 OFFCURVE",
"4 -239 OFFCURVE",
"3 -241 CURVE",
"5 -248 LINE"
);
},
{
closed = 1;
nodes = (
"667 209 OFFCURVE",
"658 215 OFFCURVE",
"636 224 CURVE SMOOTH",
"633 225 OFFCURVE",
"627 225 OFFCURVE",
"622 225 CURVE SMOOTH",
"616 225 OFFCURVE",
"612 225 OFFCURVE",
"610 226 CURVE",
"606 233 LINE",
"599 238 OFFCURVE",
"590 235 OFFCURVE",
"583 239 CURVE SMOOTH",
"563 251 OFFCURVE",
"550 259 OFFCURVE",
"527 257 CURVE",
"532 264 LINE",
"530 265 OFFCURVE",
"525 265 OFFCURVE",
"521 265 CURVE SMOOTH",
"518 265 OFFCURVE",
"514 265 OFFCURVE",
"513 266 CURVE",
"513 270 LINE",
"507 273 OFFCURVE",
"502 276 OFFCURVE",
"496 278 CURVE",
"496 280 LINE",
"510 290 OFFCURVE",
"515 310 OFFCURVE",
"529 319 CURVE",
"529 328 LINE",
"545 332 OFFCURVE",
"551 359 OFFCURVE",
"560 372 CURVE",
"568 376 LINE",
"572 380 OFFCURVE",
"574 385 OFFCURVE",
"577 389 CURVE",
"574 395 LINE",
"577 398 OFFCURVE",
"582 396 OFFCURVE",
"585 399 CURVE SMOOTH",
"595 410 OFFCURVE",
"617 450 OFFCURVE",
"618 465 CURVE",
"632 469 OFFCURVE",
"638 503 OFFCURVE",
"648 513 CURVE",
"647 518 OFFCURVE",
"649 516 OFFCURVE",
"644 517 CURVE",
"648 522 OFFCURVE",
"652 529 OFFCURVE",
"652 535 CURVE",
"658 535 LINE",
"658 542 OFFCURVE",
"659 548 OFFCURVE",
"666 551 CURVE",
"662 546 OFFCURVE",
"662 539 OFFCURVE",
"662 532 CURVE SMOOTH",
"662 525 LINE",
"668 525 LINE",
"668 515 LINE",
"667 516 OFFCURVE",
"667 517 OFFCURVE",
"666 519 CURVE",
"662 519 LINE",
"662 511 LINE",
"665 511 OFFCURVE",
"669 510 OFFCURVE",
"672 509 CURVE",
"669 508 OFFCURVE",
"669 509 OFFCURVE",
"666 509 CURVE",
"666 501 OFFCURVE",
"664 493 OFFCURVE",
"664 486 CURVE",
"670 486 LINE",
"670 480 LINE",
"664 480 LINE",
"664 469 OFFCURVE",
"665 461 OFFCURVE",
"674 455 CURVE",
"671 450 OFFCURVE",
"674 446 OFFCURVE",
"666 443 CURVE",
"666 436 OFFCURVE",
"664 432 OFFCURVE",
"671 432 CURVE SMOOTH",
"674 432 LINE",
"674 423 LINE",
"668 423 LINE",
"668 416 OFFCURVE",
"666 401 OFFCURVE",
"674 397 CURVE",
"670 397 LINE",
"672 396 OFFCURVE",
"676 396 OFFCURVE",
"678 395 CURVE",
"678 393 OFFCURVE",
"678 391 OFFCURVE",
"676 389 CURVE",
"678 387 OFFCURVE",
"680 387 OFFCURVE",
"682 387 CURVE",
"680 381 OFFCURVE",
"680 368 OFFCURVE",
"672 365 CURVE",
"674 359 OFFCURVE",
"676 359 OFFCURVE",
"682 359 CURVE",
"678 357 LINE",
"681 354 OFFCURVE",
"682 352 OFFCURVE",
"682 350 CURVE SMOOTH",
"682 347 OFFCURVE",
"680 344 OFFCURVE",
"676 341 CURVE",
"676 335 LINE",
"685 330 LINE",
"685 328 LINE",
"681 327 OFFCURVE",
"683 319 OFFCURVE",
"683 313 CURVE SMOOTH",
"683 311 OFFCURVE",
"683 309 OFFCURVE",
"682 308 CURVE",
"678 308 LINE",
"676 304 OFFCURVE",
"684 297 OFFCURVE",
"685 293 CURVE SMOOTH",
"685 290 OFFCURVE",
"682 282 OFFCURVE",
"682 278 CURVE",
"687 277 OFFCURVE",
"689 276 OFFCURVE",
"691 274 CURVE",
"691 268 OFFCURVE",
"691 264 OFFCURVE",
"685 262 CURVE",
"685 255 OFFCURVE",
"689 253 OFFCURVE",
"691 247 CURVE",
"691 240 OFFCURVE",
"689 235 OFFCURVE",
"687 228 CURVE",
"698 228 LINE",
"696 224 OFFCURVE",
"693 215 OFFCURVE",
"691 209 CURVE"
);
}
);
width = 835;
}
);
note = A.001;
},
{
glyphname = B.ss01;
lastChange = "2021-08-31 12:20:37 +0000";
layers = (
{
layerId = "FC6CF40E-48D1-4025-95B5-EAE50260AD89";
paths = (
{
closed = 1;
nodes = (
"641 -131 OFFCURVE",
"919 17 OFFCURVE",
"967 160 CURVE",
"1020 185 OFFCURVE",
"1057 207 OFFCURVE",
"1057 223 CURVE SMOOTH",
"1057 224 OFFCURVE",
"1056 224 OFFCURVE",
"1055 224 CURVE SMOOTH",
"1052 224 OFFCURVE",
"1031 214 OFFCURVE",
"973 190 CURVE",
"974 193 OFFCURVE",
"974 197 OFFCURVE",
"974 201 CURVE SMOOTH",
"974 219 OFFCURVE",
"969 239 OFFCURVE",
"957 256 CURVE SMOOTH",
"890 349 OFFCURVE",
"756 411 OFFCURVE",
"634 433 CURVE",
"673 443 OFFCURVE",
"715 458 OFFCURVE",
"753 477 CURVE SMOOTH",
"857 528 OFFCURVE",
"905 575 OFFCURVE",
"905 622 CURVE SMOOTH",
"905 725 OFFCURVE",
"661 801 OFFCURVE",
"405 801 CURVE SMOOTH",
"204 801 OFFCURVE",
"0 762 OFFCURVE",
"0 633 CURVE SMOOTH",
"0 599 OFFCURVE",
"28 547 OFFCURVE",
"65 547 CURVE SMOOTH",
"69 547 OFFCURVE",
"71 549 OFFCURVE",
"71 553 CURVE SMOOTH",
"71 558 OFFCURVE",
"67 566 OFFCURVE",
"60 573 CURVE SMOOTH",
"51 581 OFFCURVE",
"47 590 OFFCURVE",
"47 601 CURVE SMOOTH",
"47 676 OFFCURVE",
"222 742 OFFCURVE",
"400 742 CURVE SMOOTH",
"627 742 OFFCURVE",
"853 680 OFFCURVE",
"853 600 CURVE SMOOTH",
"853 568 OFFCURVE",
"816 532 OFFCURVE",
"737 493 CURVE SMOOTH",
"693 471 OFFCURVE",
"623 452 OFFCURVE",
"575 440 CURVE",
"566 440 OFFCURVE",
"556 441 OFFCURVE",
"547 441 CURVE SMOOTH",
"528 441 LINE SMOOTH",
"523 441 OFFCURVE",
"518 442 OFFCURVE",
"513 443 CURVE",
"536 512 OFFCURVE",
"564 574 OFFCURVE",
"597 617 CURVE",
"598 619 OFFCURVE",
"598 620 OFFCURVE",
"598 622 CURVE SMOOTH",
"598 632 OFFCURVE",
"575 660 OFFCURVE",
"557 660 CURVE SMOOTH",
"540 660 OFFCURVE",
"498 593 OFFCURVE",
"487 573 CURVE SMOOTH",
"486 571 OFFCURVE",
"485 568 OFFCURVE",
"485 566 CURVE SMOOTH",
"485 564 OFFCURVE",
"486 562 OFFCURVE",
"488 562 CURVE SMOOTH",
"490 562 OFFCURVE",
"495 565 OFFCURVE",
"503 573 CURVE",
"492 539 OFFCURVE",
"478 492 OFFCURVE",
"464 440 CURVE",
"407 432 OFFCURVE",
"368 409 OFFCURVE",
"368 399 CURVE SMOOTH",
"368 388 OFFCURVE",
"391 375 OFFCURVE",
"422 375 CURVE SMOOTH",
"427 375 OFFCURVE",
"436 376 OFFCURVE",
"447 378 CURVE",
"413 247 OFFCURVE",
"382 97 OFFCURVE",
"382 15 CURVE SMOOTH",
"382 2 LINE SMOOTH",
"383 -20 OFFCURVE",
"434 -39 OFFCURVE",
"443 -39 CURVE SMOOTH",
"444 -39 OFFCURVE",
"445 -39 OFFCURVE",
"445 -38 CURVE SMOOTH",
"445 -36 LINE SMOOTH",
"445 -17 OFFCURVE",
"464 83 OFFCURVE",
"464 98 CURVE SMOOTH",
"464 101 OFFCURVE",
"463 102 OFFCURVE",
"463 102 CURVE",
"460 102 OFFCURVE",
"452 77 OFFCURVE",
"443 59 CURVE",
"446 150 OFFCURVE",
"464 275 OFFCURVE",
"496 389 CURVE",
"527 397 OFFCURVE",
"557 407 OFFCURVE",
"563 411 CURVE",
"719 382 OFFCURVE",
"920 317 OFFCURVE",
"920 208 CURVE SMOOTH",
"920 193 OFFCURVE",
"917 179 OFFCURVE",
"909 163 CURVE",
"692 77 LINE SMOOTH",
"549 21 OFFCURVE",
"468 -44 OFFCURVE",
"468 -81 CURVE SMOOTH",
"468 -93 OFFCURVE",
"493 -138 OFFCURVE",
"514 -139 CURVE"
);
},
{
closed = 1;
nodes = (
"508 -59 OFFCURVE",
"627 23 OFFCURVE",
"697 51 CURVE SMOOTH",
"753 73 OFFCURVE",
"821 98 OFFCURVE",
"883 124 CURVE",
"866 103 OFFCURVE",
"841 80 OFFCURVE",
"809 57 CURVE SMOOTH",
"705 -20 OFFCURVE",
"643 -47 OFFCURVE",
"507 -82 CURVE"
);
}
);
width = 984;
}
);
note = B.001;
},
{
glyphname = C.ss01;
lastChange = "2021-08-31 12:20:37 +0000";
layers = (
{
layerId = "FC6CF40E-48D1-4025-95B5-EAE50260AD89";
paths = (
{
closed = 1;
nodes = (
"328 -122 OFFCURVE",
"400 -110 OFFCURVE",
"482 -86 CURVE SMOOTH",
"705 -22 OFFCURVE",
"831 62 OFFCURVE",
"924 152 CURVE SMOOTH",
"927 155 OFFCURVE",
"928 158 OFFCURVE",
"928 160 CURVE SMOOTH",
"928 163 OFFCURVE",
"927 164 OFFCURVE",
"924 164 CURVE SMOOTH",
"922 164 OFFCURVE",
"918 163 OFFCURVE",
"914 159 CURVE",
"804 79 OFFCURVE",
"463 -51 OFFCURVE",
"243 -51 CURVE SMOOTH",
"127 -51 OFFCURVE",
"46 -15 OFFCURVE",
"46 82 CURVE SMOOTH",
"46 292 OFFCURVE",
"393 587 OFFCURVE",
"664 667 CURVE SMOOTH",
"683 672 OFFCURVE",
"700 675 OFFCURVE",
"713 675 CURVE SMOOTH",
"749 675 OFFCURVE",
"765 657 OFFCURVE",
"765 629 CURVE SMOOTH",
"765 542 OFFCURVE",
"609 350 OFFCURVE",
"459 294 CURVE SMOOTH",
"443 288 OFFCURVE",
"426 281 OFFCURVE",
"411 281 CURVE SMOOTH",
"394 281 OFFCURVE",
"381 290 OFFCURVE",
"381 318 CURVE SMOOTH",
"381 340 OFFCURVE",
"388 356 OFFCURVE",
"388 377 CURVE SMOOTH",
"388 381 OFFCURVE",
"387 382 OFFCURVE",
"385 382 CURVE SMOOTH",
"374 382 OFFCURVE",
"355 335 OFFCURVE",
"355 297 CURVE SMOOTH",
"355 264 OFFCURVE",
"367 238 OFFCURVE",
"405 238 CURVE SMOOTH",
"604 238 OFFCURVE",
"832 507 OFFCURVE",
"832 661 CURVE SMOOTH",
"832 715 OFFCURVE",
"802 750 OFFCURVE",
"739 750 CURVE SMOOTH",
"587 750 OFFCURVE",
"348 592 OFFCURVE",
"243 491 CURVE SMOOTH",
"108 361 OFFCURVE",
"21 208 OFFCURVE",
"21 86 CURVE SMOOTH",
"21 -45 OFFCURVE",
"110 -122 OFFCURVE",
"267 -122 CURVE SMOOTH"
);
}
);
width = 875;
}
);
note = C.001;
},
{
glyphname = D.ss01;
lastChange = "2021-08-31 12:20:37 +0000";
layers = (
{
layerId = "FC6CF40E-48D1-4025-95B5-EAE50260AD89";
paths = (
{
closed = 1;
nodes = (
"432 -161 OFFCURVE",
"656 -51 OFFCURVE",
"799 93 CURVE",
"823 100 OFFCURVE",
"903 118 OFFCURVE",
"903 128 CURVE SMOOTH",
"903 129 OFFCURVE",
"890 131 OFFCURVE",
"873 131 CURVE SMOOTH",
"863 131 OFFCURVE",
"850 129 OFFCURVE",
"827 124 CURVE",
"893 204 OFFCURVE",
"924 286 OFFCURVE",
"924 362 CURVE SMOOTH",
"924 572 OFFCURVE",
"729 666 OFFCURVE",
"523 698 CURVE",
"525 713 OFFCURVE",
"527 736 OFFCURVE",
"527 758 CURVE SMOOTH",
"527 787 OFFCURVE",
"523 814 OFFCURVE",
"510 814 CURVE SMOOTH",
"502 814 OFFCURVE",
"492 805 OFFCURVE",
"477 785 CURVE SMOOTH",
"467 771 OFFCURVE",
"455 744 OFFCURVE",
"441 707 CURVE",
"411 710 OFFCURVE",
"381 711 OFFCURVE",
"352 711 CURVE SMOOTH",
"291 711 OFFCURVE",
"233 708 OFFCURVE",
"183 702 CURVE SMOOTH",
"48 687 OFFCURVE",
"-68 644 OFFCURVE",
"-68 544 CURVE SMOOTH",
"-68 510 OFFCURVE",
"-40 458 OFFCURVE",
"-3 458 CURVE SMOOTH",
"1 458 OFFCURVE",
"3 460 OFFCURVE",
"3 464 CURVE SMOOTH",
"3 476 OFFCURVE",
"-21 491 OFFCURVE",
"-21 512 CURVE SMOOTH",
"-21 614 OFFCURVE",
"134 660 OFFCURVE",
"305 660 CURVE SMOOTH",
"341 660 OFFCURVE",
"381 657 OFFCURVE",
"421 652 CURVE",
"371 497 OFFCURVE",
"314 248 OFFCURVE",
"314 68 CURVE SMOOTH",
"314 43 OFFCURVE",
"315 20 OFFCURVE",
"317 -1 CURVE SMOOTH",
"317 -4 OFFCURVE",
"318 -8 OFFCURVE",
"319 -11 CURVE",
"261 -39 OFFCURVE",
"230 -69 OFFCURVE",
"230 -108 CURVE SMOOTH",
"230 -135 OFFCURVE",
"250 -161 OFFCURVE",
"297 -161 CURVE SMOOTH"
);
},
{
closed = 1;
nodes = (
"296 -83 OFFCURVE",
"320 -66 OFFCURVE",
"349 -50 CURVE",
"351 -50 OFFCURVE",
"352 -51 OFFCURVE",
"353 -51 CURVE SMOOTH",
"354 -51 OFFCURVE",
"354 -51 OFFCURVE",
"354 -50 CURVE SMOOTH",
"354 -49 OFFCURVE",
"353 -48 OFFCURVE",
"353 -48 CURVE",
"456 7 OFFCURVE",
"619 51 OFFCURVE",
"705 74 CURVE",
"680 51 OFFCURVE",
"651 31 OFFCURVE",
"619 13 CURVE SMOOTH",
"495 -55 OFFCURVE",
"426 -76 OFFCURVE",
"280 -101 CURVE"
);
},
{
closed = 1;
nodes = (
"347 13 OFFCURVE",
"347 27 OFFCURVE",
"347 44 CURVE SMOOTH",
"347 201 OFFCURVE",
"407 459 OFFCURVE",
"496 639 CURVE",
"697 597 OFFCURVE",
"899 494 OFFCURVE",
"899 343 CURVE SMOOTH",
"899 271 OFFCURVE",
"850 190 OFFCURVE",
"729 102 CURVE",
"566 66 OFFCURVE",
"435 36 OFFCURVE",
"348 1 CURVE"
);
}
);
width = 926;
}
);
note = D.001;
},
{
glyphname = E.ss01;
lastChange = "2021-08-31 12:20:37 +0000";
layers = (
{
layerId = "FC6CF40E-48D1-4025-95B5-EAE50260AD89";
paths = (
{
closed = 1;
nodes = (
"556 -125 OFFCURVE",
"844 1 OFFCURVE",
"920 82 CURVE",
"924 85 OFFCURVE",
"925 87 OFFCURVE",
"925 89 CURVE SMOOTH",
"925 90 OFFCURVE",
"924 91 OFFCURVE",
"922 91 CURVE SMOOTH",
"920 91 OFFCURVE",
"916 90 OFFCURVE",
"912 87 CURVE SMOOTH",
"812 28 OFFCURVE",
"546 -54 OFFCURVE",
"341 -54 CURVE SMOOTH",
"187 -54 OFFCURVE",
"119 -8 OFFCURVE",
"119 66 CURVE SMOOTH",
"119 117 OFFCURVE",
"155 177 OFFCURVE",
"220 225 CURVE SMOOTH",
"269 261 OFFCURVE",
"334 288 OFFCURVE",
"404 308 CURVE",
"421 303 LINE",
"482 303 OFFCURVE",
"592 316 OFFCURVE",
"592 366 CURVE SMOOTH",
"592 385 OFFCURVE",
"581 404 OFFCURVE",
"561 404 CURVE SMOOTH",
"547 404 OFFCURVE",
"416 357 OFFCURVE",
"379 338 CURVE",
"304 376 OFFCURVE",
"243 441 OFFCURVE",
"243 499 CURVE SMOOTH",
"243 505 OFFCURVE",
"243 511 OFFCURVE",
"244 517 CURVE",
"476 548 OFFCURVE",
"809 628 OFFCURVE",
"809 682 CURVE SMOOTH",
"809 702 OFFCURVE",
"801 746 OFFCURVE",
"786 751 CURVE SMOOTH",
"762 758 OFFCURVE",
"728 761 OFFCURVE",
"691 761 CURVE SMOOTH",
"521 761 OFFCURVE",
"248 685 OFFCURVE",
"218 545 CURVE",
"155 535 OFFCURVE",
"99 530 OFFCURVE",
"60 530 CURVE SMOOTH",
"42 530 OFFCURVE",
"28 533 OFFCURVE",
"16 533 CURVE SMOOTH",
"7 533 OFFCURVE",
"0 530 OFFCURVE",
"0 526 CURVE SMOOTH",
"0 520 OFFCURVE",
"25 504 OFFCURVE",
"91 504 CURVE SMOOTH",
"123 504 OFFCURVE",
"166 507 OFFCURVE",
"215 513 CURVE",
"218 446 OFFCURVE",
"273 373 OFFCURVE",
"355 326 CURVE",
"284 301 OFFCURVE",
"223 270 OFFCURVE",
"180 229 CURVE SMOOTH",
"113 165 OFFCURVE",
"81 103 OFFCURVE",
"81 48 CURVE SMOOTH",
"81 -40 OFFCURVE",
"173 -125 OFFCURVE",
"342 -125 CURVE SMOOTH"
);
},
{
closed = 1;
nodes = (
"280 590 OFFCURVE",
"333 625 OFFCURVE",
"433 657 CURVE SMOOTH",
"528 687 OFFCURVE",
"590 698 OFFCURVE",
"674 698 CURVE SMOOTH",
"702 698 OFFCURVE",
"733 697 OFFCURVE",
"768 695 CURVE",
"695 646 OFFCURVE",
"452 584 OFFCURVE",
"257 551 CURVE"
);
}
);
width = 826;
}
);
note = E.001;
},
